# Created by Metasequoia

v 0.000000 -1.555570 0.831470
v 0.000000 -1.707107 0.707107
v 0.000000 -1.831470 0.555570
v 0.195090 -1.000000 0.980785
v 0.191342 -1.195090 0.961940
v 0.180240 -1.382683 0.906127
v 0.162212 -1.555570 0.815493
v 0.137950 -1.707107 0.693520
v 0.108386 -1.831470 0.544895
v 0.074658 -1.923880 0.375330
v 0.038060 -1.980785 0.191342
v 0.382683 -1.000000 0.923879
v 0.375330 -1.195090 0.906127
v 0.353553 -1.382683 0.853553
v 0.318190 -1.555570 0.768178
v 0.270598 -1.707107 0.653281
v 0.212608 -1.831470 0.513280
v 0.146447 -1.923880 0.353553
v 0.074658 -1.980785 0.180240
v 0.555570 -1.000000 0.831469
v 0.544895 -1.195090 0.815493
v 0.513280 -1.382683 0.768178
v 0.461940 -1.555570 0.691342
v 0.392848 -1.707107 0.587938
v 0.308658 -1.831470 0.461940
v 0.212608 -1.923880 0.318190
v 0.108386 -1.980785 0.162212
v 0.707107 -1.000000 0.707107
v 0.693520 -1.195090 0.693520
v 0.653282 -1.382683 0.653281
v 0.587938 -1.555570 0.587938
v 0.500000 -1.707107 0.500000
v 0.392848 -1.831470 0.392847
v 0.270598 -1.923880 0.270598
v 0.137950 -1.980785 0.137950
v 0.831470 -1.000000 0.555570
v 0.815493 -1.195090 0.544895
v 0.768178 -1.382683 0.513280
v 0.691342 -1.555570 0.461940
v 0.587938 -1.707107 0.392847
v 0.461940 -1.831470 0.308658
v 0.318190 -1.923880 0.212608
v 0.162212 -1.980785 0.108386
v 0.923879 -1.000000 0.382683
v 0.906127 -1.195090 0.375330
v 0.853553 -1.382683 0.353553
v 0.768178 -1.555570 0.318190
v 0.653281 -1.707107 0.270598
v 0.513280 -1.831470 0.212607
v 0.353554 -1.923880 0.146447
v 0.180240 -1.980785 0.074658
v 0.980785 -1.000000 0.195090
v 0.961940 -1.195090 0.191342
v 0.906128 -1.382683 0.180240
v 0.815493 -1.555570 0.162212
v 0.693520 -1.707107 0.137950
v 0.544895 -1.831470 0.108386
v 0.375330 -1.923880 0.074658
v 0.191342 -1.980785 0.038060
v 1.000000 -1.000000 0.000000
v 0.980785 -1.195090 0.000000
v 0.923880 -1.382683 0.000000
v 0.831469 -1.555570 0.000000
v 0.707107 -1.707107 0.000000
v 0.555570 -1.831470 0.000000
v 0.382684 -1.923880 0.000000
v 0.195090 -1.980785 0.000000
v 0.980785 -1.000000 -0.195090
v 0.961940 -1.195090 -0.191342
v 0.906127 -1.382683 -0.180240
v 0.815493 -1.555570 -0.162212
v 0.693520 -1.707107 -0.137950
v 0.544895 -1.831470 -0.108386
v 0.375330 -1.923880 -0.074658
v 0.191342 -1.980785 -0.038060
v 0.923879 -1.000000 -0.382683
v 0.906127 -1.195090 -0.375330
v 0.853553 -1.382683 -0.353554
v 0.768178 -1.555570 -0.318190
v 0.653281 -1.707107 -0.270598
v 0.513280 -1.831470 -0.212608
v 0.353554 -1.923880 -0.146447
v 0.180240 -1.980785 -0.074658
v 0.831469 -1.000000 -0.555570
v 0.815493 -1.195090 -0.544895
v 0.768178 -1.382683 -0.513280
v 0.691342 -1.555570 -0.461940
v 0.587938 -1.707107 -0.392847
v 0.461940 -1.831470 -0.308658
v 0.318190 -1.923880 -0.212608
v 0.162212 -1.980785 -0.108386
v 0.707106 -1.000000 -0.707107
v 0.693520 -1.195090 -0.693520
v 0.653281 -1.382683 -0.653282
v 0.587938 -1.555570 -0.587938
v 0.500000 -1.707107 -0.500000
v 0.392847 -1.831470 -0.392847
v 0.270598 -1.923880 -0.270598
v 0.137950 -1.980785 -0.137950
v 0.555570 -1.000000 -0.831469
v 0.544895 -1.195090 -0.815493
v 0.513280 -1.382683 -0.768178
v 0.461940 -1.555570 -0.691342
v 0.392847 -1.707107 -0.587938
v 0.308658 -1.831470 -0.461940
v 0.212608 -1.923880 -0.318190
v 0.108386 -1.980785 -0.162212
v 0.382683 -1.000000 -0.923879
v 0.375330 -1.195090 -0.906127
v 0.353553 -1.382683 -0.853553
v 0.318190 -1.555570 -0.768178
v 0.270598 -1.707107 -0.653281
v 0.212607 -1.831470 -0.513280
v 0.146447 -1.923880 -0.353554
v 0.074658 -1.980785 -0.180240
v 0.195090 -1.000000 -0.980785
v 0.191342 -1.195090 -0.961939
v 0.180240 -1.382683 -0.906127
v 0.162212 -1.555570 -0.815493
v 0.137950 -1.707107 -0.693520
v 0.108386 -1.831470 -0.544895
v 0.074658 -1.923880 -0.375330
v 0.038060 -1.980785 -0.191342
v 0.000000 -1.000000 -0.999999
v 0.000000 -1.195090 -0.980785
v 0.000000 -1.382683 -0.923880
v 0.000000 -1.555570 -0.831469
v 0.000000 -1.707107 -0.707107
v 0.000000 -1.831470 -0.555570
v 0.000000 -1.923880 -0.382684
v 0.000000 -1.980785 -0.195090
v -0.195090 -1.000000 -0.980785
v -0.191342 -1.195090 -0.961939
v -0.180240 -1.382683 -0.906127
v -0.162212 -1.555570 -0.815493
v -0.137950 -1.707107 -0.693520
v -0.108386 -1.831470 -0.544895
v -0.074658 -1.923880 -0.375330
v -0.038060 -1.980785 -0.191342
v -0.382683 -1.000000 -0.923879
v -0.375330 -1.195090 -0.906127
v -0.353553 -1.382683 -0.853553
v -0.318190 -1.555570 -0.768178
v -0.270598 -1.707107 -0.653281
v -0.212608 -1.831470 -0.513280
v -0.146447 -1.923880 -0.353553
v -0.074658 -1.980785 -0.180240
v -0.555570 -1.000000 -0.831469
v -0.544895 -1.195090 -0.815493
v -0.513280 -1.382683 -0.768178
v -0.461940 -1.555570 -0.691342
v -0.392847 -1.707107 -0.587938
v -0.308658 -1.831470 -0.461940
v -0.212608 -1.923880 -0.318190
v -0.108386 -1.980785 -0.162212
v -0.707106 -1.000000 -0.707106
v -0.693520 -1.195090 -0.693520
v -0.653281 -1.382683 -0.653281
v -0.587938 -1.555570 -0.587938
v -0.500000 -1.707107 -0.500000
v -0.392847 -1.831470 -0.392847
v -0.270598 -1.923880 -0.270598
v -0.137950 -1.980785 -0.137950
v -0.831469 -1.000000 -0.555569
v -0.815493 -1.195090 -0.544895
v -0.768178 -1.382683 -0.513280
v -0.691341 -1.555570 -0.461940
v -0.587938 -1.707107 -0.392847
v -0.461940 -1.831470 -0.308658
v -0.318190 -1.923880 -0.212608
v -0.162212 -1.980785 -0.108386
v -0.923879 -1.000000 -0.382683
v -0.906127 -1.195090 -0.375330
v -0.853553 -1.382683 -0.353553
v -0.768177 -1.555570 -0.318190
v -0.653281 -1.707107 -0.270598
v -0.513280 -1.831470 -0.212607
v -0.353553 -1.923880 -0.146447
v -0.180240 -1.980785 -0.074658
v -0.980784 -1.000000 -0.195090
v -0.961939 -1.195090 -0.191342
v -0.906127 -1.382683 -0.180240
v -0.815493 -1.555570 -0.162212
v -0.693520 -1.707107 -0.137950
v -0.544895 -1.831470 -0.108386
v -0.375330 -1.923880 -0.074658
v -0.191342 -1.980785 -0.038060
v -0.999999 -1.000000 0.000000
v -0.980785 -1.195090 0.000000
v -0.923879 -1.382683 0.000000
v -0.831469 -1.555570 -0.000000
v -0.707107 -1.707107 -0.000000
v -0.555570 -1.831470 0.000000
v -0.382683 -1.923880 -0.000000
v -0.195090 -1.980785 -0.000000
v -0.980784 -1.000000 0.195091
v -0.961939 -1.195090 0.191342
v -0.906127 -1.382683 0.180240
v -0.815493 -1.555570 0.162212
v -0.693520 -1.707107 0.137950
v -0.544895 -1.831470 0.108386
v -0.375330 -1.923880 0.074658
v -0.191342 -1.980785 0.038060
v -0.923878 -1.000000 0.382683
v -0.906127 -1.195090 0.375330
v -0.853553 -1.382683 0.353553
v -0.768177 -1.555570 0.318189
v -0.653281 -1.707107 0.270598
v -0.513280 -1.831470 0.212607
v -0.353553 -1.923880 0.146446
v -0.180240 -1.980785 0.074658
v -0.831469 -1.000000 0.555570
v -0.815493 -1.195090 0.544895
v -0.768177 -1.382683 0.513280
v -0.691341 -1.555570 0.461939
v -0.587938 -1.707107 0.392847
v -0.461939 -1.831470 0.308658
v -0.318189 -1.923880 0.212607
v -0.162212 -1.980785 0.108386
v -0.707106 -1.000000 0.707106
v -0.693519 -1.195090 0.693520
v -0.653281 -1.382683 0.653281
v -0.587937 -1.555570 0.587937
v -0.500000 -1.707107 0.500000
v -0.392847 -1.831470 0.392847
v -0.270598 -1.923880 0.270598
v -0.137950 -1.980785 0.137950
v -0.555569 -1.000000 0.831469
v -0.544895 -1.195090 0.815493
v -0.513280 -1.382683 0.768178
v -0.461939 -1.555570 0.691341
v -0.392847 -1.707107 0.587937
v -0.308658 -1.831470 0.461939
v -0.212607 -1.923880 0.318189
v -0.108386 -1.980785 0.162212
v -0.382683 -1.000000 0.923879
v -0.375330 -1.195090 0.906127
v -0.353553 -1.382683 0.853553
v -0.318189 -1.555570 0.768177
v -0.270598 -1.707107 0.653281
v -0.212607 -1.831470 0.513279
v -0.146446 -1.923880 0.353553
v -0.074658 -1.980785 0.180240
v -0.195090 -1.000000 0.980784
v -0.191341 -1.195090 0.961939
v -0.180240 -1.382683 0.906127
v -0.162212 -1.555570 0.815493
v -0.137950 -1.707107 0.693520
v -0.108386 -1.831470 0.544895
v -0.074658 -1.923880 0.375330
v -0.038060 -1.980785 0.191342
v 0.000001 -1.000000 0.999999
v 0.000000 -1.195090 0.980785
v 0.000000 -1.382683 0.923879
v 0.000000 -1.923880 0.382683
v 0.000000 -1.980785 0.195090
v 0.000000 -2.000000 0.000000
v 0.000000 1.000000 1.000000
v 0.195090 1.000000 0.980785
v 0.382683 1.000000 0.923880
v 0.555570 1.000000 0.831470
v 0.707107 1.000000 0.707107
v 0.831470 1.000000 0.555570
v 0.923880 1.000000 0.382683
v 0.980785 1.000000 0.195090
v 1.000000 1.000000 0.000000
v 0.980785 1.000000 -0.195090
v 0.923880 1.000000 -0.382683
v 0.831470 1.000000 -0.555570
v 0.707107 1.000000 -0.707107
v 0.555570 1.000000 -0.831470
v 0.382683 1.000000 -0.923880
v 0.195090 1.000000 -0.980785
v 0.000000 1.000000 -1.000000
v -0.195090 1.000000 -0.980785
v -0.382683 1.000000 -0.923880
v -0.555570 1.000000 -0.831470
v -0.707107 1.000000 -0.707107
v -0.831469 1.000000 -0.555570
v -0.923880 1.000000 -0.382684
v -0.980785 1.000000 -0.195090
v -1.000000 1.000000 0.000000
v -0.980785 1.000000 0.195090
v -0.923879 1.000000 0.382684
v -0.831470 1.000000 0.555570
v -0.707107 1.000000 0.707107
v -0.555570 1.000000 0.831470
v -0.382683 1.000000 0.923880
v -0.195090 1.000000 0.980785
v 0.000000 1.980785 0.195090
v 0.000000 1.923880 0.382683
v 0.000000 1.831470 0.555570
v 0.000000 1.707107 0.707107
v 0.000000 1.555570 0.831470
v 0.000000 1.382684 0.923880
v 0.000000 1.195090 0.980785
v 0.038060 1.980785 0.191342
v 0.074658 1.923880 0.375330
v 0.108386 1.831470 0.544895
v 0.137950 1.707107 0.693520
v 0.162212 1.555570 0.815493
v 0.180240 1.382684 0.906127
v 0.191342 1.195090 0.961940
v 0.074658 1.980785 0.180240
v 0.146447 1.923880 0.353553
v 0.212608 1.831470 0.513280
v 0.270598 1.707107 0.653281
v 0.318190 1.555570 0.768178
v 0.353553 1.382684 0.853553
v 0.375330 1.195090 0.906127
v 0.108386 1.980785 0.162212
v 0.212608 1.923880 0.318190
v 0.308658 1.831470 0.461940
v 0.392848 1.707107 0.587938
v 0.461940 1.555570 0.691342
v 0.513280 1.382684 0.768178
v 0.544895 1.195090 0.815493
v 0.137950 1.980785 0.137950
v 0.270598 1.923880 0.270598
v 0.392848 1.831470 0.392847
v 0.500000 1.707107 0.500000
v 0.587938 1.555570 0.587938
v 0.653281 1.382684 0.653281
v 0.693520 1.195090 0.693520
v 0.162212 1.980785 0.108386
v 0.318190 1.923880 0.212607
v 0.461940 1.831470 0.308658
v 0.587938 1.707107 0.392847
v 0.691342 1.555570 0.461940
v 0.768178 1.382684 0.513280
v 0.815493 1.195090 0.544895
v 0.180240 1.980785 0.074658
v 0.353554 1.923880 0.146447
v 0.513280 1.831470 0.212607
v 0.653281 1.707107 0.270598
v 0.768178 1.555570 0.318190
v 0.853553 1.382684 0.353553
v 0.906127 1.195090 0.375330
v 0.191342 1.980785 0.038060
v 0.375330 1.923880 0.074658
v 0.544895 1.831470 0.108386
v 0.693520 1.707107 0.137950
v 0.815493 1.555570 0.162212
v 0.906127 1.382684 0.180240
v 0.961940 1.195090 0.191342
v 0.195090 1.980785 0.000000
v 0.382684 1.923880 0.000000
v 0.555570 1.831470 0.000000
v 0.707107 1.707107 0.000000
v 0.831469 1.555570 0.000000
v 0.923879 1.382684 0.000000
v 0.980785 1.195090 0.000000
v 0.191342 1.980785 -0.038060
v 0.375330 1.923880 -0.074658
v 0.544895 1.831470 -0.108386
v 0.693520 1.707107 -0.137950
v 0.815493 1.555570 -0.162212
v 0.906127 1.382684 -0.180240
v 0.961940 1.195090 -0.191342
v 0.180240 1.980785 -0.074658
v 0.353553 1.923880 -0.146447
v 0.513280 1.831470 -0.212608
v 0.653281 1.707107 -0.270598
v 0.768178 1.555570 -0.318190
v 0.853553 1.382684 -0.353553
v 0.906127 1.195090 -0.375330
v 0.162212 1.980785 -0.108386
v 0.318190 1.923880 -0.212608
v 0.461940 1.831470 -0.308658
v 0.587938 1.707107 -0.392847
v 0.691341 1.555570 -0.461940
v 0.768178 1.382684 -0.513280
v 0.815493 1.195090 -0.544895
v 0.137950 1.980785 -0.137950
v 0.270598 1.923880 -0.270598
v 0.392847 1.831470 -0.392847
v 0.500000 1.707107 -0.500000
v 0.587938 1.555570 -0.587938
v 0.653281 1.382684 -0.653281
v 0.693520 1.195090 -0.693520
v 0.108386 1.980785 -0.162212
v 0.212608 1.923880 -0.318190
v 0.308658 1.831470 -0.461940
v 0.392847 1.707107 -0.587938
v 0.461940 1.555570 -0.691342
v 0.513280 1.382684 -0.768178
v 0.544895 1.195090 -0.815493
v 0.074658 1.980785 -0.180240
v 0.146447 1.923880 -0.353554
v 0.212607 1.831470 -0.513280
v 0.270598 1.707107 -0.653281
v 0.318190 1.555570 -0.768178
v 0.353553 1.382684 -0.853553
v 0.375330 1.195090 -0.906127
v 0.038060 1.980785 -0.191342
v 0.074658 1.923880 -0.375330
v 0.108386 1.831470 -0.544895
v 0.137950 1.707107 -0.693520
v 0.162212 1.555570 -0.815493
v 0.180240 1.382684 -0.906127
v 0.191342 1.195090 -0.961939
v 0.000000 1.980785 -0.195090
v 0.000000 1.923880 -0.382684
v 0.000000 1.831470 -0.555570
v 0.000000 1.707107 -0.707107
v 0.000000 1.555570 -0.831469
v 0.000000 1.382684 -0.923879
v 0.000000 1.195090 -0.980785
v -0.038060 1.980785 -0.191342
v -0.074658 1.923880 -0.375330
v -0.108386 1.831470 -0.544895
v -0.137950 1.707107 -0.693520
v -0.162212 1.555570 -0.815493
v -0.180240 1.382684 -0.906127
v -0.191342 1.195090 -0.961939
v -0.074658 1.980785 -0.180240
v -0.146447 1.923880 -0.353553
v -0.212608 1.831470 -0.513280
v -0.270598 1.707107 -0.653281
v -0.318189 1.555570 -0.768177
v -0.353553 1.382684 -0.853553
v -0.375330 1.195090 -0.906127
v -0.108386 1.980785 -0.162212
v -0.212608 1.923880 -0.318190
v -0.308658 1.831470 -0.461940
v -0.392847 1.707107 -0.587938
v -0.461940 1.555570 -0.691341
v -0.513280 1.382684 -0.768178
v -0.544895 1.195090 -0.815493
v -0.137950 1.980785 -0.137950
v -0.270598 1.923880 -0.270598
v -0.392847 1.831470 -0.392847
v -0.500000 1.707107 -0.500000
v -0.587937 1.555570 -0.587938
v -0.653281 1.382684 -0.653281
v -0.693520 1.195090 -0.693520
v -0.162212 1.980785 -0.108386
v -0.318190 1.923880 -0.212608
v -0.461940 1.831470 -0.308658
v -0.587938 1.707107 -0.392847
v -0.691341 1.555570 -0.461940
v -0.768178 1.382684 -0.513280
v -0.815493 1.195090 -0.544895
v 0.000000 2.000000 0.000000
v -0.180240 1.980785 -0.074658
v -0.353553 1.923880 -0.146447
v -0.513280 1.831470 -0.212607
v -0.653281 1.707107 -0.270598
v -0.768177 1.555570 -0.318190
v -0.853553 1.382684 -0.353553
v -0.906127 1.195090 -0.375330
v -0.191342 1.980785 -0.038060
v -0.375330 1.923880 -0.074658
v -0.544895 1.831470 -0.108386
v -0.693520 1.707107 -0.137950
v -0.815493 1.555570 -0.162212
v -0.906127 1.382684 -0.180240
v -0.961939 1.195090 -0.191342
v -0.195090 1.980785 0.000000
v -0.382683 1.923880 0.000000
v -0.555570 1.831470 0.000000
v -0.707107 1.707107 0.000000
v -0.831469 1.555570 0.000000
v -0.923879 1.382684 0.000000
v -0.980785 1.195090 0.000000
v -0.191342 1.980785 0.038060
v -0.375330 1.923880 0.074658
v -0.544895 1.831470 0.108386
v -0.693520 1.707107 0.137950
v -0.815493 1.555570 0.162212
v -0.906127 1.382684 0.180240
v -0.961939 1.195090 0.191342
v -0.180240 1.980785 0.074658
v -0.353553 1.923880 0.146447
v -0.513280 1.831470 0.212607
v -0.653281 1.707107 0.270598
v -0.768177 1.555570 0.318189
v -0.853553 1.382684 0.353553
v -0.906127 1.195090 0.375330
v -0.162212 1.980785 0.108386
v -0.318189 1.923880 0.212607
v -0.461939 1.831470 0.308658
v -0.587938 1.707107 0.392847
v -0.691341 1.555570 0.461939
v -0.768177 1.382684 0.513280
v -0.815493 1.195090 0.544895
v -0.137950 1.980785 0.137950
v -0.270598 1.923880 0.270598
v -0.392847 1.831470 0.392847
v -0.500000 1.707107 0.500000
v -0.587937 1.555570 0.587937
v -0.653281 1.382684 0.653281
v -0.693519 1.195090 0.693520
v -0.108386 1.980785 0.162212
v -0.212607 1.923880 0.318189
v -0.308658 1.831470 0.461939
v -0.392847 1.707107 0.587937
v -0.461939 1.555570 0.691341
v -0.513280 1.382684 0.768177
v -0.544895 1.195090 0.815493
v -0.074658 1.980785 0.180240
v -0.146446 1.923880 0.353553
v -0.212607 1.831470 0.513279
v -0.270598 1.707107 0.653281
v -0.318189 1.555570 0.768177
v -0.353553 1.382684 0.853553
v -0.375330 1.195090 0.906127
v -0.038060 1.980785 0.191342
v -0.074658 1.923880 0.375330
v -0.108386 1.831470 0.544895
v -0.137950 1.707107 0.693520
v -0.162212 1.555570 0.815493
v -0.180240 1.382684 0.906127
v -0.191341 1.195090 0.961939
# 514 vertices

vn -0.00000 -0.38054 0.92477
vn -0.00000 -0.19393 0.98102
vn 0.19139 -0.19393 0.96217
vn 0.18041 -0.38054 0.90700
vn -0.00000 -0.55276 0.83334
vn 0.16258 -0.55276 0.81733
vn 0.00000 -0.70406 0.71014
vn 0.13854 -0.70406 0.69649
vn 0.00000 -0.82865 0.55977
vn 0.10921 -0.82865 0.54902
vn -0.00000 -0.92171 0.38788
vn 0.07567 -0.92171 0.38043
vn -0.00000 -0.97960 0.20096
vn 0.03921 -0.97960 0.19710
vn -0.00000 -1.00000 -0.00000
vn 0.00000 -0.04892 0.99880
vn 0.19486 -0.04892 0.97961
vn 0.07691 -0.97960 0.18567
vn 0.38223 -0.04892 0.92277
vn 0.37542 -0.19393 0.90634
vn 0.35389 -0.38054 0.85437
vn 0.31890 -0.55276 0.76991
vn 0.27176 -0.70406 0.65608
vn 0.21422 -0.82865 0.51716
vn 0.14844 -0.92171 0.35836
vn 0.39453 -0.70406 0.59046
vn 0.31099 -0.82865 0.46543
vn 0.21550 -0.92171 0.32251
vn 0.11165 -0.97960 0.16710
vn 0.55491 -0.04892 0.83047
vn 0.54502 -0.19393 0.81569
vn 0.51377 -0.38054 0.76892
vn 0.46298 -0.55276 0.69290
vn 0.70626 -0.04892 0.70626
vn 0.69368 -0.19393 0.69368
vn 0.65391 -0.38054 0.65391
vn 0.58926 -0.55276 0.58926
vn 0.50215 -0.70406 0.50214
vn 0.39582 -0.82865 0.39582
vn 0.27427 -0.92171 0.27427
vn 0.14210 -0.97960 0.14210
vn 0.59046 -0.70406 0.39453
vn 0.46543 -0.82865 0.31099
vn 0.32251 -0.92171 0.21550
vn 0.16710 -0.97960 0.11165
vn 0.83048 -0.04892 0.55490
vn 0.81569 -0.19393 0.54502
vn 0.76892 -0.38054 0.51377
vn 0.69290 -0.55276 0.46298
vn 0.90634 -0.19393 0.37542
vn 0.85437 -0.38054 0.35389
vn 0.76990 -0.55276 0.31891
vn 0.65608 -0.70406 0.27176
vn 0.51716 -0.82865 0.21422
vn 0.35836 -0.92171 0.14844
vn 0.18567 -0.97960 0.07691
vn 0.92277 -0.04892 0.38223
vn 0.54902 -0.82865 0.10921
vn 0.38043 -0.92171 0.07567
vn 0.19710 -0.97960 0.03921
vn 0.97961 -0.04892 0.19486
vn 0.96217 -0.19393 0.19139
vn 0.90700 -0.38054 0.18041
vn 0.81733 -0.55276 0.16258
vn 0.69650 -0.70406 0.13854
vn 0.98102 -0.19393 -0.00000
vn 0.92477 -0.38054 -0.00000
vn 0.83334 -0.55276 -0.00000
vn 0.71014 -0.70406 -0.00000
vn 0.55977 -0.82865 0.00000
vn 0.38788 -0.92171 0.00000
vn 0.20096 -0.97960 0.00000
vn 0.99880 -0.04892 0.00000
vn 0.54902 -0.82865 -0.10921
vn 0.38043 -0.92171 -0.07567
vn 0.19710 -0.97960 -0.03921
vn 0.97961 -0.04892 -0.19486
vn 0.96217 -0.19393 -0.19139
vn 0.90700 -0.38054 -0.18041
vn 0.81733 -0.55276 -0.16258
vn 0.69650 -0.70406 -0.13854
vn 0.85437 -0.38054 -0.35389
vn 0.76991 -0.55276 -0.31890
vn 0.65608 -0.70406 -0.27176
vn 0.51716 -0.82865 -0.21422
vn 0.35836 -0.92171 -0.14844
vn 0.18567 -0.97960 -0.07691
vn 0.92277 -0.04892 -0.38223
vn 0.90634 -0.19393 -0.37542
vn 0.32251 -0.92171 -0.21550
vn 0.16710 -0.97960 -0.11165
vn 0.83047 -0.04892 -0.55491
vn 0.81569 -0.19393 -0.54502
vn 0.76892 -0.38054 -0.51377
vn 0.69290 -0.55276 -0.46298
vn 0.59046 -0.70406 -0.39453
vn 0.46543 -0.82865 -0.31099
vn 0.58926 -0.55276 -0.58926
vn 0.50214 -0.70406 -0.50214
vn 0.39582 -0.82865 -0.39582
vn 0.27427 -0.92171 -0.27427
vn 0.14210 -0.97960 -0.14210
vn 0.70626 -0.04892 -0.70626
vn 0.69368 -0.19393 -0.69368
vn 0.65391 -0.38054 -0.65391
vn 0.11165 -0.97960 -0.16710
vn 0.55491 -0.04892 -0.83047
vn 0.54502 -0.19393 -0.81569
vn 0.51377 -0.38054 -0.76892
vn 0.46298 -0.55276 -0.69290
vn 0.39453 -0.70406 -0.59046
vn 0.31099 -0.82865 -0.46543
vn 0.21550 -0.92171 -0.32251
vn 0.31890 -0.55276 -0.76991
vn 0.27176 -0.70406 -0.65608
vn 0.21422 -0.82865 -0.51716
vn 0.14844 -0.92171 -0.35836
vn 0.07691 -0.97960 -0.18567
vn 0.38223 -0.04892 -0.92277
vn 0.37542 -0.19393 -0.90634
vn 0.35389 -0.38054 -0.85437
vn 0.03921 -0.97960 -0.19710
vn 0.19486 -0.04892 -0.97961
vn 0.19139 -0.19393 -0.96217
vn 0.18041 -0.38054 -0.90700
vn 0.16258 -0.55276 -0.81733
vn 0.13854 -0.70406 -0.69650
vn 0.10921 -0.82865 -0.54902
vn 0.07567 -0.92171 -0.38043
vn -0.00000 -0.70406 -0.71014
vn 0.00000 -0.82865 -0.55977
vn 0.00000 -0.92171 -0.38788
vn 0.00000 -0.97960 -0.20096
vn 0.00000 -0.04892 -0.99880
vn 0.00000 -0.19393 -0.98102
vn 0.00000 -0.38054 -0.92477
vn 0.00000 -0.55276 -0.83334
vn -0.19486 -0.04892 -0.97961
vn -0.19139 -0.19393 -0.96217
vn -0.18041 -0.38054 -0.90700
vn -0.16258 -0.55276 -0.81733
vn -0.13854 -0.70406 -0.69650
vn -0.10921 -0.82865 -0.54902
vn -0.07567 -0.92171 -0.38043
vn -0.03921 -0.97960 -0.19710
vn -0.27176 -0.70406 -0.65608
vn -0.21422 -0.82865 -0.51716
vn -0.14844 -0.92171 -0.35836
vn -0.07691 -0.97960 -0.18567
vn -0.38223 -0.04892 -0.92277
vn -0.37542 -0.19393 -0.90634
vn -0.35389 -0.38054 -0.85437
vn -0.31890 -0.55276 -0.76991
vn -0.54502 -0.19393 -0.81569
vn -0.51377 -0.38054 -0.76891
vn -0.46298 -0.55276 -0.69290
vn -0.39453 -0.70406 -0.59046
vn -0.31099 -0.82865 -0.46543
vn -0.21550 -0.92171 -0.32251
vn -0.11165 -0.97960 -0.16710
vn -0.55491 -0.04892 -0.83047
vn -0.39582 -0.82865 -0.39582
vn -0.27427 -0.92171 -0.27427
vn -0.14210 -0.97960 -0.14210
vn -0.70626 -0.04891 -0.70626
vn -0.69368 -0.19393 -0.69368
vn -0.65391 -0.38054 -0.65391
vn -0.58926 -0.55276 -0.58926
vn -0.50215 -0.70406 -0.50214
vn -0.76891 -0.38054 -0.51377
vn -0.69290 -0.55276 -0.46298
vn -0.59046 -0.70406 -0.39453
vn -0.46543 -0.82865 -0.31099
vn -0.32251 -0.92171 -0.21550
vn -0.16710 -0.97960 -0.11165
vn -0.83048 -0.04892 -0.55490
vn -0.81569 -0.19393 -0.54502
vn -0.35836 -0.92171 -0.14844
vn -0.18567 -0.97960 -0.07691
vn -0.92277 -0.04892 -0.38222
vn -0.90634 -0.19393 -0.37542
vn -0.85437 -0.38054 -0.35389
vn -0.76990 -0.55276 -0.31891
vn -0.65608 -0.70406 -0.27176
vn -0.51716 -0.82865 -0.21422
vn -0.90700 -0.38054 -0.18041
vn -0.81733 -0.55276 -0.16258
vn -0.69650 -0.70406 -0.13854
vn -0.54902 -0.82865 -0.10921
vn -0.38043 -0.92171 -0.07567
vn -0.19710 -0.97960 -0.03921
vn -0.97961 -0.04892 -0.19486
vn -0.96217 -0.19393 -0.19139
vn -0.38788 -0.92171 -0.00000
vn -0.20096 -0.97960 -0.00000
vn -0.99880 -0.04892 -0.00000
vn -0.98102 -0.19393 -0.00000
vn -0.92477 -0.38054 -0.00000
vn -0.83334 -0.55276 -0.00000
vn -0.71014 -0.70406 0.00000
vn -0.55977 -0.82865 0.00000
vn -0.81733 -0.55276 0.16258
vn -0.69650 -0.70406 0.13854
vn -0.54902 -0.82865 0.10921
vn -0.38043 -0.92171 0.07567
vn -0.19710 -0.97960 0.03921
vn -0.97961 -0.04892 0.19486
vn -0.96217 -0.19393 0.19139
vn -0.90700 -0.38054 0.18041
vn -0.18567 -0.97960 0.07691
vn -0.92277 -0.04892 0.38222
vn -0.90634 -0.19393 0.37542
vn -0.85437 -0.38054 0.35389
vn -0.76990 -0.55276 0.31891
vn -0.65608 -0.70406 0.27176
vn -0.51716 -0.82865 0.21422
vn -0.35836 -0.92171 0.14844
vn -0.69290 -0.55276 0.46298
vn -0.59046 -0.70406 0.39453
vn -0.46543 -0.82865 0.31099
vn -0.32251 -0.92171 0.21550
vn -0.16710 -0.97960 0.11165
vn -0.83047 -0.04892 0.55491
vn -0.81568 -0.19393 0.54502
vn -0.76891 -0.38054 0.51377
vn -0.14210 -0.97960 0.14210
vn -0.70626 -0.04892 0.70626
vn -0.69368 -0.19393 0.69368
vn -0.65391 -0.38054 0.65391
vn -0.58926 -0.55276 0.58926
vn -0.50214 -0.70406 0.50215
vn -0.39582 -0.82865 0.39582
vn -0.27427 -0.92171 0.27427
vn -0.39453 -0.70406 0.59046
vn -0.31099 -0.82865 0.46543
vn -0.21550 -0.92171 0.32251
vn -0.11165 -0.97960 0.16710
vn -0.55490 -0.04892 0.83048
vn -0.54502 -0.19393 0.81568
vn -0.51377 -0.38054 0.76891
vn -0.46298 -0.55276 0.69290
vn -0.37542 -0.19393 0.90634
vn -0.35389 -0.38054 0.85437
vn -0.31891 -0.55276 0.76990
vn -0.27176 -0.70406 0.65608
vn -0.21422 -0.82865 0.51716
vn -0.14844 -0.92171 0.35836
vn -0.07691 -0.97960 0.18567
vn -0.38223 -0.04892 0.92277
vn -0.10921 -0.82865 0.54902
vn -0.07567 -0.92171 0.38043
vn -0.03921 -0.97960 0.19710
vn -0.19486 -0.04892 0.97961
vn -0.19139 -0.19393 0.96217
vn -0.18041 -0.38054 0.90700
vn -0.16258 -0.55276 0.81733
vn -0.13854 -0.70406 0.69649
vn -0.00000 0.04892 0.99880
vn 0.19486 0.04892 0.97961
vn 0.38222 0.04892 0.92277
vn 0.55490 0.04892 0.83048
vn 0.70626 0.04892 0.70626
vn 0.83047 0.04892 0.55490
vn 0.92277 0.04892 0.38222
vn 0.97961 0.04892 0.19486
vn 0.99880 0.04892 0.00000
vn 0.97961 0.04892 -0.19486
vn 0.92277 0.04892 -0.38222
vn 0.83048 0.04892 -0.55490
vn 0.70626 0.04892 -0.70626
vn 0.55490 0.04892 -0.83048
vn 0.38222 0.04892 -0.92277
vn 0.19486 0.04892 -0.97961
vn 0.00000 0.04892 -0.99880
vn -0.19486 0.04892 -0.97961
vn -0.38222 0.04892 -0.92277
vn -0.55490 0.04892 -0.83048
vn -0.70626 0.04892 -0.70626
vn -0.83047 0.04892 -0.55491
vn -0.92277 0.04892 -0.38223
vn -0.97961 0.04892 -0.19485
vn -0.99880 0.04892 -0.00000
vn -0.97961 0.04892 0.19486
vn -0.92277 0.04892 0.38223
vn -0.83048 0.04892 0.55490
vn -0.70626 0.04892 0.70626
vn -0.55491 0.04892 0.83047
vn -0.38222 0.04892 0.92277
vn 0.00000 1.00000 0.00000
vn 0.00000 1.00000 0.00000
vn -0.19485 0.04892 0.97961
vn 0.00000 -1.00000 0.00000
vn 0.00000 -1.00000 0.00000
vn 0.00000 0.92171 0.38788
vn 0.00000 0.97960 0.20096
vn 0.03921 0.97960 0.19710
vn 0.07567 0.92171 0.38043
vn 0.00000 0.82865 0.55977
vn 0.10921 0.82865 0.54902
vn 0.00000 0.70406 0.71014
vn 0.13854 0.70406 0.69649
vn 0.00000 0.55276 0.83334
vn 0.16258 0.55276 0.81733
vn -0.00000 0.38054 0.92477
vn 0.18041 0.38054 0.90700
vn -0.00000 0.19393 0.98102
vn 0.19139 0.19393 0.96217
vn -0.00000 1.00000 -0.00000
vn 0.07691 0.97960 0.18567
vn 0.14844 0.92171 0.35836
vn 0.21422 0.82865 0.51716
vn 0.27176 0.70406 0.65608
vn 0.31890 0.55276 0.76991
vn 0.35389 0.38054 0.85437
vn 0.37542 0.19393 0.90634
vn 0.39453 0.70406 0.59046
vn 0.46298 0.55276 0.69290
vn 0.51377 0.38054 0.76891
vn 0.54502 0.19393 0.81569
vn 0.11165 0.97960 0.16710
vn 0.21550 0.92171 0.32251
vn 0.31099 0.82865 0.46543
vn 0.14210 0.97960 0.14210
vn 0.27427 0.92171 0.27427
vn 0.39582 0.82865 0.39582
vn 0.50215 0.70406 0.50214
vn 0.58926 0.55276 0.58926
vn 0.65391 0.38054 0.65391
vn 0.69368 0.19393 0.69368
vn 0.69290 0.55276 0.46298
vn 0.76891 0.38054 0.51377
vn 0.81569 0.19393 0.54502
vn 0.16710 0.97960 0.11165
vn 0.32251 0.92171 0.21550
vn 0.46543 0.82865 0.31099
vn 0.59046 0.70406 0.39453
vn 0.18567 0.97960 0.07691
vn 0.35836 0.92171 0.14844
vn 0.51716 0.82865 0.21422
vn 0.65608 0.70406 0.27176
vn 0.76990 0.55276 0.31890
vn 0.85437 0.38054 0.35389
vn 0.90634 0.19393 0.37542
vn 0.81733 0.55276 0.16258
vn 0.90700 0.38054 0.18041
vn 0.96217 0.19393 0.19139
vn 0.19710 0.97960 0.03921
vn 0.38043 0.92171 0.07567
vn 0.54902 0.82865 0.10921
vn 0.69650 0.70406 0.13854
vn 0.38788 0.92171 0.00000
vn 0.55977 0.82865 0.00000
vn 0.71014 0.70406 -0.00000
vn 0.83334 0.55276 -0.00000
vn 0.92476 0.38054 0.00000
vn 0.98102 0.19393 0.00000
vn 0.20096 0.97960 -0.00000
vn 0.90700 0.38054 -0.18041
vn 0.96217 0.19393 -0.19139
vn 0.19710 0.97960 -0.03921
vn 0.38043 0.92171 -0.07567
vn 0.54902 0.82865 -0.10921
vn 0.69650 0.70406 -0.13854
vn 0.81733 0.55276 -0.16258
vn 0.51716 0.82865 -0.21422
vn 0.65608 0.70406 -0.27176
vn 0.76990 0.55276 -0.31891
vn 0.85437 0.38054 -0.35389
vn 0.90634 0.19393 -0.37542
vn 0.18567 0.97960 -0.07691
vn 0.35836 0.92171 -0.14844
vn 0.81569 0.19393 -0.54502
vn 0.16710 0.97960 -0.11165
vn 0.32251 0.92171 -0.21550
vn 0.46543 0.82865 -0.31099
vn 0.59046 0.70406 -0.39453
vn 0.69290 0.55276 -0.46298
vn 0.76891 0.38054 -0.51377
vn 0.39582 0.82865 -0.39582
vn 0.50214 0.70406 -0.50214
vn 0.58926 0.55276 -0.58926
vn 0.65391 0.38054 -0.65391
vn 0.69368 0.19393 -0.69368
vn 0.14210 0.97960 -0.14210
vn 0.27427 0.92171 -0.27427
vn 0.54502 0.19393 -0.81569
vn 0.11165 0.97960 -0.16710
vn 0.21550 0.92171 -0.32251
vn 0.31099 0.82865 -0.46543
vn 0.39453 0.70406 -0.59046
vn 0.46298 0.55276 -0.69290
vn 0.51377 0.38054 -0.76891
vn 0.27176 0.70406 -0.65608
vn 0.31890 0.55276 -0.76990
vn 0.35389 0.38054 -0.85437
vn 0.37542 0.19393 -0.90634
vn 0.07691 0.97960 -0.18567
vn 0.14844 0.92171 -0.35836
vn 0.21422 0.82865 -0.51716
vn 0.03921 0.97960 -0.19710
vn 0.07567 0.92171 -0.38043
vn 0.10921 0.82865 -0.54902
vn 0.13854 0.70406 -0.69650
vn 0.16258 0.55276 -0.81733
vn 0.18041 0.38054 -0.90700
vn 0.19139 0.19393 -0.96217
vn 0.00000 0.70406 -0.71014
vn 0.00000 0.55276 -0.83334
vn 0.00000 0.38054 -0.92477
vn 0.00000 0.19393 -0.98102
vn -0.00000 0.97960 -0.20096
vn 0.00000 0.92171 -0.38788
vn 0.00000 0.82865 -0.55977
vn -0.03921 0.97960 -0.19710
vn -0.07567 0.92171 -0.38043
vn -0.10921 0.82865 -0.54902
vn -0.13854 0.70406 -0.69650
vn -0.16258 0.55276 -0.81733
vn -0.18041 0.38054 -0.90700
vn -0.19139 0.19393 -0.96217
vn -0.31890 0.55276 -0.76990
vn -0.35389 0.38054 -0.85437
vn -0.37542 0.19393 -0.90634
vn -0.07691 0.97960 -0.18567
vn -0.14844 0.92171 -0.35836
vn -0.21422 0.82865 -0.51716
vn -0.27176 0.70406 -0.65608
vn -0.21550 0.92171 -0.32251
vn -0.31099 0.82865 -0.46543
vn -0.39453 0.70406 -0.59046
vn -0.46298 0.55276 -0.69290
vn -0.51377 0.38054 -0.76891
vn -0.54502 0.19393 -0.81569
vn -0.11165 0.97960 -0.16710
vn -0.65391 0.38054 -0.65391
vn -0.69368 0.19393 -0.69368
vn -0.14210 0.97960 -0.14210
vn -0.27427 0.92171 -0.27427
vn -0.39582 0.82865 -0.39582
vn -0.50215 0.70406 -0.50215
vn -0.58926 0.55276 -0.58926
vn -0.32251 0.92171 -0.21550
vn -0.46543 0.82865 -0.31099
vn -0.59046 0.70406 -0.39453
vn -0.69290 0.55276 -0.46298
vn -0.76891 0.38054 -0.51377
vn -0.81569 0.19393 -0.54502
vn -0.16710 0.97960 -0.11165
vn -0.85437 0.38054 -0.35389
vn -0.90634 0.19393 -0.37542
vn -0.18567 0.97960 -0.07691
vn -0.35836 0.92171 -0.14844
vn -0.51716 0.82865 -0.21422
vn -0.65608 0.70406 -0.27176
vn -0.76990 0.55276 -0.31891
vn -0.54902 0.82865 -0.10921
vn -0.69650 0.70406 -0.13854
vn -0.81733 0.55276 -0.16258
vn -0.90700 0.38054 -0.18041
vn -0.96217 0.19393 -0.19139
vn -0.19710 0.97960 -0.03921
vn -0.38043 0.92171 -0.07567
vn -0.98102 0.19393 -0.00000
vn -0.20096 0.97960 0.00000
vn -0.38788 0.92171 0.00000
vn -0.55977 0.82865 0.00000
vn -0.71014 0.70406 0.00000
vn -0.83334 0.55276 0.00000
vn -0.92477 0.38054 -0.00000
vn -0.54902 0.82865 0.10921
vn -0.69650 0.70406 0.13854
vn -0.81733 0.55276 0.16258
vn -0.90700 0.38054 0.18041
vn -0.96217 0.19393 0.19139
vn -0.19710 0.97960 0.03921
vn -0.38043 0.92171 0.07567
vn -0.90634 0.19393 0.37542
vn -0.18567 0.97960 0.07691
vn -0.35836 0.92171 0.14844
vn -0.51716 0.82865 0.21422
vn -0.65608 0.70406 0.27176
vn -0.76990 0.55276 0.31891
vn -0.85437 0.38054 0.35389
vn -0.59046 0.70406 0.39453
vn -0.69290 0.55276 0.46298
vn -0.76891 0.38054 0.51377
vn -0.81568 0.19393 0.54502
vn -0.16710 0.97960 0.11165
vn -0.32251 0.92171 0.21550
vn -0.46543 0.82865 0.31099
vn -0.14210 0.97960 0.14210
vn -0.27427 0.92171 0.27427
vn -0.39582 0.82865 0.39582
vn -0.50214 0.70406 0.50215
vn -0.58926 0.55276 0.58926
vn -0.65391 0.38054 0.65391
vn -0.69368 0.19393 0.69368
vn -0.46298 0.55276 0.69290
vn -0.51377 0.38054 0.76891
vn -0.54502 0.19393 0.81568
vn -0.11165 0.97960 0.16710
vn -0.21550 0.92171 0.32251
vn -0.31099 0.82865 0.46543
vn -0.39453 0.70406 0.59046
vn -0.07691 0.97960 0.18567
vn -0.14844 0.92171 0.35836
vn -0.21422 0.82865 0.51716
vn -0.27176 0.70406 0.65608
vn -0.31891 0.55276 0.76990
vn -0.35389 0.38054 0.85437
vn -0.37542 0.19393 0.90634
vn -0.16258 0.55276 0.81733
vn -0.18042 0.38054 0.90700
vn -0.19139 0.19393 0.96217
vn -0.03921 0.97960 0.19710
vn -0.07567 0.92171 0.38043
vn -0.10921 0.82865 0.54902
vn -0.13854 0.70406 0.69649
# 518 normal vertices

g Capsule1
s 1
f 6//4 5//3 253//2 254//1
f 7//6 6//4 254//1 1//5
f 8//8 7//6 1//5 2//7
f 9//10 8//8 2//7 3//9
f 10//12 9//10 3//9 255//11
f 11//14 10//12 255//11 256//13
f 11//14 256//13 257//15
f 5//3 4//17 252//16 253//2
f 19//18 11//14 257//15
f 13//20 12//19 4//17 5//3
f 14//21 13//20 5//3 6//4
f 15//22 14//21 6//4 7//6
f 16//23 15//22 7//6 8//8
f 17//24 16//23 8//8 9//10
f 18//25 17//24 9//10 10//12
f 19//18 18//25 10//12 11//14
f 25//27 24//26 16//23 17//24
f 26//28 25//27 17//24 18//25
f 27//29 26//28 18//25 19//18
f 27//29 19//18 257//15
f 21//31 20//30 12//19 13//20
f 22//32 21//31 13//20 14//21
f 23//33 22//32 14//21 15//22
f 24//26 23//33 15//22 16//23
f 29//35 28//34 20//30 21//31
f 30//36 29//35 21//31 22//32
f 31//37 30//36 22//32 23//33
f 32//38 31//37 23//33 24//26
f 33//39 32//38 24//26 25//27
f 34//40 33//39 25//27 26//28
f 35//41 34//40 26//28 27//29
f 35//41 27//29 257//15
f 41//43 40//42 32//38 33//39
f 42//44 41//43 33//39 34//40
f 43//45 42//44 34//40 35//41
f 43//45 35//41 257//15
f 37//47 36//46 28//34 29//35
f 38//48 37//47 29//35 30//36
f 39//49 38//48 30//36 31//37
f 40//42 39//49 31//37 32//38
f 46//51 45//50 37//47 38//48
f 47//52 46//51 38//48 39//49
f 48//53 47//52 39//49 40//42
f 49//54 48//53 40//42 41//43
f 50//55 49//54 41//43 42//44
f 51//56 50//55 42//44 43//45
f 51//56 43//45 257//15
f 45//50 44//57 36//46 37//47
f 58//59 57//58 49//54 50//55
f 59//60 58//59 50//55 51//56
f 59//60 51//56 257//15
f 53//62 52//61 44//57 45//50
f 54//63 53//62 45//50 46//51
f 55//64 54//63 46//51 47//52
f 56//65 55//64 47//52 48//53
f 57//58 56//65 48//53 49//54
f 62//67 61//66 53//62 54//63
f 63//68 62//67 54//63 55//64
f 64//69 63//68 55//64 56//65
f 65//70 64//69 56//65 57//58
f 66//71 65//70 57//58 58//59
f 67//72 66//71 58//59 59//60
f 67//72 59//60 257//15
f 61//66 60//73 52//61 53//62
f 74//75 73//74 65//70 66//71
f 75//76 74//75 66//71 67//72
f 75//76 67//72 257//15
f 69//78 68//77 60//73 61//66
f 70//79 69//78 61//66 62//67
f 71//80 70//79 62//67 63//68
f 72//81 71//80 63//68 64//69
f 73//74 72//81 64//69 65//70
f 79//83 78//82 70//79 71//80
f 80//84 79//83 71//80 72//81
f 81//85 80//84 72//81 73//74
f 82//86 81//85 73//74 74//75
f 83//87 82//86 74//75 75//76
f 83//87 75//76 257//15
f 77//89 76//88 68//77 69//78
f 78//82 77//89 69//78 70//79
f 91//91 90//90 82//86 83//87
f 91//91 83//87 257//15
f 85//93 84//92 76//88 77//89
f 86//94 85//93 77//89 78//82
f 87//95 86//94 78//82 79//83
f 88//96 87//95 79//83 80//84
f 89//97 88//96 80//84 81//85
f 90//90 89//97 81//85 82//86
f 96//99 95//98 87//95 88//96
f 97//100 96//99 88//96 89//97
f 98//101 97//100 89//97 90//90
f 99//102 98//101 90//90 91//91
f 99//102 91//91 257//15
f 93//104 92//103 84//92 85//93
f 94//105 93//104 85//93 86//94
f 95//98 94//105 86//94 87//95
f 107//106 99//102 257//15
f 101//108 100//107 92//103 93//104
f 102//109 101//108 93//104 94//105
f 103//110 102//109 94//105 95//98
f 104//111 103//110 95//98 96//99
f 105//112 104//111 96//99 97//100
f 106//113 105//112 97//100 98//101
f 107//106 106//113 98//101 99//102
f 112//115 111//114 103//110 104//111
f 113//116 112//115 104//111 105//112
f 114//117 113//116 105//112 106//113
f 115//118 114//117 106//113 107//106
f 115//118 107//106 257//15
f 109//120 108//119 100//107 101//108
f 110//121 109//120 101//108 102//109
f 111//114 110//121 102//109 103//110
f 123//122 115//118 257//15
f 117//124 116//123 108//119 109//120
f 118//125 117//124 109//120 110//121
f 119//126 118//125 110//121 111//114
f 120//127 119//126 111//114 112//115
f 121//128 120//127 112//115 113//116
f 122//129 121//128 113//116 114//117
f 123//122 122//129 114//117 115//118
f 129//131 128//130 120//127 121//128
f 130//132 129//131 121//128 122//129
f 131//133 130//132 122//129 123//122
f 131//133 123//122 257//15
f 125//135 124//134 116//123 117//124
f 126//136 125//135 117//124 118//125
f 127//137 126//136 118//125 119//126
f 128//130 127//137 119//126 120//127
f 133//139 132//138 124//134 125//135
f 134//140 133//139 125//135 126//136
f 135//141 134//140 126//136 127//137
f 136//142 135//141 127//137 128//130
f 137//143 136//142 128//130 129//131
f 138//144 137//143 129//131 130//132
f 139//145 138//144 130//132 131//133
f 139//145 131//133 257//15
f 145//147 144//146 136//142 137//143
f 146//148 145//147 137//143 138//144
f 147//149 146//148 138//144 139//145
f 147//149 139//145 257//15
f 141//151 140//150 132//138 133//139
f 142//152 141//151 133//139 134//140
f 143//153 142//152 134//140 135//141
f 144//146 143//153 135//141 136//142
f 150//155 149//154 141//151 142//152
f 151//156 150//155 142//152 143//153
f 152//157 151//156 143//153 144//146
f 153//158 152//157 144//146 145//147
f 154//159 153//158 145//147 146//148
f 155//160 154//159 146//148 147//149
f 155//160 147//149 257//15
f 149//154 148//161 140//150 141//151
f 162//163 161//162 153//158 154//159
f 163//164 162//163 154//159 155//160
f 163//164 155//160 257//15
f 157//166 156//165 148//161 149//154
f 158//167 157//166 149//154 150//155
f 159//168 158//167 150//155 151//156
f 160//169 159//168 151//156 152//157
f 161//162 160//169 152//157 153//158
f 167//171 166//170 158//167 159//168
f 168//172 167//171 159//168 160//169
f 169//173 168//172 160//169 161//162
f 170//174 169//173 161//162 162//163
f 171//175 170//174 162//163 163//164
f 171//175 163//164 257//15
f 165//177 164//176 156//165 157//166
f 166//170 165//177 157//166 158//167
f 179//179 178//178 170//174 171//175
f 179//179 171//175 257//15
f 173//181 172//180 164//176 165//177
f 174//182 173//181 165//177 166//170
f 175//183 174//182 166//170 167//171
f 176//184 175//183 167//171 168//172
f 177//185 176//184 168//172 169//173
f 178//178 177//185 169//173 170//174
f 183//187 182//186 174//182 175//183
f 184//188 183//187 175//183 176//184
f 185//189 184//188 176//184 177//185
f 186//190 185//189 177//185 178//178
f 187//191 186//190 178//178 179//179
f 187//191 179//179 257//15
f 181//193 180//192 172//180 173//181
f 182//186 181//193 173//181 174//182
f 195//195 194//194 186//190 187//191
f 195//195 187//191 257//15
f 189//197 188//196 180//192 181//193
f 190//198 189//197 181//193 182//186
f 191//199 190//198 182//186 183//187
f 192//200 191//199 183//187 184//188
f 193//201 192//200 184//188 185//189
f 194//194 193//201 185//189 186//190
f 200//203 199//202 191//199 192//200
f 201//204 200//203 192//200 193//201
f 202//205 201//204 193//201 194//194
f 203//206 202//205 194//194 195//195
f 203//206 195//195 257//15
f 197//208 196//207 188//196 189//197
f 198//209 197//208 189//197 190//198
f 199//202 198//209 190//198 191//199
f 211//210 203//206 257//15
f 205//212 204//211 196//207 197//208
f 206//213 205//212 197//208 198//209
f 207//214 206//213 198//209 199//202
f 208//215 207//214 199//202 200//203
f 209//216 208//215 200//203 201//204
f 210//217 209//216 201//204 202//205
f 211//210 210//217 202//205 203//206
f 216//219 215//218 207//214 208//215
f 217//220 216//219 208//215 209//216
f 218//221 217//220 209//216 210//217
f 219//222 218//221 210//217 211//210
f 219//222 211//210 257//15
f 213//224 212//223 204//211 205//212
f 214//225 213//224 205//212 206//213
f 215//218 214//225 206//213 207//214
f 227//226 219//222 257//15
f 221//228 220//227 212//223 213//224
f 222//229 221//228 213//224 214//225
f 223//230 222//229 214//225 215//218
f 224//231 223//230 215//218 216//219
f 225//232 224//231 216//219 217//220
f 226//233 225//232 217//220 218//221
f 227//226 226//233 218//221 219//222
f 233//235 232//234 224//231 225//232
f 234//236 233//235 225//232 226//233
f 235//237 234//236 226//233 227//226
f 235//237 227//226 257//15
f 229//239 228//238 220//227 221//228
f 230//240 229//239 221//228 222//229
f 231//241 230//240 222//229 223//230
f 232//234 231//241 223//230 224//231
f 238//243 237//242 229//239 230//240
f 239//244 238//243 230//240 231//241
f 240//245 239//244 231//241 232//234
f 241//246 240//245 232//234 233//235
f 242//247 241//246 233//235 234//236
f 243//248 242//247 234//236 235//237
f 243//248 235//237 257//15
f 237//242 236//249 228//238 229//239
f 250//251 249//250 241//246 242//247
f 251//252 250//251 242//247 243//248
f 251//252 243//248 257//15
f 245//254 244//253 236//249 237//242
f 246//255 245//254 237//242 238//243
f 247//256 246//255 238//243 239//244
f 248//257 247//256 239//244 240//245
f 249//250 248//257 240//245 241//246
f 254//1 253//2 245//254 246//255
f 1//5 254//1 246//255 247//256
f 2//7 1//5 247//256 248//257
f 3//9 2//7 248//257 249//250
f 255//11 3//9 249//250 250//251
f 256//13 255//11 250//251 251//252
f 256//13 251//252 257//15
f 253//2 252//16 244//253 245//254
f 4//17 259//259 258//258 252//16
f 12//19 260//260 259//259 4//17
f 20//30 261//261 260//260 12//19
f 28//34 262//262 261//261 20//30
f 36//46 263//263 262//262 28//34
f 44//57 264//264 263//263 36//46
f 52//61 265//265 264//264 44//57
f 60//73 266//266 265//265 52//61
f 68//77 267//267 266//266 60//73
f 76//88 268//268 267//267 68//77
f 84//92 269//269 268//268 76//88
f 92//103 270//270 269//269 84//92
f 100//107 271//271 270//270 92//103
f 108//119 272//272 271//271 100//107
f 116//123 273//273 272//272 108//119
f 124//134 274//274 273//273 116//123
f 132//138 275//275 274//274 124//134
f 140//150 276//276 275//275 132//138
f 148//161 277//277 276//276 140//150
f 156//165 278//278 277//277 148//161
f 164//176 279//279 278//278 156//165
f 172//180 280//280 279//279 164//176
f 180//192 281//281 280//280 172//180
f 188//196 282//282 281//281 180//192
f 196//207 283//283 282//282 188//196
f 204//211 284//284 283//283 196//207
f 212//223 285//285 284//284 204//211
f 220//227 286//286 285//285 212//223
f 228//238 287//287 286//286 220//227
f 236//249 288//288 287//287 228//238
f 260//289 261//290 262//289 263//290 264//289 265//289 266//289 267//289 268//289 269//290 270//289 271//290 272//289 273//289 274//289 275//289 276//289 277//290 278//290 279//289 280//290 281//289 282//289 283//289 284//289 285//289 286//289 287//290 288//289 289//289 258//289 259//289
f 244//253 289//291 288//288 236//249
f 252//16 258//258 289//291 244//253
f 244//292 236//292 228//292 220//292 212//292 204//292 196//293 188//292 180//292 172//292 164//292 156//292 148//292 140//292 132//292 124//292 116//292 108//292 100//292 92//293 84//293 76//292 68//292 60//292 52//292 44//292 36//292 28//293 20//292 12//292 4//292 252//292
f 298//297 297//296 290//295 291//294
f 299//299 298//297 291//294 292//298
f 300//301 299//299 292//298 293//300
f 301//303 300//301 293//300 294//302
f 302//305 301//303 294//302 295//304
f 303//307 302//305 295//304 296//306
f 259//259 303//307 296//306 258//258
f 297//296 444//308 290//295
f 304//309 444//308 297//296
f 305//310 304//309 297//296 298//297
f 306//311 305//310 298//297 299//299
f 307//312 306//311 299//299 300//301
f 308//313 307//312 300//301 301//303
f 309//314 308//313 301//303 302//305
f 310//315 309//314 302//305 303//307
f 260//260 310//315 303//307 259//259
f 315//317 314//316 307//312 308//313
f 316//318 315//317 308//313 309//314
f 317//319 316//318 309//314 310//315
f 261//261 317//319 310//315 260//260
f 311//320 444//308 304//309
f 312//321 311//320 304//309 305//310
f 313//322 312//321 305//310 306//311
f 314//316 313//322 306//311 307//312
f 319//324 318//323 311//320 312//321
f 320//325 319//324 312//321 313//322
f 321//326 320//325 313//322 314//316
f 322//327 321//326 314//316 315//317
f 323//328 322//327 315//317 316//318
f 324//329 323//328 316//318 317//319
f 262//262 324//329 317//319 261//261
f 318//323 444//308 311//320
f 330//331 329//330 322//327 323//328
f 331//332 330//331 323//328 324//329
f 263//263 331//332 324//329 262//262
f 325//333 444//308 318//323
f 326//334 325//333 318//323 319//324
f 327//335 326//334 319//324 320//325
f 328//336 327//335 320//325 321//326
f 329//330 328//336 321//326 322//327
f 333//338 332//337 325//333 326//334
f 334//339 333//338 326//334 327//335
f 335//340 334//339 327//335 328//336
f 336//341 335//340 328//336 329//330
f 337//342 336//341 329//330 330//331
f 338//343 337//342 330//331 331//332
f 264//264 338//343 331//332 263//263
f 332//337 444//308 325//333
f 344//345 343//344 336//341 337//342
f 345//346 344//345 337//342 338//343
f 265//265 345//346 338//343 264//264
f 339//347 444//308 332//337
f 340//348 339//347 332//337 333//338
f 341//349 340//348 333//338 334//339
f 342//350 341//349 334//339 335//340
f 343//344 342//350 335//340 336//341
f 348//352 347//351 340//348 341//349
f 349//353 348//352 341//349 342//350
f 350//354 349//353 342//350 343//344
f 351//355 350//354 343//344 344//345
f 352//356 351//355 344//345 345//346
f 266//266 352//356 345//346 265//265
f 346//357 444//308 339//347
f 347//351 346//357 339//347 340//348
f 359//359 358//358 351//355 352//356
f 267//267 359//359 352//356 266//266
f 353//360 444//308 346//357
f 354//361 353//360 346//357 347//351
f 355//362 354//361 347//351 348//352
f 356//363 355//362 348//352 349//353
f 357//364 356//363 349//353 350//354
f 358//358 357//364 350//354 351//355
f 363//366 362//365 355//362 356//363
f 364//367 363//366 356//363 357//364
f 365//368 364//367 357//364 358//358
f 366//369 365//368 358//358 359//359
f 268//268 366//369 359//359 267//267
f 360//370 444//308 353//360
f 361//371 360//370 353//360 354//361
f 362//365 361//371 354//361 355//362
f 269//269 373//372 366//369 268//268
f 367//373 444//308 360//370
f 368//374 367//373 360//370 361//371
f 369//375 368//374 361//371 362//365
f 370//376 369//375 362//365 363//366
f 371//377 370//376 363//366 364//367
f 372//378 371//377 364//367 365//368
f 373//372 372//378 365//368 366//369
f 377//380 376//379 369//375 370//376
f 378//381 377//380 370//376 371//377
f 379//382 378//381 371//377 372//378
f 380//383 379//382 372//378 373//372
f 270//270 380//383 373//372 269//269
f 374//384 444//308 367//373
f 375//385 374//384 367//373 368//374
f 376//379 375//385 368//374 369//375
f 271//271 387//386 380//383 270//270
f 381//387 444//308 374//384
f 382//388 381//387 374//384 375//385
f 383//389 382//388 375//385 376//379
f 384//390 383//389 376//379 377//380
f 385//391 384//390 377//380 378//381
f 386//392 385//391 378//381 379//382
f 387//386 386//392 379//382 380//383
f 392//394 391//393 384//390 385//391
f 393//395 392//394 385//391 386//392
f 394//396 393//395 386//392 387//386
f 272//272 394//396 387//386 271//271
f 388//397 444//308 381//387
f 389//398 388//397 381//387 382//388
f 390//399 389//398 382//388 383//389
f 391//393 390//399 383//389 384//390
f 395//400 444//308 388//397
f 396//401 395//400 388//397 389//398
f 397//402 396//401 389//398 390//399
f 398//403 397//402 390//399 391//393
f 399//404 398//403 391//393 392//394
f 400//405 399//404 392//394 393//395
f 401//406 400//405 393//395 394//396
f 273//273 401//406 394//396 272//272
f 406//408 405//407 398//403 399//404
f 407//409 406//408 399//404 400//405
f 408//410 407//409 400//405 401//406
f 274//274 408//410 401//406 273//273
f 402//411 444//308 395//400
f 403//412 402//411 395//400 396//401
f 404//413 403//412 396//401 397//402
f 405//407 404//413 397//402 398//403
f 410//415 409//414 402//411 403//412
f 411//416 410//415 403//412 404//413
f 412//417 411//416 404//413 405//407
f 413//418 412//417 405//407 406//408
f 414//419 413//418 406//408 407//409
f 415//420 414//419 407//409 408//410
f 275//275 415//420 408//410 274//274
f 409//414 444//308 402//411
f 421//422 420//421 413//418 414//419
f 422//423 421//422 414//419 415//420
f 276//276 422//423 415//420 275//275
f 416//424 444//308 409//414
f 417//425 416//424 409//414 410//415
f 418//426 417//425 410//415 411//416
f 419//427 418//426 411//416 412//417
f 420//421 419//427 412//417 413//418
f 425//429 424//428 417//425 418//426
f 426//430 425//429 418//426 419//427
f 427//431 426//430 419//427 420//421
f 428//432 427//431 420//421 421//422
f 429//433 428//432 421//422 422//423
f 277//277 429//433 422//423 276//276
f 423//434 444//308 416//424
f 424//428 423//434 416//424 417//425
f 436//436 435//435 428//432 429//433
f 278//278 436//436 429//433 277//277
f 430//437 444//308 423//434
f 431//438 430//437 423//434 424//428
f 432//439 431//438 424//428 425//429
f 433//440 432//439 425//429 426//430
f 434//441 433//440 426//430 427//431
f 435//435 434//441 427//431 428//432
f 439//443 438//442 431//438 432//439
f 440//444 439//443 432//439 433//440
f 441//445 440//444 433//440 434//441
f 442//446 441//445 434//441 435//435
f 443//447 442//446 435//435 436//436
f 279//279 443//447 436//436 278//278
f 437//448 444//308 430//437
f 438//442 437//448 430//437 431//438
f 451//450 450//449 442//446 443//447
f 280//280 451//450 443//447 279//279
f 445//451 444//308 437//448
f 446//452 445//451 437//448 438//442
f 447//453 446//452 438//442 439//443
f 448//454 447//453 439//443 440//444
f 449//455 448//454 440//444 441//445
f 450//449 449//455 441//445 442//446
f 455//457 454//456 447//453 448//454
f 456//458 455//457 448//454 449//455
f 457//459 456//458 449//455 450//449
f 458//460 457//459 450//449 451//450
f 281//281 458//460 451//450 280//280
f 452//461 444//308 445//451
f 453//462 452//461 445//451 446//452
f 454//456 453//462 446//452 447//453
f 282//282 465//463 458//460 281//281
f 459//464 444//308 452//461
f 460//465 459//464 452//461 453//462
f 461//466 460//465 453//462 454//456
f 462//467 461//466 454//456 455//457
f 463//468 462//467 455//457 456//458
f 464//469 463//468 456//458 457//459
f 465//463 464//469 457//459 458//460
f 469//471 468//470 461//466 462//467
f 470//472 469//471 462//467 463//468
f 471//473 470//472 463//468 464//469
f 472//474 471//473 464//469 465//463
f 283//283 472//474 465//463 282//282
f 466//475 444//308 459//464
f 467//476 466//475 459//464 460//465
f 468//470 467//476 460//465 461//466
f 284//284 479//477 472//474 283//283
f 473//478 444//308 466//475
f 474//479 473//478 466//475 467//476
f 475//480 474//479 467//476 468//470
f 476//481 475//480 468//470 469//471
f 477//482 476//481 469//471 470//472
f 478//483 477//482 470//472 471//473
f 479//477 478//483 471//473 472//474
f 484//485 483//484 476//481 477//482
f 485//486 484//485 477//482 478//483
f 486//487 485//486 478//483 479//477
f 285//285 486//487 479//477 284//284
f 480//488 444//308 473//478
f 481//489 480//488 473//478 474//479
f 482//490 481//489 474//479 475//480
f 483//484 482//490 475//480 476//481
f 488//492 487//491 480//488 481//489
f 489//493 488//492 481//489 482//490
f 490//494 489//493 482//490 483//484
f 491//495 490//494 483//484 484//485
f 492//496 491//495 484//485 485//486
f 493//497 492//496 485//486 486//487
f 286//286 493//497 486//487 285//285
f 487//491 444//308 480//488
f 499//499 498//498 491//495 492//496
f 500//500 499//499 492//496 493//497
f 287//287 500//500 493//497 286//286
f 494//501 444//308 487//491
f 495//502 494//501 487//491 488//492
f 496//503 495//502 488//492 489//493
f 497//504 496//503 489//493 490//494
f 498//498 497//504 490//494 491//495
f 502//506 501//505 494//501 495//502
f 503//507 502//506 495//502 496//503
f 504//508 503//507 496//503 497//504
f 505//509 504//508 497//504 498//498
f 506//510 505//509 498//498 499//499
f 507//511 506//510 499//499 500//500
f 288//288 507//511 500//500 287//287
f 501//505 444//308 494//501
f 513//513 512//512 505//509 506//510
f 514//514 513//513 506//510 507//511
f 289//291 514//514 507//511 288//288
f 508//515 444//308 501//505
f 509//516 508//515 501//505 502//506
f 510//517 509//516 502//506 503//507
f 511//518 510//517 503//507 504//508
f 512//512 511//518 504//508 505//509
f 292//298 291//294 509//516 510//517
f 293//300 292//298 510//517 511//518
f 294//302 293//300 511//518 512//512
f 295//304 294//302 512//512 513//513
f 296//306 295//304 513//513 514//514
f 258//258 296//306 514//514 289//291
f 290//295 444//308 508//515
f 291//294 290//295 508//515 509//516
# 546 elements

