# Created by Metasequoia

v -1.000000 -1.000000 -1.000000
v -1.000000 1.000000 -1.000000
v -1.000000 -1.000000 1.000000
v -1.000000 1.000000 1.000000
v 1.000000 -1.000000 -1.000000
v 1.000000 1.000000 -1.000000
v 1.000000 -1.000000 1.000000
v 1.000000 1.000000 1.000000
# 8 vertices

vn -1.00000 0.00000 0.00000
vn 0.00000 0.00000 1.00000
vn 1.00000 0.00000 0.00000
vn 0.00000 0.00000 -1.00000
vn 0.00000 -1.00000 0.00000
vn 0.00000 1.00000 0.00000
# 6 normal vertices

g Cube1
s 1
f 3//1 4//1 2//1 1//1
f 7//2 8//2 4//2 3//2
f 5//3 6//3 8//3 7//3
f 1//4 2//4 6//4 5//4
f 1//5 5//5 7//5 3//5
f 6//6 2//6 4//6 8//6
# 6 elements

