# Created by Metasequoia

mtllib Sphere.mtl

v 0.000000 0.980785 -0.195090
v 0.000000 0.923880 -0.382683
v 0.000000 0.831470 -0.555570
v 0.000000 0.707107 -0.707107
v 0.000000 0.555570 -0.831470
v 0.000000 0.382683 -0.923880
v 0.000000 0.195090 -0.980785
v 0.000000 -0.555570 -0.831470
v 0.000000 -0.707107 -0.707107
v 0.000000 -0.831470 -0.555570
v 0.038060 0.980785 -0.191342
v 0.074658 0.923880 -0.375330
v 0.108386 0.831470 -0.544895
v 0.137950 0.707107 -0.693520
v 0.162212 0.555570 -0.815493
v 0.180240 0.382683 -0.906127
v 0.191342 0.195090 -0.961940
v 0.195090 0.000000 -0.980785
v 0.191342 -0.195090 -0.961940
v 0.180240 -0.382683 -0.906127
v 0.162212 -0.555570 -0.815493
v 0.137950 -0.707107 -0.693520
v 0.108386 -0.831470 -0.544895
v 0.074658 -0.923880 -0.375330
v 0.038060 -0.980785 -0.191342
v 0.074658 0.980785 -0.180240
v 0.146447 0.923880 -0.353553
v 0.212608 0.831470 -0.513280
v 0.270598 0.707107 -0.653281
v 0.318190 0.555570 -0.768178
v 0.353553 0.382683 -0.853553
v 0.375330 0.195090 -0.906127
v 0.382683 0.000000 -0.923879
v 0.375330 -0.195090 -0.906127
v 0.353553 -0.382683 -0.853553
v 0.318190 -0.555570 -0.768178
v 0.270598 -0.707107 -0.653281
v 0.212608 -0.831470 -0.513280
v 0.146447 -0.923880 -0.353553
v 0.074658 -0.980785 -0.180240
v 0.108386 0.980785 -0.162212
v 0.212608 0.923880 -0.318190
v 0.308658 0.831470 -0.461940
v 0.392848 0.707107 -0.587938
v 0.461940 0.555570 -0.691342
v 0.513280 0.382683 -0.768178
v 0.544895 0.195090 -0.815493
v 0.555570 0.000000 -0.831469
v 0.544895 -0.195090 -0.815493
v 0.513280 -0.382683 -0.768178
v 0.461940 -0.555570 -0.691342
v 0.392848 -0.707107 -0.587938
v 0.308658 -0.831470 -0.461940
v 0.212608 -0.923880 -0.318190
v 0.108386 -0.980785 -0.162212
v 0.137950 0.980785 -0.137950
v 0.270598 0.923880 -0.270598
v 0.392848 0.831470 -0.392847
v 0.500000 0.707107 -0.500000
v 0.587938 0.555570 -0.587938
v 0.653281 0.382683 -0.653281
v 0.693520 0.195090 -0.693520
v 0.707107 0.000000 -0.707107
v 0.693520 -0.195090 -0.693520
v 0.653282 -0.382683 -0.653281
v 0.587938 -0.555570 -0.587938
v 0.500000 -0.707107 -0.500000
v 0.392848 -0.831470 -0.392847
v 0.270598 -0.923880 -0.270598
v 0.137950 -0.980785 -0.137950
v 0.162212 0.980785 -0.108386
v 0.318190 0.923880 -0.212607
v 0.461940 0.831470 -0.308658
v 0.587938 0.707107 -0.392847
v 0.691342 0.555570 -0.461940
v 0.768178 0.382683 -0.513280
v 0.815493 0.195090 -0.544895
v 0.831470 0.000000 -0.555570
v 0.815493 -0.195090 -0.544895
v 0.768178 -0.382683 -0.513280
v 0.691342 -0.555570 -0.461940
v 0.587938 -0.707107 -0.392847
v 0.461940 -0.831470 -0.308658
v 0.318190 -0.923880 -0.212608
v 0.162212 -0.980785 -0.108386
v 0.180240 0.980785 -0.074658
v 0.353554 0.923880 -0.146447
v 0.513280 0.831470 -0.212607
v 0.653281 0.707107 -0.270598
v 0.768178 0.555570 -0.318190
v 0.853553 0.382683 -0.353553
v 0.906127 0.195090 -0.375330
v 0.923879 0.000000 -0.382683
v 0.906127 -0.195090 -0.375330
v 0.853553 -0.382683 -0.353553
v 0.768178 -0.555570 -0.318190
v 0.653281 -0.707107 -0.270598
v 0.513280 -0.831470 -0.212607
v 0.353554 -0.923880 -0.146447
v 0.180240 -0.980785 -0.074658
v 0.191342 0.980785 -0.038060
v 0.375330 0.923880 -0.074658
v 0.544895 0.831470 -0.108386
v 0.693520 0.707107 -0.137950
v 0.815493 0.555570 -0.162212
v 0.906127 0.382683 -0.180240
v 0.961940 0.195090 -0.191342
v 0.980785 0.000000 -0.195090
v 0.961940 -0.195090 -0.191342
v 0.906128 -0.382683 -0.180240
v 0.815493 -0.555570 -0.162212
v 0.693520 -0.707107 -0.137950
v 0.544895 -0.831470 -0.108386
v 0.375330 -0.923880 -0.074658
v 0.191342 -0.980785 -0.038060
v 0.195090 0.980785 0.000000
v 0.382684 0.923880 0.000000
v 0.555570 0.831470 0.000000
v 0.707107 0.707107 0.000000
v 0.831469 0.555570 0.000000
v 0.923879 0.382683 0.000000
v 0.980785 0.195090 0.000000
v 1.000000 0.000000 0.000000
v 0.980785 -0.195090 0.000000
v 0.923880 -0.382683 0.000000
v 0.831469 -0.555570 0.000000
v 0.707107 -0.707107 0.000000
v 0.555570 -0.831470 0.000000
v 0.382684 -0.923880 0.000000
v 0.195090 -0.980785 0.000000
v 0.191342 0.980785 0.038060
v 0.375330 0.923880 0.074658
v 0.544895 0.831470 0.108386
v 0.693520 0.707107 0.137950
v 0.815493 0.555570 0.162212
v 0.906127 0.382683 0.180240
v 0.961940 0.195090 0.191342
v 0.980785 0.000000 0.195090
v 0.961940 -0.195090 0.191342
v 0.906127 -0.382683 0.180240
v 0.815493 -0.555570 0.162212
v 0.693520 -0.707107 0.137950
v 0.544895 -0.831470 0.108386
v 0.375330 -0.923880 0.074658
v 0.191342 -0.980785 0.038060
v 0.180240 0.980785 0.074658
v 0.353553 0.923880 0.146447
v 0.513280 0.831470 0.212608
v 0.653281 0.707107 0.270598
v 0.768178 0.555570 0.318190
v 0.853553 0.382683 0.353553
v 0.906127 0.195090 0.375330
v 0.923879 0.000000 0.382683
v 0.906127 -0.195090 0.375330
v 0.853553 -0.382683 0.353554
v 0.768178 -0.555570 0.318190
v 0.653281 -0.707107 0.270598
v 0.513280 -0.831470 0.212608
v 0.353554 -0.923880 0.146447
v 0.180240 -0.980785 0.074658
v 0.162212 0.980785 0.108386
v 0.318190 0.923880 0.212608
v 0.461940 0.831470 0.308658
v 0.587938 0.707107 0.392847
v 0.691341 0.555570 0.461940
v 0.768178 0.382683 0.513280
v 0.815493 0.195090 0.544895
v 0.831469 0.000000 0.555570
v 0.815493 -0.195090 0.544895
v 0.768178 -0.382683 0.513280
v 0.691342 -0.555570 0.461940
v 0.587938 -0.707107 0.392847
v 0.461940 -0.831470 0.308658
v 0.318190 -0.923880 0.212608
v 0.162212 -0.980785 0.108386
v 0.137950 0.980785 0.137950
v 0.270598 0.923880 0.270598
v 0.392847 0.831470 0.392847
v 0.500000 0.707107 0.500000
v 0.587938 0.555570 0.587938
v 0.653281 0.382683 0.653281
v 0.693520 0.195090 0.693520
v 0.707106 0.000000 0.707107
v 0.693520 -0.195090 0.693520
v 0.653281 -0.382683 0.653282
v 0.587938 -0.555570 0.587938
v 0.500000 -0.707107 0.500000
v 0.392847 -0.831470 0.392847
v 0.270598 -0.923880 0.270598
v 0.137950 -0.980785 0.137950
v 0.108386 0.980785 0.162212
v 0.212608 0.923880 0.318190
v 0.308658 0.831470 0.461940
v 0.392847 0.707107 0.587938
v 0.461940 0.555570 0.691342
v 0.513280 0.382683 0.768178
v 0.544895 0.195090 0.815493
v 0.555570 0.000000 0.831469
v 0.544895 -0.195090 0.815493
v 0.513280 -0.382683 0.768178
v 0.461940 -0.555570 0.691342
v 0.392847 -0.707107 0.587938
v 0.308658 -0.831470 0.461940
v 0.212608 -0.923880 0.318190
v 0.108386 -0.980785 0.162212
v 0.074658 0.980785 0.180240
v 0.146447 0.923880 0.353554
v 0.212607 0.831470 0.513280
v 0.270598 0.707107 0.653281
v 0.318190 0.555570 0.768178
v 0.353553 0.382683 0.853553
v 0.375330 0.195090 0.906127
v 0.382683 0.000000 0.923879
v 0.375330 -0.195090 0.906127
v 0.353553 -0.382683 0.853553
v 0.318190 -0.555570 0.768178
v 0.270598 -0.707107 0.653281
v 0.212607 -0.831470 0.513280
v 0.146447 -0.923880 0.353554
v 0.074658 -0.980785 0.180240
v 0.038060 0.980785 0.191342
v 0.074658 0.923880 0.375330
v 0.108386 0.831470 0.544895
v 0.137950 0.707107 0.693520
v 0.162212 0.555570 0.815493
v 0.180240 0.382683 0.906127
v 0.191342 0.195090 0.961939
v 0.195090 0.000000 0.980785
v 0.191342 -0.195090 0.961939
v 0.180240 -0.382683 0.906127
v 0.162212 -0.555570 0.815493
v 0.137950 -0.707107 0.693520
v 0.108386 -0.831470 0.544895
v 0.074658 -0.923880 0.375330
v 0.038060 -0.980785 0.191342
v 0.000000 0.980785 0.195090
v 0.000000 0.923880 0.382684
v 0.000000 0.831470 0.555570
v 0.000000 0.707107 0.707107
v 0.000000 0.555570 0.831469
v 0.000000 0.382683 0.923879
v 0.000000 0.195090 0.980785
v 0.000000 0.000000 0.999999
v 0.000000 -0.195090 0.980785
v 0.000000 -0.382683 0.923880
v 0.000000 -0.555570 0.831469
v 0.000000 -0.707107 0.707107
v 0.000000 -0.831470 0.555570
v 0.000000 -0.923880 0.382684
v 0.000000 -0.980785 0.195090
v -0.038060 0.980785 0.191342
v -0.074658 0.923880 0.375330
v -0.108386 0.831470 0.544895
v -0.137950 0.707107 0.693520
v -0.162212 0.555570 0.815493
v -0.180240 0.382683 0.906127
v -0.191342 0.195090 0.961939
v -0.195090 0.000000 0.980785
v -0.191342 -0.195090 0.961939
v -0.180240 -0.382683 0.906127
v -0.162212 -0.555570 0.815493
v -0.137950 -0.707107 0.693520
v -0.108386 -0.831470 0.544895
v -0.074658 -0.923880 0.375330
v -0.038060 -0.980785 0.191342
v -0.074658 0.980785 0.180240
v -0.146447 0.923880 0.353553
v -0.212608 0.831470 0.513280
v -0.270598 0.707107 0.653281
v -0.318189 0.555570 0.768177
v -0.353553 0.382683 0.853553
v -0.375330 0.195090 0.906127
v -0.382683 0.000000 0.923879
v -0.375330 -0.195090 0.906127
v -0.353553 -0.382683 0.853553
v -0.318190 -0.555570 0.768178
v -0.270598 -0.707107 0.653281
v -0.212608 -0.831470 0.513280
v -0.146447 -0.923880 0.353553
v -0.074658 -0.980785 0.180240
v -0.108386 0.980785 0.162212
v -0.212608 0.923880 0.318190
v -0.308658 0.831470 0.461940
v -0.392847 0.707107 0.587938
v -0.461940 0.555570 0.691341
v -0.513280 0.382683 0.768178
v -0.544895 0.195090 0.815493
v -0.555570 0.000000 0.831469
v -0.544895 -0.195090 0.815493
v -0.513280 -0.382683 0.768178
v -0.461940 -0.555570 0.691342
v -0.392847 -0.707107 0.587938
v -0.308658 -0.831470 0.461940
v -0.212608 -0.923880 0.318190
v -0.108386 -0.980785 0.162212
v -0.137950 0.980785 0.137950
v -0.270598 0.923880 0.270598
v -0.392847 0.831470 0.392847
v -0.500000 0.707107 0.500000
v -0.587937 0.555570 0.587938
v -0.653281 0.382683 0.653281
v -0.693520 0.195090 0.693520
v -0.707106 0.000000 0.707106
v -0.693520 -0.195090 0.693520
v -0.653281 -0.382683 0.653281
v -0.587938 -0.555570 0.587938
v -0.500000 -0.707107 0.500000
v -0.392847 -0.831470 0.392847
v -0.270598 -0.923880 0.270598
v -0.137950 -0.980785 0.137950
v -0.162212 0.980785 0.108386
v -0.318190 0.923880 0.212608
v -0.461940 0.831470 0.308658
v -0.587938 0.707107 0.392847
v -0.691341 0.555570 0.461940
v -0.768178 0.382683 0.513280
v -0.815493 0.195090 0.544895
v -0.831469 0.000000 0.555569
v -0.815493 -0.195090 0.544895
v -0.768178 -0.382683 0.513280
v -0.691341 -0.555570 0.461940
v -0.587938 -0.707107 0.392847
v -0.461940 -0.831470 0.308658
v -0.318190 -0.923880 0.212608
v -0.162212 -0.980785 0.108386
v 0.000000 1.000000 0.000000
v -0.180240 0.980785 0.074658
v -0.353553 0.923880 0.146447
v -0.513280 0.831470 0.212607
v -0.653281 0.707107 0.270598
v -0.768177 0.555570 0.318190
v -0.853553 0.382683 0.353553
v -0.906127 0.195090 0.375330
v -0.923879 0.000000 0.382683
v -0.906127 -0.195090 0.375330
v -0.853553 -0.382683 0.353553
v -0.768177 -0.555570 0.318190
v -0.653281 -0.707107 0.270598
v -0.513280 -0.831470 0.212607
v -0.353553 -0.923880 0.146447
v -0.180240 -0.980785 0.074658
v -0.191342 0.980785 0.038060
v -0.375330 0.923880 0.074658
v -0.544895 0.831470 0.108386
v -0.693520 0.707107 0.137950
v -0.815493 0.555570 0.162212
v -0.906127 0.382683 0.180240
v -0.961939 0.195090 0.191342
v -0.980784 0.000000 0.195090
v -0.961939 -0.195090 0.191342
v -0.906127 -0.382683 0.180240
v -0.815493 -0.555570 0.162212
v -0.693520 -0.707107 0.137950
v -0.544895 -0.831470 0.108386
v -0.375330 -0.923880 0.074658
v -0.191342 -0.980785 0.038060
v -0.195090 0.980785 0.000000
v -0.382683 0.923880 0.000000
v -0.555570 0.831470 0.000000
v -0.707107 0.707107 0.000000
v -0.831469 0.555570 0.000000
v -0.923879 0.382683 0.000000
v -0.980785 0.195090 0.000000
v -0.999999 0.000000 0.000000
v -0.980785 -0.195090 -0.000000
v -0.923879 -0.382683 -0.000000
v -0.831469 -0.555570 0.000000
v -0.707107 -0.707107 0.000000
v -0.555570 -0.831470 -0.000000
v -0.382683 -0.923880 0.000000
v -0.195090 -0.980785 0.000000
v -0.191342 0.980785 -0.038060
v -0.375330 0.923880 -0.074658
v -0.544895 0.831470 -0.108386
v -0.693520 0.707107 -0.137950
v -0.815493 0.555570 -0.162212
v -0.906127 0.382683 -0.180240
v -0.961939 0.195090 -0.191342
v -0.980784 0.000000 -0.195091
v -0.961939 -0.195090 -0.191342
v -0.906127 -0.382683 -0.180240
v -0.815493 -0.555570 -0.162212
v -0.693520 -0.707107 -0.137950
v -0.544895 -0.831470 -0.108386
v -0.375330 -0.923880 -0.074658
v -0.191342 -0.980785 -0.038060
v -0.180240 0.980785 -0.074658
v -0.353553 0.923880 -0.146447
v -0.513280 0.831470 -0.212607
v -0.653281 0.707107 -0.270598
v -0.768177 0.555570 -0.318189
v -0.853553 0.382683 -0.353553
v -0.906127 0.195090 -0.375330
v -0.923878 0.000000 -0.382683
v -0.906127 -0.195090 -0.375330
v -0.853553 -0.382683 -0.353553
v -0.768177 -0.555570 -0.318189
v -0.653281 -0.707107 -0.270598
v -0.513280 -0.831470 -0.212607
v -0.353553 -0.923880 -0.146446
v -0.180240 -0.980785 -0.074658
v -0.162212 0.980785 -0.108386
v -0.318189 0.923880 -0.212607
v -0.461939 0.831470 -0.308658
v -0.587938 0.707107 -0.392847
v -0.691341 0.555570 -0.461939
v -0.768177 0.382683 -0.513280
v -0.815493 0.195090 -0.544895
v -0.831469 0.000000 -0.555570
v -0.815493 -0.195090 -0.544895
v -0.768177 -0.382683 -0.513280
v -0.691341 -0.555570 -0.461939
v -0.587938 -0.707107 -0.392847
v -0.461939 -0.831470 -0.308658
v -0.318189 -0.923880 -0.212607
v -0.162212 -0.980785 -0.108386
v -0.137950 0.980785 -0.137950
v -0.270598 0.923880 -0.270598
v -0.392847 0.831470 -0.392847
v -0.500000 0.707107 -0.500000
v -0.587937 0.555570 -0.587937
v -0.653281 0.382683 -0.653281
v -0.693519 0.195090 -0.693520
v -0.707106 0.000000 -0.707106
v -0.693519 -0.195090 -0.693520
v -0.653281 -0.382683 -0.653281
v -0.587937 -0.555570 -0.587937
v -0.500000 -0.707107 -0.500000
v -0.392847 -0.831470 -0.392847
v -0.270598 -0.923880 -0.270598
v -0.137950 -0.980785 -0.137950
v -0.108386 0.980785 -0.162212
v -0.212607 0.923880 -0.318189
v -0.308658 0.831470 -0.461939
v -0.392847 0.707107 -0.587937
v -0.461939 0.555570 -0.691341
v -0.513280 0.382683 -0.768177
v -0.544895 0.195090 -0.815493
v -0.555569 0.000000 -0.831469
v -0.544895 -0.195090 -0.815493
v -0.513280 -0.382683 -0.768178
v -0.461939 -0.555570 -0.691341
v -0.392847 -0.707107 -0.587937
v -0.308658 -0.831470 -0.461939
v -0.212607 -0.923880 -0.318189
v -0.108386 -0.980785 -0.162212
v -0.074658 0.980785 -0.180240
v -0.146446 0.923880 -0.353553
v -0.212607 0.831470 -0.513279
v -0.270598 0.707107 -0.653281
v -0.318189 0.555570 -0.768177
v -0.353553 0.382683 -0.853553
v -0.375330 0.195090 -0.906127
v -0.382683 0.000000 -0.923879
v -0.375330 -0.195090 -0.906127
v -0.353553 -0.382683 -0.853553
v -0.318189 -0.555570 -0.768177
v -0.270598 -0.707107 -0.653281
v -0.212607 -0.831470 -0.513279
v -0.146446 -0.923880 -0.353553
v -0.074658 -0.980785 -0.180240
v -0.038060 0.980785 -0.191342
v -0.074658 0.923880 -0.375330
v -0.108386 0.831470 -0.544895
v -0.137950 0.707107 -0.693520
v -0.162212 0.555570 -0.815493
v -0.180240 0.382683 -0.906127
v -0.191341 0.195090 -0.961939
v -0.195090 0.000000 -0.980784
v -0.191341 -0.195090 -0.961939
v -0.180240 -0.382683 -0.906127
v -0.162212 -0.555570 -0.815493
v -0.137950 -0.707107 -0.693520
v -0.108386 -0.831470 -0.544895
v -0.074658 -0.923880 -0.375330
v -0.038060 -0.980785 -0.191342
v 0.000001 0.000000 -0.999999
v 0.000000 -0.195090 -0.980785
v 0.000000 -0.382683 -0.923879
v 0.000000 -0.923880 -0.382683
v 0.000000 -0.980785 -0.195090
v 0.000000 -1.000000 0.000000
# 482 vertices

vn 0.07567 -0.92171 -0.38043
vn 0.10921 -0.82865 -0.54902
vn -0.00000 -0.82865 -0.55977
vn 0.00000 -0.92171 -0.38788
vn 0.19139 0.19393 -0.96217
vn 0.18041 0.38054 -0.90700
vn -0.00000 0.38054 -0.92477
vn -0.00000 0.19393 -0.98102
vn 0.03921 -0.97960 -0.19710
vn 0.00000 -0.97960 -0.20096
vn 0.19509 0.00000 -0.98079
vn -0.00000 0.00000 -1.00000
vn 0.03921 0.97960 -0.19710
vn -0.00000 1.00000 0.00000
vn -0.00000 0.97960 -0.20096
vn -0.00000 -1.00000 0.00000
vn 0.19139 -0.19393 -0.96217
vn -0.00000 -0.19393 -0.98102
vn 0.07567 0.92171 -0.38043
vn -0.00000 0.92171 -0.38788
vn 0.18041 -0.38054 -0.90700
vn -0.00000 -0.38054 -0.92477
vn 0.10921 0.82865 -0.54902
vn -0.00000 0.82865 -0.55977
vn 0.16258 -0.55276 -0.81733
vn 0.00000 -0.55276 -0.83334
vn 0.13854 0.70406 -0.69649
vn -0.00000 0.70406 -0.71014
vn 0.13854 -0.70406 -0.69649
vn 0.00000 -0.70406 -0.71014
vn 0.16258 0.55276 -0.81733
vn 0.00000 0.55276 -0.83334
vn 0.21422 -0.82865 -0.51716
vn 0.27176 -0.70406 -0.65608
vn 0.35389 0.38054 -0.85437
vn 0.31890 0.55276 -0.76991
vn 0.14844 -0.92171 -0.35836
vn 0.37542 0.19393 -0.90634
vn 0.07691 -0.97960 -0.18567
vn 0.38268 0.00000 -0.92388
vn 0.07691 0.97960 -0.18567
vn 0.37542 -0.19393 -0.90634
vn 0.14844 0.92171 -0.35836
vn 0.35389 -0.38054 -0.85437
vn 0.21422 0.82865 -0.51716
vn 0.31890 -0.55276 -0.76991
vn 0.27176 0.70406 -0.65608
vn 0.21550 0.92171 -0.32251
vn 0.11165 0.97960 -0.16710
vn 0.51377 -0.38054 -0.76892
vn 0.54502 -0.19393 -0.81569
vn 0.31099 0.82865 -0.46543
vn 0.46298 -0.55276 -0.69290
vn 0.39453 0.70406 -0.59046
vn 0.39453 -0.70406 -0.59046
vn 0.46298 0.55276 -0.69290
vn 0.31099 -0.82865 -0.46543
vn 0.51377 0.38054 -0.76891
vn 0.21550 -0.92171 -0.32251
vn 0.54502 0.19393 -0.81569
vn 0.11165 -0.97960 -0.16710
vn 0.55557 0.00000 -0.83147
vn 0.65391 0.38054 -0.65391
vn 0.58926 0.55276 -0.58926
vn 0.27427 -0.92171 -0.27427
vn 0.39582 -0.82865 -0.39582
vn 0.69368 0.19393 -0.69368
vn 0.14210 -0.97960 -0.14210
vn 0.70711 0.00000 -0.70711
vn 0.14210 0.97960 -0.14210
vn 0.69368 -0.19393 -0.69368
vn 0.27427 0.92171 -0.27427
vn 0.65391 -0.38054 -0.65391
vn 0.39582 0.82865 -0.39582
vn 0.58926 -0.55276 -0.58926
vn 0.50215 0.70406 -0.50214
vn 0.50215 -0.70406 -0.50214
vn 0.76892 -0.38054 -0.51377
vn 0.81569 -0.19393 -0.54502
vn 0.46543 0.82865 -0.31099
vn 0.32251 0.92171 -0.21550
vn 0.69290 -0.55276 -0.46298
vn 0.59046 0.70406 -0.39453
vn 0.59046 -0.70406 -0.39453
vn 0.69290 0.55276 -0.46298
vn 0.46543 -0.82865 -0.31099
vn 0.76891 0.38054 -0.51377
vn 0.32251 -0.92171 -0.21550
vn 0.81569 0.19393 -0.54502
vn 0.16710 -0.97960 -0.11165
vn 0.83147 0.00000 -0.55557
vn 0.16710 0.97960 -0.11165
vn 0.35836 -0.92171 -0.14844
vn 0.51716 -0.82865 -0.21422
vn 0.90634 0.19393 -0.37542
vn 0.85437 0.38054 -0.35389
vn 0.18567 -0.97960 -0.07691
vn 0.92388 -0.00000 -0.38268
vn 0.18567 0.97960 -0.07691
vn 0.90634 -0.19393 -0.37542
vn 0.35836 0.92171 -0.14844
vn 0.85437 -0.38054 -0.35389
vn 0.51716 0.82865 -0.21422
vn 0.76990 -0.55276 -0.31891
vn 0.65608 0.70406 -0.27176
vn 0.65608 -0.70406 -0.27176
vn 0.76991 0.55276 -0.31890
vn 0.54902 0.82865 -0.10921
vn 0.38043 0.92171 -0.07567
vn 0.81733 -0.55276 -0.16258
vn 0.90700 -0.38054 -0.18041
vn 0.69650 0.70406 -0.13854
vn 0.69650 -0.70406 -0.13854
vn 0.81733 0.55276 -0.16258
vn 0.54902 -0.82865 -0.10921
vn 0.90700 0.38054 -0.18041
vn 0.38043 -0.92171 -0.07567
vn 0.96217 0.19393 -0.19139
vn 0.19710 -0.97960 -0.03921
vn 0.98079 -0.00000 -0.19509
vn 0.19710 0.97960 -0.03921
vn 0.96217 -0.19393 -0.19139
vn 0.98102 0.19393 0.00000
vn 0.92477 0.38054 0.00000
vn 0.20096 -0.97960 0.00000
vn 0.38788 -0.92171 0.00000
vn 1.00000 -0.00000 0.00000
vn 0.20096 0.97960 -0.00000
vn 0.98102 -0.19393 0.00000
vn 0.38788 0.92171 0.00000
vn 0.92477 -0.38054 0.00000
vn 0.55977 0.82865 0.00000
vn 0.83334 -0.55276 0.00000
vn 0.71014 0.70406 -0.00000
vn 0.71014 -0.70406 -0.00000
vn 0.83334 0.55276 0.00000
vn 0.55977 -0.82865 -0.00000
vn 0.81733 -0.55276 0.16258
vn 0.90700 -0.38054 0.18041
vn 0.69650 0.70406 0.13854
vn 0.54902 0.82865 0.10921
vn 0.69650 -0.70406 0.13854
vn 0.81733 0.55276 0.16258
vn 0.54902 -0.82865 0.10921
vn 0.90700 0.38054 0.18041
vn 0.38043 -0.92171 0.07567
vn 0.96217 0.19393 0.19139
vn 0.19710 -0.97960 0.03921
vn 0.98079 0.00000 0.19509
vn 0.19710 0.97960 0.03921
vn 0.96217 -0.19393 0.19139
vn 0.38043 0.92171 0.07567
vn 0.18567 -0.97960 0.07691
vn 0.35836 -0.92171 0.14844
vn 0.92388 -0.00000 0.38268
vn 0.90634 0.19393 0.37542
vn 0.18567 0.97960 0.07691
vn 0.90634 -0.19393 0.37542
vn 0.35836 0.92171 0.14844
vn 0.85437 -0.38054 0.35389
vn 0.51716 0.82865 0.21422
vn 0.76991 -0.55276 0.31890
vn 0.65608 0.70406 0.27176
vn 0.65608 -0.70406 0.27176
vn 0.76991 0.55276 0.31891
vn 0.51716 -0.82865 0.21422
vn 0.85437 0.38054 0.35389
vn 0.59046 -0.70406 0.39453
vn 0.69290 -0.55276 0.46298
vn 0.69290 0.55276 0.46298
vn 0.59046 0.70406 0.39453
vn 0.46543 -0.82865 0.31099
vn 0.76891 0.38054 0.51377
vn 0.32251 -0.92171 0.21550
vn 0.81569 0.19393 0.54502
vn 0.16710 -0.97960 0.11165
vn 0.83147 0.00000 0.55557
vn 0.16710 0.97960 0.11165
vn 0.81569 -0.19393 0.54502
vn 0.32251 0.92171 0.21550
vn 0.76892 -0.38054 0.51377
vn 0.46543 0.82865 0.31099
vn 0.14210 0.97960 0.14210
vn 0.14210 -0.97960 0.14210
vn 0.69368 -0.19393 0.69368
vn 0.70711 0.00000 0.70711
vn 0.27427 0.92171 0.27427
vn 0.65391 -0.38054 0.65391
vn 0.39582 0.82865 0.39582
vn 0.58926 -0.55276 0.58926
vn 0.50215 0.70406 0.50214
vn 0.50214 -0.70406 0.50214
vn 0.58926 0.55276 0.58926
vn 0.39582 -0.82865 0.39582
vn 0.65391 0.38054 0.65391
vn 0.27427 -0.92171 0.27427
vn 0.69368 0.19393 0.69368
vn 0.46298 0.55276 0.69290
vn 0.39453 0.70406 0.59046
vn 0.31099 -0.82865 0.46543
vn 0.39453 -0.70406 0.59046
vn 0.51377 0.38054 0.76891
vn 0.21550 -0.92171 0.32251
vn 0.54502 0.19393 0.81569
vn 0.11165 -0.97960 0.16710
vn 0.55557 -0.00000 0.83147
vn 0.11165 0.97960 0.16710
vn 0.54502 -0.19393 0.81569
vn 0.21550 0.92171 0.32251
vn 0.51377 -0.38054 0.76892
vn 0.31099 0.82865 0.46543
vn 0.46298 -0.55276 0.69290
vn 0.37542 -0.19393 0.90634
vn 0.38268 -0.00000 0.92388
vn 0.14844 0.92171 0.35836
vn 0.07691 0.97960 0.18567
vn 0.35389 -0.38054 0.85437
vn 0.21422 0.82865 0.51716
vn 0.31890 -0.55276 0.76991
vn 0.27176 0.70406 0.65608
vn 0.27176 -0.70406 0.65608
vn 0.31890 0.55276 0.76991
vn 0.21422 -0.82865 0.51716
vn 0.35389 0.38054 0.85437
vn 0.14844 -0.92171 0.35836
vn 0.37542 0.19393 0.90634
vn 0.07691 -0.97960 0.18567
vn 0.10921 -0.82865 0.54902
vn 0.13854 -0.70406 0.69650
vn 0.18041 0.38054 0.90700
vn 0.16258 0.55276 0.81733
vn 0.07567 -0.92171 0.38043
vn 0.19139 0.19393 0.96217
vn 0.03921 -0.97960 0.19710
vn 0.19509 0.00000 0.98079
vn 0.03921 0.97960 0.19710
vn 0.19139 -0.19393 0.96217
vn 0.07567 0.92171 0.38043
vn 0.18041 -0.38054 0.90700
vn 0.10921 0.82865 0.54902
vn 0.16258 -0.55276 0.81733
vn 0.13854 0.70406 0.69650
vn 0.00000 0.92171 0.38788
vn 0.00000 0.97960 0.20096
vn -0.00000 -0.38054 0.92477
vn 0.00000 -0.19393 0.98102
vn -0.00000 0.82865 0.55977
vn -0.00000 -0.55276 0.83334
vn 0.00000 0.70406 0.71014
vn -0.00000 -0.70406 0.71014
vn 0.00000 0.55276 0.83334
vn -0.00000 -0.82865 0.55977
vn -0.00000 0.38054 0.92477
vn -0.00000 -0.92171 0.38788
vn -0.00000 0.19393 0.98102
vn -0.00000 -0.97960 0.20096
vn 0.00000 -0.00000 1.00000
vn -0.18041 0.38054 0.90700
vn -0.16258 0.55276 0.81733
vn -0.07567 -0.92171 0.38043
vn -0.10921 -0.82865 0.54902
vn -0.19139 0.19393 0.96217
vn -0.03921 -0.97960 0.19710
vn -0.19509 -0.00000 0.98079
vn -0.03921 0.97960 0.19710
vn -0.19139 -0.19393 0.96217
vn -0.07567 0.92171 0.38043
vn -0.18041 -0.38054 0.90700
vn -0.10921 0.82865 0.54902
vn -0.16258 -0.55276 0.81733
vn -0.13854 0.70406 0.69650
vn -0.13854 -0.70406 0.69650
vn -0.35389 -0.38054 0.85437
vn -0.37542 -0.19393 0.90634
vn -0.21422 0.82865 0.51716
vn -0.14844 0.92171 0.35836
vn -0.31890 -0.55276 0.76991
vn -0.27176 0.70406 0.65608
vn -0.27176 -0.70406 0.65608
vn -0.31891 0.55276 0.76991
vn -0.21422 -0.82865 0.51716
vn -0.35389 0.38054 0.85437
vn -0.14844 -0.92171 0.35836
vn -0.37542 0.19393 0.90634
vn -0.07691 -0.97960 0.18567
vn -0.38268 0.00000 0.92388
vn -0.07691 0.97960 0.18567
vn -0.21550 -0.92171 0.32251
vn -0.31099 -0.82865 0.46543
vn -0.54502 0.19393 0.81569
vn -0.51377 0.38054 0.76891
vn -0.11165 -0.97960 0.16710
vn -0.55557 0.00000 0.83147
vn -0.11165 0.97960 0.16710
vn -0.54502 -0.19393 0.81569
vn -0.21550 0.92171 0.32251
vn -0.51377 -0.38054 0.76891
vn -0.31099 0.82865 0.46543
vn -0.46298 -0.55276 0.69290
vn -0.39453 0.70406 0.59046
vn -0.39453 -0.70406 0.59046
vn -0.46298 0.55276 0.69290
vn -0.58926 -0.55276 0.58926
vn -0.65391 -0.38054 0.65391
vn -0.50215 0.70406 0.50215
vn -0.39582 0.82865 0.39582
vn -0.50215 -0.70406 0.50214
vn -0.58926 0.55276 0.58926
vn -0.39582 -0.82865 0.39582
vn -0.65391 0.38054 0.65391
vn -0.27427 -0.92171 0.27427
vn -0.69368 0.19393 0.69368
vn -0.14210 -0.97960 0.14210
vn -0.70711 -0.00000 0.70711
vn -0.14210 0.97960 0.14210
vn -0.69368 -0.19393 0.69368
vn -0.27427 0.92171 0.27427
vn -0.16710 -0.97960 0.11165
vn -0.32251 -0.92171 0.21550
vn -0.83147 -0.00000 0.55557
vn -0.81569 0.19393 0.54502
vn -0.16710 0.97960 0.11165
vn -0.81569 -0.19393 0.54502
vn -0.32251 0.92171 0.21550
vn -0.76891 -0.38054 0.51377
vn -0.46543 0.82865 0.31099
vn -0.69290 -0.55276 0.46298
vn -0.59046 0.70406 0.39453
vn -0.59046 -0.70406 0.39453
vn -0.69290 0.55276 0.46298
vn -0.46543 -0.82865 0.31099
vn -0.76891 0.38054 0.51377
vn -0.65608 0.70406 0.27176
vn -0.51716 0.82865 0.21422
vn -0.65608 -0.70406 0.27176
vn -0.76990 -0.55276 0.31891
vn -0.76990 0.55276 0.31891
vn -0.51716 -0.82865 0.21422
vn -0.85437 0.38054 0.35389
vn -0.35836 -0.92171 0.14844
vn -0.90634 0.19393 0.37542
vn -0.18567 -0.97960 0.07691
vn -0.92388 -0.00000 0.38268
vn -0.18567 0.97960 0.07691
vn -0.90634 -0.19393 0.37542
vn -0.35836 0.92171 0.14844
vn -0.85437 -0.38054 0.35389
vn -0.98079 0.00000 0.19509
vn -0.96217 0.19393 0.19139
vn -0.19710 0.97960 0.03921
vn -0.19710 -0.97960 0.03921
vn -0.96217 -0.19393 0.19139
vn -0.38043 0.92171 0.07567
vn -0.90700 -0.38054 0.18041
vn -0.54902 0.82865 0.10921
vn -0.81733 -0.55276 0.16258
vn -0.69650 0.70406 0.13854
vn -0.69650 -0.70406 0.13854
vn -0.81733 0.55276 0.16258
vn -0.54902 -0.82865 0.10921
vn -0.90700 0.38054 0.18041
vn -0.38043 -0.92171 0.07567
vn -0.71014 -0.70406 0.00000
vn -0.83334 -0.55276 0.00000
vn -0.83334 0.55276 0.00000
vn -0.71014 0.70406 0.00000
vn -0.55977 -0.82865 0.00000
vn -0.92477 0.38054 -0.00000
vn -0.38788 -0.92171 -0.00000
vn -0.98102 0.19393 0.00000
vn -0.20096 -0.97960 -0.00000
vn -1.00000 0.00000 0.00000
vn -0.20096 0.97960 0.00000
vn -0.98102 -0.19393 0.00000
vn -0.38788 0.92171 0.00000
vn -0.92477 -0.38054 0.00000
vn -0.55977 0.82865 0.00000
vn -0.19710 0.97960 -0.03921
vn -0.19710 -0.97960 -0.03921
vn -0.96217 -0.19393 -0.19139
vn -0.98079 0.00000 -0.19509
vn -0.38043 0.92171 -0.07567
vn -0.90700 -0.38054 -0.18041
vn -0.54902 0.82865 -0.10921
vn -0.81733 -0.55276 -0.16258
vn -0.69650 0.70406 -0.13854
vn -0.69650 -0.70406 -0.13854
vn -0.81733 0.55276 -0.16258
vn -0.54902 -0.82865 -0.10921
vn -0.90700 0.38054 -0.18041
vn -0.38043 -0.92171 -0.07567
vn -0.96217 0.19393 -0.19139
vn -0.76990 0.55276 -0.31891
vn -0.65608 0.70406 -0.27176
vn -0.51716 -0.82865 -0.21422
vn -0.65608 -0.70406 -0.27176
vn -0.85437 0.38054 -0.35389
vn -0.35836 -0.92171 -0.14844
vn -0.90634 0.19393 -0.37542
vn -0.18567 -0.97960 -0.07691
vn -0.92388 0.00000 -0.38268
vn -0.18567 0.97960 -0.07691
vn -0.90634 -0.19393 -0.37542
vn -0.35836 0.92171 -0.14844
vn -0.85437 -0.38054 -0.35389
vn -0.51716 0.82865 -0.21422
vn -0.76990 -0.55276 -0.31891
vn -0.81568 -0.19393 -0.54502
vn -0.83147 0.00000 -0.55557
vn -0.32251 0.92171 -0.21550
vn -0.16710 0.97960 -0.11165
vn -0.76891 -0.38054 -0.51377
vn -0.46543 0.82865 -0.31099
vn -0.69290 -0.55276 -0.46298
vn -0.59046 0.70406 -0.39453
vn -0.59046 -0.70406 -0.39453
vn -0.69290 0.55276 -0.46298
vn -0.46543 -0.82865 -0.31099
vn -0.76891 0.38054 -0.51377
vn -0.32251 -0.92171 -0.21550
vn -0.81568 0.19393 -0.54502
vn -0.16710 -0.97960 -0.11165
vn -0.39582 -0.82865 -0.39582
vn -0.50214 -0.70406 -0.50215
vn -0.65391 0.38054 -0.65391
vn -0.58926 0.55276 -0.58926
vn -0.27427 -0.92171 -0.27427
vn -0.69368 0.19393 -0.69368
vn -0.14210 -0.97960 -0.14210
vn -0.70711 0.00000 -0.70711
vn -0.14210 0.97960 -0.14210
vn -0.69368 -0.19393 -0.69368
vn -0.27427 0.92171 -0.27427
vn -0.65391 -0.38054 -0.65391
vn -0.39582 0.82865 -0.39582
vn -0.58926 -0.55276 -0.58926
vn -0.50214 0.70406 -0.50215
vn -0.51377 -0.38054 -0.76891
vn -0.54502 -0.19393 -0.81568
vn -0.31099 0.82865 -0.46543
vn -0.21550 0.92171 -0.32251
vn -0.46298 -0.55276 -0.69290
vn -0.39453 0.70406 -0.59046
vn -0.39453 -0.70406 -0.59046
vn -0.46298 0.55276 -0.69290
vn -0.31099 -0.82865 -0.46543
vn -0.51377 0.38054 -0.76891
vn -0.21550 -0.92171 -0.32251
vn -0.54502 0.19393 -0.81568
vn -0.11165 -0.97960 -0.16710
vn -0.55557 -0.00000 -0.83147
vn -0.11165 0.97960 -0.16710
vn -0.14844 -0.92171 -0.35836
vn -0.21422 -0.82865 -0.51716
vn -0.37542 0.19393 -0.90634
vn -0.35389 0.38054 -0.85437
vn -0.07691 -0.97960 -0.18567
vn -0.38268 -0.00000 -0.92388
vn -0.07691 0.97960 -0.18567
vn -0.37542 -0.19393 -0.90634
vn -0.14844 0.92171 -0.35836
vn -0.35389 -0.38054 -0.85437
vn -0.21422 0.82865 -0.51716
vn -0.31891 -0.55276 -0.76990
vn -0.27176 0.70406 -0.65608
vn -0.27176 -0.70406 -0.65608
vn -0.31891 0.55276 -0.76990
vn -0.10921 0.82865 -0.54902
vn -0.07567 0.92171 -0.38043
vn -0.16258 -0.55276 -0.81733
vn -0.18041 -0.38054 -0.90700
vn -0.13854 0.70406 -0.69649
vn -0.13854 -0.70406 -0.69649
vn -0.16258 0.55276 -0.81733
vn -0.10921 -0.82865 -0.54902
vn -0.18042 0.38054 -0.90700
vn -0.07567 -0.92171 -0.38043
vn -0.19139 0.19393 -0.96217
vn -0.03921 -0.97960 -0.19710
vn -0.19509 0.00000 -0.98079
vn -0.03921 0.97960 -0.19710
vn -0.19139 -0.19393 -0.96217
# 482 normal vertices

g Sphere1
s 1
usemtl None
f 480//4 10//3 23//2 24//1
f 7//8 6//7 16//6 17//5
f 481//10 480//4 24//1 25//9
f 477//12 7//8 17//5 18//11
f 1//15 326//14 11//13
f 482//16 481//10 25//9
f 478//18 477//12 18//11 19//17
f 2//20 1//15 11//13 12//19
f 479//22 478//18 19//17 20//21
f 3//24 2//20 12//19 13//23
f 8//26 479//22 20//21 21//25
f 4//28 3//24 13//23 14//27
f 9//30 8//26 21//25 22//29
f 5//32 4//28 14//27 15//31
f 10//3 9//30 22//29 23//2
f 6//7 5//32 15//31 16//6
f 23//2 22//29 37//34 38//33
f 16//6 15//31 30//36 31//35
f 24//1 23//2 38//33 39//37
f 17//5 16//6 31//35 32//38
f 25//9 24//1 39//37 40//39
f 18//11 17//5 32//38 33//40
f 11//13 326//14 26//41
f 482//16 25//9 40//39
f 19//17 18//11 33//40 34//42
f 12//19 11//13 26//41 27//43
f 20//21 19//17 34//42 35//44
f 13//23 12//19 27//43 28//45
f 21//25 20//21 35//44 36//46
f 14//27 13//23 28//45 29//47
f 22//29 21//25 36//46 37//34
f 15//31 14//27 29//47 30//36
f 27//43 26//41 41//49 42//48
f 35//44 34//42 49//51 50//50
f 28//45 27//43 42//48 43//52
f 36//46 35//44 50//50 51//53
f 29//47 28//45 43//52 44//54
f 37//34 36//46 51//53 52//55
f 30//36 29//47 44//54 45//56
f 38//33 37//34 52//55 53//57
f 31//35 30//36 45//56 46//58
f 39//37 38//33 53//57 54//59
f 32//38 31//35 46//58 47//60
f 40//39 39//37 54//59 55//61
f 33//40 32//38 47//60 48//62
f 26//41 326//14 41//49
f 482//16 40//39 55//61
f 34//42 33//40 48//62 49//51
f 46//58 45//56 60//64 61//63
f 54//59 53//57 68//66 69//65
f 47//60 46//58 61//63 62//67
f 55//61 54//59 69//65 70//68
f 48//62 47//60 62//67 63//69
f 41//49 326//14 56//70
f 482//16 55//61 70//68
f 49//51 48//62 63//69 64//71
f 42//48 41//49 56//70 57//72
f 50//50 49//51 64//71 65//73
f 43//52 42//48 57//72 58//74
f 51//53 50//50 65//73 66//75
f 44//54 43//52 58//74 59//76
f 52//55 51//53 66//75 67//77
f 45//56 44//54 59//76 60//64
f 53//57 52//55 67//77 68//66
f 65//73 64//71 79//79 80//78
f 58//74 57//72 72//81 73//80
f 66//75 65//73 80//78 81//82
f 59//76 58//74 73//80 74//83
f 67//77 66//75 81//82 82//84
f 60//64 59//76 74//83 75//85
f 68//66 67//77 82//84 83//86
f 61//63 60//64 75//85 76//87
f 69//65 68//66 83//86 84//88
f 62//67 61//63 76//87 77//89
f 70//68 69//65 84//88 85//90
f 63//69 62//67 77//89 78//91
f 56//70 326//14 71//92
f 482//16 70//68 85//90
f 64//71 63//69 78//91 79//79
f 57//72 56//70 71//92 72//81
f 84//88 83//86 98//94 99//93
f 77//89 76//87 91//96 92//95
f 85//90 84//88 99//93 100//97
f 78//91 77//89 92//95 93//98
f 71//92 326//14 86//99
f 482//16 85//90 100//97
f 79//79 78//91 93//98 94//100
f 72//81 71//92 86//99 87//101
f 80//78 79//79 94//100 95//102
f 73//80 72//81 87//101 88//103
f 81//82 80//78 95//102 96//104
f 74//83 73//80 88//103 89//105
f 82//84 81//82 96//104 97//106
f 75//85 74//83 89//105 90//107
f 83//86 82//84 97//106 98//94
f 76//87 75//85 90//107 91//96
f 88//103 87//101 102//109 103//108
f 96//104 95//102 110//111 111//110
f 89//105 88//103 103//108 104//112
f 97//106 96//104 111//110 112//113
f 90//107 89//105 104//112 105//114
f 98//94 97//106 112//113 113//115
f 91//96 90//107 105//114 106//116
f 99//93 98//94 113//115 114//117
f 92//95 91//96 106//116 107//118
f 100//97 99//93 114//117 115//119
f 93//98 92//95 107//118 108//120
f 86//99 326//14 101//121
f 482//16 100//97 115//119
f 94//100 93//98 108//120 109//122
f 87//101 86//99 101//121 102//109
f 95//102 94//100 109//122 110//111
f 107//118 106//116 121//124 122//123
f 115//119 114//117 129//126 130//125
f 108//120 107//118 122//123 123//127
f 101//121 326//14 116//128
f 482//16 115//119 130//125
f 109//122 108//120 123//127 124//129
f 102//109 101//121 116//128 117//130
f 110//111 109//122 124//129 125//131
f 103//108 102//109 117//130 118//132
f 111//110 110//111 125//131 126//133
f 104//112 103//108 118//132 119//134
f 112//113 111//110 126//133 127//135
f 105//114 104//112 119//134 120//136
f 113//115 112//113 127//135 128//137
f 106//116 105//114 120//136 121//124
f 114//117 113//115 128//137 129//126
f 126//133 125//131 140//139 141//138
f 119//134 118//132 133//141 134//140
f 127//135 126//133 141//138 142//142
f 120//136 119//134 134//140 135//143
f 128//137 127//135 142//142 143//144
f 121//124 120//136 135//143 136//145
f 129//126 128//137 143//144 144//146
f 122//123 121//124 136//145 137//147
f 130//125 129//126 144//146 145//148
f 123//127 122//123 137//147 138//149
f 116//128 326//14 131//150
f 482//16 130//125 145//148
f 124//129 123//127 138//149 139//151
f 117//130 116//128 131//150 132//152
f 125//131 124//129 139//151 140//139
f 118//132 117//130 132//152 133//141
f 145//148 144//146 159//154 160//153
f 138//149 137//147 152//156 153//155
f 131//150 326//14 146//157
f 482//16 145//148 160//153
f 139//151 138//149 153//155 154//158
f 132//152 131//150 146//157 147//159
f 140//139 139//151 154//158 155//160
f 133//141 132//152 147//159 148//161
f 141//138 140//139 155//160 156//162
f 134//140 133//141 148//161 149//163
f 142//142 141//138 156//162 157//164
f 135//143 134//140 149//163 150//165
f 143//144 142//142 157//164 158//166
f 136//145 135//143 150//165 151//167
f 144//146 143//144 158//166 159//154
f 137//147 136//145 151//167 152//156
f 157//164 156//162 171//169 172//168
f 150//165 149//163 164//171 165//170
f 158//166 157//164 172//168 173//172
f 151//167 150//165 165//170 166//173
f 159//154 158//166 173//172 174//174
f 152//156 151//167 166//173 167//175
f 160//153 159//154 174//174 175//176
f 153//155 152//156 167//175 168//177
f 146//157 326//14 161//178
f 482//16 160//153 175//176
f 154//158 153//155 168//177 169//179
f 147//159 146//157 161//178 162//180
f 155//160 154//158 169//179 170//181
f 148//161 147//159 162//180 163//182
f 156//162 155//160 170//181 171//169
f 149//163 148//161 163//182 164//171
f 161//178 326//14 176//183
f 482//16 175//176 190//184
f 169//179 168//177 183//186 184//185
f 162//180 161//178 176//183 177//187
f 170//181 169//179 184//185 185//188
f 163//182 162//180 177//187 178//189
f 171//169 170//181 185//188 186//190
f 164//171 163//182 178//189 179//191
f 172//168 171//169 186//190 187//192
f 165//170 164//171 179//191 180//193
f 173//172 172//168 187//192 188//194
f 166//173 165//170 180//193 181//195
f 174//174 173//172 188//194 189//196
f 167//175 166//173 181//195 182//197
f 175//176 174//174 189//196 190//184
f 168//177 167//175 182//197 183//186
f 180//193 179//191 194//199 195//198
f 188//194 187//192 202//201 203//200
f 181//195 180//193 195//198 196//202
f 189//196 188//194 203//200 204//203
f 182//197 181//195 196//202 197//204
f 190//184 189//196 204//203 205//205
f 183//186 182//197 197//204 198//206
f 176//183 326//14 191//207
f 482//16 190//184 205//205
f 184//185 183//186 198//206 199//208
f 177//187 176//183 191//207 192//209
f 185//188 184//185 199//208 200//210
f 178//189 177//187 192//209 193//211
f 186//190 185//188 200//210 201//212
f 179//191 178//189 193//211 194//199
f 187//192 186//190 201//212 202//201
f 199//208 198//206 213//214 214//213
f 192//209 191//207 206//216 207//215
f 200//210 199//208 214//213 215//217
f 193//211 192//209 207//215 208//218
f 201//212 200//210 215//217 216//219
f 194//199 193//211 208//218 209//220
f 202//201 201//212 216//219 217//221
f 195//198 194//199 209//220 210//222
f 203//200 202//201 217//221 218//223
f 196//202 195//198 210//222 211//224
f 204//203 203//200 218//223 219//225
f 197//204 196//202 211//224 212//226
f 205//205 204//203 219//225 220//227
f 198//206 197//204 212//226 213//214
f 191//207 326//14 206//216
f 482//16 205//205 220//227
f 218//223 217//221 232//229 233//228
f 211//224 210//222 225//231 226//230
f 219//225 218//223 233//228 234//232
f 212//226 211//224 226//230 227//233
f 220//227 219//225 234//232 235//234
f 213//214 212//226 227//233 228//235
f 206//216 326//14 221//236
f 482//16 220//227 235//234
f 214//213 213//214 228//235 229//237
f 207//215 206//216 221//236 222//238
f 215//217 214//213 229//237 230//239
f 208//218 207//215 222//238 223//240
f 216//219 215//217 230//239 231//241
f 209//220 208//218 223//240 224//242
f 217//221 216//219 231//241 232//229
f 210//222 209//220 224//242 225//231
f 222//238 221//236 236//244 237//243
f 230//239 229//237 244//246 245//245
f 223//240 222//238 237//243 238//247
f 231//241 230//239 245//245 246//248
f 224//242 223//240 238//247 239//249
f 232//229 231//241 246//248 247//250
f 225//231 224//242 239//249 240//251
f 233//228 232//229 247//250 248//252
f 226//230 225//231 240//251 241//253
f 234//232 233//228 248//252 249//254
f 227//233 226//230 241//253 242//255
f 235//234 234//232 249//254 250//256
f 228//235 227//233 242//255 243//257
f 221//236 326//14 236//244
f 482//16 235//234 250//256
f 229//237 228//235 243//257 244//246
f 241//253 240//251 255//259 256//258
f 249//254 248//252 263//261 264//260
f 242//255 241//253 256//258 257//262
f 250//256 249//254 264//260 265//263
f 243//257 242//255 257//262 258//264
f 236//244 326//14 251//265
f 482//16 250//256 265//263
f 244//246 243//257 258//264 259//266
f 237//243 236//244 251//265 252//267
f 245//245 244//246 259//266 260//268
f 238//247 237//243 252//267 253//269
f 246//248 245//245 260//268 261//270
f 239//249 238//247 253//269 254//271
f 247//250 246//248 261//270 262//272
f 240//251 239//249 254//271 255//259
f 248//252 247//250 262//272 263//261
f 260//268 259//266 274//274 275//273
f 253//269 252//267 267//276 268//275
f 261//270 260//268 275//273 276//277
f 254//271 253//269 268//275 269//278
f 262//272 261//270 276//277 277//279
f 255//259 254//271 269//278 270//280
f 263//261 262//272 277//279 278//281
f 256//258 255//259 270//280 271//282
f 264//260 263//261 278//281 279//283
f 257//262 256//258 271//282 272//284
f 265//263 264//260 279//283 280//285
f 258//264 257//262 272//284 273//286
f 251//265 326//14 266//287
f 482//16 265//263 280//285
f 259//266 258//264 273//286 274//274
f 252//267 251//265 266//287 267//276
f 279//283 278//281 293//289 294//288
f 272//284 271//282 286//291 287//290
f 280//285 279//283 294//288 295//292
f 273//286 272//284 287//290 288//293
f 266//287 326//14 281//294
f 482//16 280//285 295//292
f 274//274 273//286 288//293 289//295
f 267//276 266//287 281//294 282//296
f 275//273 274//274 289//295 290//297
f 268//275 267//276 282//296 283//298
f 276//277 275//273 290//297 291//299
f 269//278 268//275 283//298 284//300
f 277//279 276//277 291//299 292//301
f 270//280 269//278 284//300 285//302
f 278//281 277//279 292//301 293//289
f 271//282 270//280 285//302 286//291
f 291//299 290//297 305//304 306//303
f 284//300 283//298 298//306 299//305
f 292//301 291//299 306//303 307//307
f 285//302 284//300 299//305 300//308
f 293//289 292//301 307//307 308//309
f 286//291 285//302 300//308 301//310
f 294//288 293//289 308//309 309//311
f 287//290 286//291 301//310 302//312
f 295//292 294//288 309//311 310//313
f 288//293 287//290 302//312 303//314
f 281//294 326//14 296//315
f 482//16 295//292 310//313
f 289//295 288//293 303//314 304//316
f 282//296 281//294 296//315 297//317
f 290//297 289//295 304//316 305//304
f 283//298 282//296 297//317 298//306
f 310//313 309//311 324//319 325//318
f 303//314 302//312 317//321 318//320
f 296//315 326//14 311//322
f 482//16 310//313 325//318
f 304//316 303//314 318//320 319//323
f 297//317 296//315 311//322 312//324
f 305//304 304//316 319//323 320//325
f 298//306 297//317 312//324 313//326
f 306//303 305//304 320//325 321//327
f 299//305 298//306 313//326 314//328
f 307//307 306//303 321//327 322//329
f 300//308 299//305 314//328 315//330
f 308//309 307//307 322//329 323//331
f 301//310 300//308 315//330 316//332
f 309//311 308//309 323//331 324//319
f 302//312 301//310 316//332 317//321
f 314//328 313//326 329//334 330//333
f 322//329 321//327 337//336 338//335
f 315//330 314//328 330//333 331//337
f 323//331 322//329 338//335 339//338
f 316//332 315//330 331//337 332//339
f 324//319 323//331 339//338 340//340
f 317//321 316//332 332//339 333//341
f 325//318 324//319 340//340 341//342
f 318//320 317//321 333//341 334//343
f 311//322 326//14 327//344
f 482//16 325//318 341//342
f 319//323 318//320 334//343 335//345
f 312//324 311//322 327//344 328//346
f 320//325 319//323 335//345 336//347
f 313//326 312//324 328//346 329//334
f 321//327 320//325 336//347 337//336
f 334//343 333//341 348//349 349//348
f 327//344 326//14 342//350
f 482//16 341//342 356//351
f 335//345 334//343 349//348 350//352
f 328//346 327//344 342//350 343//353
f 336//347 335//345 350//352 351//354
f 329//334 328//346 343//353 344//355
f 337//336 336//347 351//354 352//356
f 330//333 329//334 344//355 345//357
f 338//335 337//336 352//356 353//358
f 331//337 330//333 345//357 346//359
f 339//338 338//335 353//358 354//360
f 332//339 331//337 346//359 347//361
f 340//340 339//338 354//360 355//362
f 333//341 332//339 347//361 348//349
f 341//342 340//340 355//362 356//351
f 353//358 352//356 367//364 368//363
f 346//359 345//357 360//366 361//365
f 354//360 353//358 368//363 369//367
f 347//361 346//359 361//365 362//368
f 355//362 354//360 369//367 370//369
f 348//349 347//361 362//368 363//370
f 356//351 355//362 370//369 371//371
f 349//348 348//349 363//370 364//372
f 342//350 326//14 357//373
f 482//16 356//351 371//371
f 350//352 349//348 364//372 365//374
f 343//353 342//350 357//373 358//375
f 351//354 350//352 365//374 366//376
f 344//355 343//353 358//375 359//377
f 352//356 351//354 366//376 367//364
f 345//357 344//355 359//377 360//366
f 357//373 326//14 372//378
f 482//16 371//371 386//379
f 365//374 364//372 379//381 380//380
f 358//375 357//373 372//378 373//382
f 366//376 365//374 380//380 381//383
f 359//377 358//375 373//382 374//384
f 367//364 366//376 381//383 382//385
f 360//366 359//377 374//384 375//386
f 368//363 367//364 382//385 383//387
f 361//365 360//366 375//386 376//388
f 369//367 368//363 383//387 384//389
f 362//368 361//365 376//388 377//390
f 370//369 369//367 384//389 385//391
f 363//370 362//368 377//390 378//392
f 371//371 370//369 385//391 386//379
f 364//372 363//370 378//392 379//381
f 376//388 375//386 390//394 391//393
f 384//389 383//387 398//396 399//395
f 377//390 376//388 391//393 392//397
f 385//391 384//389 399//395 400//398
f 378//392 377//390 392//397 393//399
f 386//379 385//391 400//398 401//400
f 379//381 378//392 393//399 394//401
f 372//378 326//14 387//402
f 482//16 386//379 401//400
f 380//380 379//381 394//401 395//403
f 373//382 372//378 387//402 388//404
f 381//383 380//380 395//403 396//405
f 374//384 373//382 388//404 389//406
f 382//385 381//383 396//405 397//407
f 375//386 374//384 389//406 390//394
f 383//387 382//385 397//407 398//396
f 395//403 394//401 409//409 410//408
f 388//404 387//402 402//411 403//410
f 396//405 395//403 410//408 411//412
f 389//406 388//404 403//410 404//413
f 397//407 396//405 411//412 412//414
f 390//394 389//406 404//413 405//415
f 398//396 397//407 412//414 413//416
f 391//393 390//394 405//415 406//417
f 399//395 398//396 413//416 414//418
f 392//397 391//393 406//417 407//419
f 400//398 399//395 414//418 415//420
f 393//399 392//397 407//419 408//421
f 401//400 400//398 415//420 416//422
f 394//401 393//399 408//421 409//409
f 387//402 326//14 402//411
f 482//16 401//400 416//422
f 414//418 413//416 428//424 429//423
f 407//419 406//417 421//426 422//425
f 415//420 414//418 429//423 430//427
f 408//421 407//419 422//425 423//428
f 416//422 415//420 430//427 431//429
f 409//409 408//421 423//428 424//430
f 402//411 326//14 417//431
f 482//16 416//422 431//429
f 410//408 409//409 424//430 425//432
f 403//410 402//411 417//431 418//433
f 411//412 410//408 425//432 426//434
f 404//413 403//410 418//433 419//435
f 412//414 411//412 426//434 427//436
f 405//415 404//413 419//435 420//437
f 413//416 412//414 427//436 428//424
f 406//417 405//415 420//437 421//426
f 426//434 425//432 440//439 441//438
f 419//435 418//433 433//441 434//440
f 427//436 426//434 441//438 442//442
f 420//437 419//435 434//440 435//443
f 428//424 427//436 442//442 443//444
f 421//426 420//437 435//443 436//445
f 429//423 428//424 443//444 444//446
f 422//425 421//426 436//445 437//447
f 430//427 429//423 444//446 445//448
f 423//428 422//425 437//447 438//449
f 431//429 430//427 445//448 446//450
f 424//430 423//428 438//449 439//451
f 417//431 326//14 432//452
f 482//16 431//429 446//450
f 425//432 424//430 439//451 440//439
f 418//433 417//431 432//452 433//441
f 445//448 444//446 459//454 460//453
f 438//449 437//447 452//456 453//455
f 446//450 445//448 460//453 461//457
f 439//451 438//449 453//455 454//458
f 432//452 326//14 447//459
f 482//16 446//450 461//457
f 440//439 439//451 454//458 455//460
f 433//441 432//452 447//459 448//461
f 441//438 440//439 455//460 456//462
f 434//440 433//441 448//461 449//463
f 442//442 441//438 456//462 457//464
f 435//443 434//440 449//463 450//465
f 443//444 442//442 457//464 458//466
f 436//445 435//443 450//465 451//467
f 444//446 443//444 458//466 459//454
f 437//447 436//445 451//467 452//456
f 449//463 448//461 463//469 464//468
f 457//464 456//462 471//471 472//470
f 450//465 449//463 464//468 465//472
f 458//466 457//464 472//470 473//473
f 451//467 450//465 465//472 466//474
f 459//454 458//466 473//473 474//475
f 452//456 451//467 466//474 467//476
f 460//453 459//454 474//475 475//477
f 453//455 452//456 467//476 468//478
f 461//457 460//453 475//477 476//479
f 454//458 453//455 468//478 469//480
f 447//459 326//14 462//481
f 482//16 461//457 476//479
f 455//460 454//458 469//480 470//482
f 448//461 447//459 462//481 463//469
f 456//462 455//460 470//482 471//471
f 468//478 467//476 6//7 7//8
f 476//479 475//477 480//4 481//10
f 469//480 468//478 7//8 477//12
f 462//481 326//14 1//15
f 482//16 476//479 481//10
f 470//482 469//480 477//12 478//18
f 463//469 462//481 1//15 2//20
f 471//471 470//482 478//18 479//22
f 464//468 463//469 2//20 3//24
f 472//470 471//471 479//22 8//26
f 465//472 464//468 3//24 4//28
f 473//473 472//470 8//26 9//30
f 466//474 465//472 4//28 5//32
f 474//475 473//473 9//30 10//3
f 467//476 466//474 5//32 6//7
f 475//477 474//475 10//3 480//4
# 512 elements

