# Created by Metasequoia

mtllib Sphere.mtl

v 0.000000 0.980785 0.195090
v 0.000000 0.923880 0.382683
v 0.000000 0.831470 0.555570
v 0.000000 0.707107 0.707107
v 0.000000 0.555570 0.831470
v 0.000000 0.382683 0.923880
v 0.000000 0.195090 0.980785
v 0.000000 -0.555570 0.831470
v 0.000000 -0.707107 0.707107
v 0.000000 -0.831470 0.555570
v 0.038060 0.980785 0.191342
v 0.074658 0.923880 0.375330
v 0.108386 0.831470 0.544895
v 0.137950 0.707107 0.693520
v 0.162212 0.555570 0.815493
v 0.180240 0.382683 0.906127
v 0.191342 0.195090 0.961940
v 0.195090 0.000000 0.980785
v 0.191342 -0.195090 0.961940
v 0.180240 -0.382683 0.906127
v 0.162212 -0.555570 0.815493
v 0.137950 -0.707107 0.693520
v 0.108386 -0.831470 0.544895
v 0.074658 -0.923880 0.375330
v 0.038060 -0.980785 0.191342
v 0.074658 0.980785 0.180240
v 0.146447 0.923880 0.353553
v 0.212608 0.831470 0.513280
v 0.270598 0.707107 0.653281
v 0.318190 0.555570 0.768178
v 0.353553 0.382683 0.853553
v 0.375330 0.195090 0.906127
v 0.382683 0.000000 0.923879
v 0.375330 -0.195090 0.906127
v 0.353553 -0.382683 0.853553
v 0.318190 -0.555570 0.768178
v 0.270598 -0.707107 0.653281
v 0.212608 -0.831470 0.513280
v 0.146447 -0.923880 0.353553
v 0.074658 -0.980785 0.180240
v 0.108386 0.980785 0.162212
v 0.212608 0.923880 0.318190
v 0.308658 0.831470 0.461940
v 0.392848 0.707107 0.587938
v 0.461940 0.555570 0.691342
v 0.513280 0.382683 0.768178
v 0.544895 0.195090 0.815493
v 0.555570 0.000000 0.831469
v 0.544895 -0.195090 0.815493
v 0.513280 -0.382683 0.768178
v 0.461940 -0.555570 0.691342
v 0.392848 -0.707107 0.587938
v 0.308658 -0.831470 0.461940
v 0.212608 -0.923880 0.318190
v 0.108386 -0.980785 0.162212
v 0.137950 0.980785 0.137950
v 0.270598 0.923880 0.270598
v 0.392848 0.831470 0.392847
v 0.500000 0.707107 0.500000
v 0.587938 0.555570 0.587938
v 0.653281 0.382683 0.653281
v 0.693520 0.195090 0.693520
v 0.707107 0.000000 0.707107
v 0.693520 -0.195090 0.693520
v 0.653282 -0.382683 0.653281
v 0.587938 -0.555570 0.587938
v 0.500000 -0.707107 0.500000
v 0.392848 -0.831470 0.392847
v 0.270598 -0.923880 0.270598
v 0.137950 -0.980785 0.137950
v 0.162212 0.980785 0.108386
v 0.318190 0.923880 0.212607
v 0.461940 0.831470 0.308658
v 0.587938 0.707107 0.392847
v 0.691342 0.555570 0.461940
v 0.768178 0.382683 0.513280
v 0.815493 0.195090 0.544895
v 0.831470 0.000000 0.555570
v 0.815493 -0.195090 0.544895
v 0.768178 -0.382683 0.513280
v 0.691342 -0.555570 0.461940
v 0.587938 -0.707107 0.392847
v 0.461940 -0.831470 0.308658
v 0.318190 -0.923880 0.212608
v 0.162212 -0.980785 0.108386
v 0.180240 0.980785 0.074658
v 0.353554 0.923880 0.146447
v 0.513280 0.831470 0.212607
v 0.653281 0.707107 0.270598
v 0.768178 0.555570 0.318190
v 0.853553 0.382683 0.353553
v 0.906127 0.195090 0.375330
v 0.923879 0.000000 0.382683
v 0.906127 -0.195090 0.375330
v 0.853553 -0.382683 0.353553
v 0.768178 -0.555570 0.318190
v 0.653281 -0.707107 0.270598
v 0.513280 -0.831470 0.212607
v 0.353554 -0.923880 0.146447
v 0.180240 -0.980785 0.074658
v 0.191342 0.980785 0.038060
v 0.375330 0.923880 0.074658
v 0.544895 0.831470 0.108386
v 0.693520 0.707107 0.137950
v 0.815493 0.555570 0.162212
v 0.906127 0.382683 0.180240
v 0.961940 0.195090 0.191342
v 0.980785 0.000000 0.195090
v 0.961940 -0.195090 0.191342
v 0.906128 -0.382683 0.180240
v 0.815493 -0.555570 0.162212
v 0.693520 -0.707107 0.137950
v 0.544895 -0.831470 0.108386
v 0.375330 -0.923880 0.074658
v 0.191342 -0.980785 0.038060
v 0.195090 0.980785 0.000000
v 0.382684 0.923880 0.000000
v 0.555570 0.831470 0.000000
v 0.707107 0.707107 0.000000
v 0.831469 0.555570 0.000000
v 0.923879 0.382683 0.000000
v 0.980785 0.195090 0.000000
v 1.000000 0.000000 0.000000
v 0.980785 -0.195090 0.000000
v 0.923880 -0.382683 0.000000
v 0.831469 -0.555570 0.000000
v 0.707107 -0.707107 0.000000
v 0.555570 -0.831470 0.000000
v 0.382684 -0.923880 0.000000
v 0.195090 -0.980785 0.000000
v 0.191342 0.980785 -0.038060
v 0.375330 0.923880 -0.074658
v 0.544895 0.831470 -0.108386
v 0.693520 0.707107 -0.137950
v 0.815493 0.555570 -0.162212
v 0.906127 0.382683 -0.180240
v 0.961940 0.195090 -0.191342
v 0.980785 0.000000 -0.195090
v 0.961940 -0.195090 -0.191342
v 0.906127 -0.382683 -0.180240
v 0.815493 -0.555570 -0.162212
v 0.693520 -0.707107 -0.137950
v 0.544895 -0.831470 -0.108386
v 0.375330 -0.923880 -0.074658
v 0.191342 -0.980785 -0.038060
v 0.180240 0.980785 -0.074658
v 0.353553 0.923880 -0.146447
v 0.513280 0.831470 -0.212608
v 0.653281 0.707107 -0.270598
v 0.768178 0.555570 -0.318190
v 0.853553 0.382683 -0.353553
v 0.906127 0.195090 -0.375330
v 0.923879 0.000000 -0.382683
v 0.906127 -0.195090 -0.375330
v 0.853553 -0.382683 -0.353554
v 0.768178 -0.555570 -0.318190
v 0.653281 -0.707107 -0.270598
v 0.513280 -0.831470 -0.212608
v 0.353554 -0.923880 -0.146447
v 0.180240 -0.980785 -0.074658
v 0.162212 0.980785 -0.108386
v 0.318190 0.923880 -0.212608
v 0.461940 0.831470 -0.308658
v 0.587938 0.707107 -0.392847
v 0.691341 0.555570 -0.461940
v 0.768178 0.382683 -0.513280
v 0.815493 0.195090 -0.544895
v 0.831469 0.000000 -0.555570
v 0.815493 -0.195090 -0.544895
v 0.768178 -0.382683 -0.513280
v 0.691342 -0.555570 -0.461940
v 0.587938 -0.707107 -0.392847
v 0.461940 -0.831470 -0.308658
v 0.318190 -0.923880 -0.212608
v 0.162212 -0.980785 -0.108386
v 0.137950 0.980785 -0.137950
v 0.270598 0.923880 -0.270598
v 0.392847 0.831470 -0.392847
v 0.500000 0.707107 -0.500000
v 0.587938 0.555570 -0.587938
v 0.653281 0.382683 -0.653281
v 0.693520 0.195090 -0.693520
v 0.707106 0.000000 -0.707107
v 0.693520 -0.195090 -0.693520
v 0.653281 -0.382683 -0.653282
v 0.587938 -0.555570 -0.587938
v 0.500000 -0.707107 -0.500000
v 0.392847 -0.831470 -0.392847
v 0.270598 -0.923880 -0.270598
v 0.137950 -0.980785 -0.137950
v 0.108386 0.980785 -0.162212
v 0.212608 0.923880 -0.318190
v 0.308658 0.831470 -0.461940
v 0.392847 0.707107 -0.587938
v 0.461940 0.555570 -0.691342
v 0.513280 0.382683 -0.768178
v 0.544895 0.195090 -0.815493
v 0.555570 0.000000 -0.831469
v 0.544895 -0.195090 -0.815493
v 0.513280 -0.382683 -0.768178
v 0.461940 -0.555570 -0.691342
v 0.392847 -0.707107 -0.587938
v 0.308658 -0.831470 -0.461940
v 0.212608 -0.923880 -0.318190
v 0.108386 -0.980785 -0.162212
v 0.074658 0.980785 -0.180240
v 0.146447 0.923880 -0.353554
v 0.212607 0.831470 -0.513280
v 0.270598 0.707107 -0.653281
v 0.318190 0.555570 -0.768178
v 0.353553 0.382683 -0.853553
v 0.375330 0.195090 -0.906127
v 0.382683 0.000000 -0.923879
v 0.375330 -0.195090 -0.906127
v 0.353553 -0.382683 -0.853553
v 0.318190 -0.555570 -0.768178
v 0.270598 -0.707107 -0.653281
v 0.212607 -0.831470 -0.513280
v 0.146447 -0.923880 -0.353554
v 0.074658 -0.980785 -0.180240
v 0.038060 0.980785 -0.191342
v 0.074658 0.923880 -0.375330
v 0.108386 0.831470 -0.544895
v 0.137950 0.707107 -0.693520
v 0.162212 0.555570 -0.815493
v 0.180240 0.382683 -0.906127
v 0.191342 0.195090 -0.961939
v 0.195090 0.000000 -0.980785
v 0.191342 -0.195090 -0.961939
v 0.180240 -0.382683 -0.906127
v 0.162212 -0.555570 -0.815493
v 0.137950 -0.707107 -0.693520
v 0.108386 -0.831470 -0.544895
v 0.074658 -0.923880 -0.375330
v 0.038060 -0.980785 -0.191342
v 0.000000 0.980785 -0.195090
v 0.000000 0.923880 -0.382684
v 0.000000 0.831470 -0.555570
v 0.000000 0.707107 -0.707107
v 0.000000 0.555570 -0.831469
v 0.000000 0.382683 -0.923879
v 0.000000 0.195090 -0.980785
v 0.000000 0.000000 -0.999999
v 0.000000 -0.195090 -0.980785
v 0.000000 -0.382683 -0.923880
v 0.000000 -0.555570 -0.831469
v 0.000000 -0.707107 -0.707107
v 0.000000 -0.831470 -0.555570
v 0.000000 -0.923880 -0.382684
v 0.000000 -0.980785 -0.195090
v -0.038060 0.980785 -0.191342
v -0.074658 0.923880 -0.375330
v -0.108386 0.831470 -0.544895
v -0.137950 0.707107 -0.693520
v -0.162212 0.555570 -0.815493
v -0.180240 0.382683 -0.906127
v -0.191342 0.195090 -0.961939
v -0.195090 0.000000 -0.980785
v -0.191342 -0.195090 -0.961939
v -0.180240 -0.382683 -0.906127
v -0.162212 -0.555570 -0.815493
v -0.137950 -0.707107 -0.693520
v -0.108386 -0.831470 -0.544895
v -0.074658 -0.923880 -0.375330
v -0.038060 -0.980785 -0.191342
v -0.074658 0.980785 -0.180240
v -0.146447 0.923880 -0.353553
v -0.212608 0.831470 -0.513280
v -0.270598 0.707107 -0.653281
v -0.318189 0.555570 -0.768177
v -0.353553 0.382683 -0.853553
v -0.375330 0.195090 -0.906127
v -0.382683 0.000000 -0.923879
v -0.375330 -0.195090 -0.906127
v -0.353553 -0.382683 -0.853553
v -0.318190 -0.555570 -0.768178
v -0.270598 -0.707107 -0.653281
v -0.212608 -0.831470 -0.513280
v -0.146447 -0.923880 -0.353553
v -0.074658 -0.980785 -0.180240
v -0.108386 0.980785 -0.162212
v -0.212608 0.923880 -0.318190
v -0.308658 0.831470 -0.461940
v -0.392847 0.707107 -0.587938
v -0.461940 0.555570 -0.691341
v -0.513280 0.382683 -0.768178
v -0.544895 0.195090 -0.815493
v -0.555570 0.000000 -0.831469
v -0.544895 -0.195090 -0.815493
v -0.513280 -0.382683 -0.768178
v -0.461940 -0.555570 -0.691342
v -0.392847 -0.707107 -0.587938
v -0.308658 -0.831470 -0.461940
v -0.212608 -0.923880 -0.318190
v -0.108386 -0.980785 -0.162212
v -0.137950 0.980785 -0.137950
v -0.270598 0.923880 -0.270598
v -0.392847 0.831470 -0.392847
v -0.500000 0.707107 -0.500000
v -0.587937 0.555570 -0.587938
v -0.653281 0.382683 -0.653281
v -0.693520 0.195090 -0.693520
v -0.707106 0.000000 -0.707106
v -0.693520 -0.195090 -0.693520
v -0.653281 -0.382683 -0.653281
v -0.587938 -0.555570 -0.587938
v -0.500000 -0.707107 -0.500000
v -0.392847 -0.831470 -0.392847
v -0.270598 -0.923880 -0.270598
v -0.137950 -0.980785 -0.137950
v -0.162212 0.980785 -0.108386
v -0.318190 0.923880 -0.212608
v -0.461940 0.831470 -0.308658
v -0.587938 0.707107 -0.392847
v -0.691341 0.555570 -0.461940
v -0.768178 0.382683 -0.513280
v -0.815493 0.195090 -0.544895
v -0.831469 0.000000 -0.555569
v -0.815493 -0.195090 -0.544895
v -0.768178 -0.382683 -0.513280
v -0.691341 -0.555570 -0.461940
v -0.587938 -0.707107 -0.392847
v -0.461940 -0.831470 -0.308658
v -0.318190 -0.923880 -0.212608
v -0.162212 -0.980785 -0.108386
v 0.000000 1.000000 0.000000
v -0.180240 0.980785 -0.074658
v -0.353553 0.923880 -0.146447
v -0.513280 0.831470 -0.212607
v -0.653281 0.707107 -0.270598
v -0.768177 0.555570 -0.318190
v -0.853553 0.382683 -0.353553
v -0.906127 0.195090 -0.375330
v -0.923879 0.000000 -0.382683
v -0.906127 -0.195090 -0.375330
v -0.853553 -0.382683 -0.353553
v -0.768177 -0.555570 -0.318190
v -0.653281 -0.707107 -0.270598
v -0.513280 -0.831470 -0.212607
v -0.353553 -0.923880 -0.146447
v -0.180240 -0.980785 -0.074658
v -0.191342 0.980785 -0.038060
v -0.375330 0.923880 -0.074658
v -0.544895 0.831470 -0.108386
v -0.693520 0.707107 -0.137950
v -0.815493 0.555570 -0.162212
v -0.906127 0.382683 -0.180240
v -0.961939 0.195090 -0.191342
v -0.980784 0.000000 -0.195090
v -0.961939 -0.195090 -0.191342
v -0.906127 -0.382683 -0.180240
v -0.815493 -0.555570 -0.162212
v -0.693520 -0.707107 -0.137950
v -0.544895 -0.831470 -0.108386
v -0.375330 -0.923880 -0.074658
v -0.191342 -0.980785 -0.038060
v -0.195090 0.980785 0.000000
v -0.382683 0.923880 0.000000
v -0.555570 0.831470 0.000000
v -0.707107 0.707107 0.000000
v -0.831469 0.555570 0.000000
v -0.923879 0.382683 0.000000
v -0.980785 0.195090 0.000000
v -0.999999 0.000000 0.000000
v -0.980785 -0.195090 0.000000
v -0.923879 -0.382683 0.000000
v -0.831469 -0.555570 -0.000000
v -0.707107 -0.707107 -0.000000
v -0.555570 -0.831470 0.000000
v -0.382683 -0.923880 -0.000000
v -0.195090 -0.980785 -0.000000
v -0.191342 0.980785 0.038060
v -0.375330 0.923880 0.074658
v -0.544895 0.831470 0.108386
v -0.693520 0.707107 0.137950
v -0.815493 0.555570 0.162212
v -0.906127 0.382683 0.180240
v -0.961939 0.195090 0.191342
v -0.980784 0.000000 0.195091
v -0.961939 -0.195090 0.191342
v -0.906127 -0.382683 0.180240
v -0.815493 -0.555570 0.162212
v -0.693520 -0.707107 0.137950
v -0.544895 -0.831470 0.108386
v -0.375330 -0.923880 0.074658
v -0.191342 -0.980785 0.038060
v -0.180240 0.980785 0.074658
v -0.353553 0.923880 0.146447
v -0.513280 0.831470 0.212607
v -0.653281 0.707107 0.270598
v -0.768177 0.555570 0.318189
v -0.853553 0.382683 0.353553
v -0.906127 0.195090 0.375330
v -0.923878 0.000000 0.382683
v -0.906127 -0.195090 0.375330
v -0.853553 -0.382683 0.353553
v -0.768177 -0.555570 0.318189
v -0.653281 -0.707107 0.270598
v -0.513280 -0.831470 0.212607
v -0.353553 -0.923880 0.146446
v -0.180240 -0.980785 0.074658
v -0.162212 0.980785 0.108386
v -0.318189 0.923880 0.212607
v -0.461939 0.831470 0.308658
v -0.587938 0.707107 0.392847
v -0.691341 0.555570 0.461939
v -0.768177 0.382683 0.513280
v -0.815493 0.195090 0.544895
v -0.831469 0.000000 0.555570
v -0.815493 -0.195090 0.544895
v -0.768177 -0.382683 0.513280
v -0.691341 -0.555570 0.461939
v -0.587938 -0.707107 0.392847
v -0.461939 -0.831470 0.308658
v -0.318189 -0.923880 0.212607
v -0.162212 -0.980785 0.108386
v -0.137950 0.980785 0.137950
v -0.270598 0.923880 0.270598
v -0.392847 0.831470 0.392847
v -0.500000 0.707107 0.500000
v -0.587937 0.555570 0.587937
v -0.653281 0.382683 0.653281
v -0.693519 0.195090 0.693520
v -0.707106 0.000000 0.707106
v -0.693519 -0.195090 0.693520
v -0.653281 -0.382683 0.653281
v -0.587937 -0.555570 0.587937
v -0.500000 -0.707107 0.500000
v -0.392847 -0.831470 0.392847
v -0.270598 -0.923880 0.270598
v -0.137950 -0.980785 0.137950
v -0.108386 0.980785 0.162212
v -0.212607 0.923880 0.318189
v -0.308658 0.831470 0.461939
v -0.392847 0.707107 0.587937
v -0.461939 0.555570 0.691341
v -0.513280 0.382683 0.768177
v -0.544895 0.195090 0.815493
v -0.555569 0.000000 0.831469
v -0.544895 -0.195090 0.815493
v -0.513280 -0.382683 0.768178
v -0.461939 -0.555570 0.691341
v -0.392847 -0.707107 0.587937
v -0.308658 -0.831470 0.461939
v -0.212607 -0.923880 0.318189
v -0.108386 -0.980785 0.162212
v -0.074658 0.980785 0.180240
v -0.146446 0.923880 0.353553
v -0.212607 0.831470 0.513279
v -0.270598 0.707107 0.653281
v -0.318189 0.555570 0.768177
v -0.353553 0.382683 0.853553
v -0.375330 0.195090 0.906127
v -0.382683 0.000000 0.923879
v -0.375330 -0.195090 0.906127
v -0.353553 -0.382683 0.853553
v -0.318189 -0.555570 0.768177
v -0.270598 -0.707107 0.653281
v -0.212607 -0.831470 0.513279
v -0.146446 -0.923880 0.353553
v -0.074658 -0.980785 0.180240
v -0.038060 0.980785 0.191342
v -0.074658 0.923880 0.375330
v -0.108386 0.831470 0.544895
v -0.137950 0.707107 0.693520
v -0.162212 0.555570 0.815493
v -0.180240 0.382683 0.906127
v -0.191341 0.195090 0.961939
v -0.195090 0.000000 0.980784
v -0.191341 -0.195090 0.961939
v -0.180240 -0.382683 0.906127
v -0.162212 -0.555570 0.815493
v -0.137950 -0.707107 0.693520
v -0.108386 -0.831470 0.544895
v -0.074658 -0.923880 0.375330
v -0.038060 -0.980785 0.191342
v 0.000001 0.000000 0.999999
v 0.000000 -0.195090 0.980785
v 0.000000 -0.382683 0.923879
v 0.000000 -0.923880 0.382683
v 0.000000 -0.980785 0.195090
v 0.000000 -1.000000 0.000000
# 482 vertices

vt 0.75000 0.12500
vt 0.75000 0.18750
vt 0.71875 0.18750
vt 0.71875 0.12500
vt 0.75000 0.56250
vt 0.75000 0.62500
vt 0.71875 0.62500
vt 0.71875 0.56250
vt 0.75000 0.06250
vt 0.71875 0.06250
vt 0.75000 0.50000
vt 0.71875 0.50000
vt 0.75000 0.93750
vt 0.73438 1.00000
vt 0.71875 0.93750
vt 0.73438 0.00000
vt 0.75000 0.43750
vt 0.71875 0.43750
vt 0.75000 0.87500
vt 0.71875 0.87500
vt 0.75000 0.37500
vt 0.71875 0.37500
vt 0.75000 0.81250
vt 0.71875 0.81250
vt 0.75000 0.31250
vt 0.71875 0.31250
vt 0.75000 0.75000
vt 0.71875 0.75000
vt 0.75000 0.25000
vt 0.71875 0.25000
vt 0.75000 0.68750
vt 0.71875 0.68750
vt 0.68750 0.25000
vt 0.68750 0.18750
vt 0.68750 0.68750
vt 0.68750 0.62500
vt 0.68750 0.12500
vt 0.68750 0.56250
vt 0.68750 0.06250
vt 0.68750 0.50000
vt 0.70312 1.00000
vt 0.68750 0.93750
vt 0.70312 0.00000
vt 0.68750 0.43750
vt 0.68750 0.87500
vt 0.68750 0.37500
vt 0.68750 0.81250
vt 0.68750 0.31250
vt 0.68750 0.75000
vt 0.65625 0.93750
vt 0.65625 0.87500
vt 0.65625 0.43750
vt 0.65625 0.37500
vt 0.65625 0.81250
vt 0.65625 0.31250
vt 0.65625 0.75000
vt 0.65625 0.25000
vt 0.65625 0.68750
vt 0.65625 0.18750
vt 0.65625 0.62500
vt 0.65625 0.12500
vt 0.65625 0.56250
vt 0.65625 0.06250
vt 0.65625 0.50000
vt 0.67188 1.00000
vt 0.67188 0.00000
vt 0.62500 0.68750
vt 0.62500 0.62500
vt 0.62500 0.18750
vt 0.62500 0.12500
vt 0.62500 0.56250
vt 0.62500 0.06250
vt 0.62500 0.50000
vt 0.64062 1.00000
vt 0.62500 0.93750
vt 0.64062 0.00000
vt 0.62500 0.43750
vt 0.62500 0.87500
vt 0.62500 0.37500
vt 0.62500 0.81250
vt 0.62500 0.31250
vt 0.62500 0.75000
vt 0.62500 0.25000
vt 0.59375 0.43750
vt 0.59375 0.37500
vt 0.59375 0.87500
vt 0.59375 0.81250
vt 0.59375 0.31250
vt 0.59375 0.75000
vt 0.59375 0.25000
vt 0.59375 0.68750
vt 0.59375 0.18750
vt 0.59375 0.62500
vt 0.59375 0.12500
vt 0.59375 0.56250
vt 0.59375 0.06250
vt 0.59375 0.50000
vt 0.60938 1.00000
vt 0.59375 0.93750
vt 0.60938 0.00000
vt 0.56250 0.18750
vt 0.56250 0.12500
vt 0.56250 0.62500
vt 0.56250 0.56250
vt 0.56250 0.06250
vt 0.56250 0.50000
vt 0.57812 1.00000
vt 0.56250 0.93750
vt 0.57812 0.00000
vt 0.56250 0.43750
vt 0.56250 0.87500
vt 0.56250 0.37500
vt 0.56250 0.81250
vt 0.56250 0.31250
vt 0.56250 0.75000
vt 0.56250 0.25000
vt 0.56250 0.68750
vt 0.53125 0.87500
vt 0.53125 0.81250
vt 0.53125 0.37500
vt 0.53125 0.31250
vt 0.53125 0.75000
vt 0.53125 0.25000
vt 0.53125 0.68750
vt 0.53125 0.18750
vt 0.53125 0.62500
vt 0.53125 0.12500
vt 0.53125 0.56250
vt 0.53125 0.06250
vt 0.53125 0.50000
vt 0.54688 1.00000
vt 0.53125 0.93750
vt 0.54688 0.00000
vt 0.53125 0.43750
vt 0.50000 0.62500
vt 0.50000 0.56250
vt 0.50000 0.12500
vt 0.50000 0.06250
vt 0.50000 0.50000
vt 0.51562 1.00000
vt 0.50000 0.93750
vt 0.51562 0.00000
vt 0.50000 0.43750
vt 0.50000 0.87500
vt 0.50000 0.37500
vt 0.50000 0.81250
vt 0.50000 0.31250
vt 0.50000 0.75000
vt 0.50000 0.25000
vt 0.50000 0.68750
vt 0.50000 0.18750
vt 0.46875 0.37500
vt 0.46875 0.31250
vt 0.46875 0.81250
vt 0.46875 0.75000
vt 0.46875 0.25000
vt 0.46875 0.68750
vt 0.46875 0.18750
vt 0.46875 0.62500
vt 0.46875 0.12500
vt 0.46875 0.56250
vt 0.46875 0.06250
vt 0.46875 0.50000
vt 0.48438 1.00000
vt 0.46875 0.93750
vt 0.48438 0.00000
vt 0.46875 0.43750
vt 0.46875 0.87500
vt 0.43750 0.12500
vt 0.43750 0.06250
vt 0.43750 0.56250
vt 0.43750 0.50000
vt 0.45312 1.00000
vt 0.43750 0.93750
vt 0.45312 0.00000
vt 0.43750 0.43750
vt 0.43750 0.87500
vt 0.43750 0.37500
vt 0.43750 0.81250
vt 0.43750 0.31250
vt 0.43750 0.75000
vt 0.43750 0.25000
vt 0.43750 0.68750
vt 0.43750 0.18750
vt 0.43750 0.62500
vt 0.40625 0.31250
vt 0.40625 0.25000
vt 0.40625 0.75000
vt 0.40625 0.68750
vt 0.40625 0.18750
vt 0.40625 0.62500
vt 0.40625 0.12500
vt 0.40625 0.56250
vt 0.40625 0.06250
vt 0.40625 0.50000
vt 0.42188 1.00000
vt 0.40625 0.93750
vt 0.42188 0.00000
vt 0.40625 0.43750
vt 0.40625 0.87500
vt 0.40625 0.37500
vt 0.40625 0.81250
vt 0.39062 1.00000
vt 0.37500 0.93750
vt 0.39062 0.00000
vt 0.37500 0.06250
vt 0.37500 0.50000
vt 0.37500 0.43750
vt 0.37500 0.87500
vt 0.37500 0.37500
vt 0.37500 0.81250
vt 0.37500 0.31250
vt 0.37500 0.75000
vt 0.37500 0.25000
vt 0.37500 0.68750
vt 0.37500 0.18750
vt 0.37500 0.62500
vt 0.37500 0.12500
vt 0.37500 0.56250
vt 0.34375 0.75000
vt 0.34375 0.68750
vt 0.34375 0.25000
vt 0.34375 0.18750
vt 0.34375 0.62500
vt 0.34375 0.12500
vt 0.34375 0.56250
vt 0.34375 0.06250
vt 0.34375 0.50000
vt 0.35938 1.00000
vt 0.34375 0.93750
vt 0.35938 0.00000
vt 0.34375 0.43750
vt 0.34375 0.87500
vt 0.34375 0.37500
vt 0.34375 0.81250
vt 0.34375 0.31250
vt 0.31250 0.50000
vt 0.31250 0.43750
vt 0.31250 0.93750
vt 0.31250 0.87500
vt 0.31250 0.37500
vt 0.31250 0.81250
vt 0.31250 0.31250
vt 0.31250 0.75000
vt 0.31250 0.25000
vt 0.31250 0.68750
vt 0.31250 0.18750
vt 0.31250 0.62500
vt 0.31250 0.12500
vt 0.31250 0.56250
vt 0.31250 0.06250
vt 0.32812 1.00000
vt 0.32812 0.00000
vt 0.28125 0.25000
vt 0.28125 0.18750
vt 0.28125 0.68750
vt 0.28125 0.62500
vt 0.28125 0.12500
vt 0.28125 0.56250
vt 0.28125 0.06250
vt 0.28125 0.50000
vt 0.29688 1.00000
vt 0.28125 0.93750
vt 0.29688 0.00000
vt 0.28125 0.43750
vt 0.28125 0.87500
vt 0.28125 0.37500
vt 0.28125 0.81250
vt 0.28125 0.31250
vt 0.28125 0.75000
vt 0.25000 0.93750
vt 0.25000 0.87500
vt 0.25000 0.43750
vt 0.25000 0.37500
vt 0.25000 0.81250
vt 0.25000 0.31250
vt 0.25000 0.75000
vt 0.25000 0.25000
vt 0.25000 0.68750
vt 0.25000 0.18750
vt 0.25000 0.62500
vt 0.25000 0.12500
vt 0.25000 0.56250
vt 0.25000 0.06250
vt 0.25000 0.50000
vt 0.26562 1.00000
vt 0.26562 0.00000
vt 0.21875 0.68750
vt 0.21875 0.62500
vt 0.21875 0.18750
vt 0.21875 0.12500
vt 0.21875 0.56250
vt 0.21875 0.06250
vt 0.21875 0.50000
vt 0.23438 1.00000
vt 0.21875 0.93750
vt 0.23438 0.00000
vt 0.21875 0.43750
vt 0.21875 0.87500
vt 0.21875 0.37500
vt 0.21875 0.81250
vt 0.21875 0.31250
vt 0.21875 0.75000
vt 0.21875 0.25000
vt 0.18750 0.43750
vt 0.18750 0.37500
vt 0.18750 0.87500
vt 0.18750 0.81250
vt 0.18750 0.31250
vt 0.18750 0.75000
vt 0.18750 0.25000
vt 0.18750 0.68750
vt 0.18750 0.18750
vt 0.18750 0.62500
vt 0.18750 0.12500
vt 0.18750 0.56250
vt 0.18750 0.06250
vt 0.18750 0.50000
vt 0.20312 1.00000
vt 0.18750 0.93750
vt 0.20312 0.00000
vt 0.15625 0.18750
vt 0.15625 0.12500
vt 0.15625 0.62500
vt 0.15625 0.56250
vt 0.15625 0.06250
vt 0.15625 0.50000
vt 0.17188 1.00000
vt 0.15625 0.93750
vt 0.17188 0.00000
vt 0.15625 0.43750
vt 0.15625 0.87500
vt 0.15625 0.37500
vt 0.15625 0.81250
vt 0.15625 0.31250
vt 0.15625 0.75000
vt 0.15625 0.25000
vt 0.15625 0.68750
vt 0.12500 0.37500
vt 0.12500 0.31250
vt 0.12500 0.81250
vt 0.12500 0.75000
vt 0.12500 0.25000
vt 0.12500 0.68750
vt 0.12500 0.18750
vt 0.12500 0.62500
vt 0.12500 0.12500
vt 0.12500 0.56250
vt 0.12500 0.06250
vt 0.12500 0.50000
vt 0.14062 1.00000
vt 0.12500 0.93750
vt 0.14062 0.00000
vt 0.12500 0.43750
vt 0.12500 0.87500
vt 0.09375 0.12500
vt 0.09375 0.06250
vt 0.09375 0.56250
vt 0.09375 0.50000
vt 0.10938 1.00000
vt 0.09375 0.93750
vt 0.10938 0.00000
vt 0.09375 0.43750
vt 0.09375 0.87500
vt 0.09375 0.37500
vt 0.09375 0.81250
vt 0.09375 0.31250
vt 0.09375 0.75000
vt 0.09375 0.25000
vt 0.09375 0.68750
vt 0.09375 0.18750
vt 0.09375 0.62500
vt 0.06250 0.81250
vt 0.06250 0.75000
vt 0.06250 0.31250
vt 0.06250 0.25000
vt 0.06250 0.68750
vt 0.06250 0.18750
vt 0.06250 0.62500
vt 0.06250 0.12500
vt 0.06250 0.56250
vt 0.06250 0.06250
vt 0.06250 0.50000
vt 0.07812 1.00000
vt 0.06250 0.93750
vt 0.07812 0.00000
vt 0.06250 0.43750
vt 0.06250 0.87500
vt 0.06250 0.37500
vt 0.03125 0.56250
vt 0.03125 0.50000
vt 0.04688 1.00000
vt 0.03125 0.93750
vt 0.04688 0.00000
vt 0.03125 0.06250
vt 0.03125 0.43750
vt 0.03125 0.87500
vt 0.03125 0.37500
vt 0.03125 0.81250
vt 0.03125 0.31250
vt 0.03125 0.75000
vt 0.03125 0.25000
vt 0.03125 0.68750
vt 0.03125 0.18750
vt 0.03125 0.62500
vt 0.03125 0.12500
vt 0.00000 0.31250
vt 0.00000 0.25000
vt 0.00000 0.75000
vt 0.00000 0.68750
vt 0.00000 0.18750
vt 0.00000 0.62500
vt 0.00000 0.12500
vt 0.00000 0.56250
vt 0.00000 0.06250
vt 0.00000 0.50000
vt 0.01562 1.00000
vt 0.00000 0.93750
vt 0.01562 0.00000
vt 0.00000 0.43750
vt 0.00000 0.87500
vt 0.00000 0.37500
vt 0.00000 0.81250
vt 1.00000 0.93750
vt 0.98438 1.00000
vt 0.96875 0.93750
vt 0.98438 0.00000
vt 1.00000 0.06250
vt 0.96875 0.06250
vt 1.00000 0.43750
vt 1.00000 0.50000
vt 0.96875 0.50000
vt 0.96875 0.43750
vt 1.00000 0.87500
vt 0.96875 0.87500
vt 1.00000 0.37500
vt 0.96875 0.37500
vt 1.00000 0.81250
vt 0.96875 0.81250
vt 1.00000 0.31250
vt 0.96875 0.31250
vt 1.00000 0.75000
vt 0.96875 0.75000
vt 1.00000 0.25000
vt 0.96875 0.25000
vt 1.00000 0.68750
vt 0.96875 0.68750
vt 1.00000 0.18750
vt 0.96875 0.18750
vt 1.00000 0.62500
vt 0.96875 0.62500
vt 1.00000 0.12500
vt 0.96875 0.12500
vt 1.00000 0.56250
vt 0.96875 0.56250
vt 0.93750 0.75000
vt 0.93750 0.68750
vt 0.93750 0.25000
vt 0.93750 0.18750
vt 0.93750 0.62500
vt 0.93750 0.12500
vt 0.93750 0.56250
vt 0.93750 0.06250
vt 0.93750 0.50000
vt 0.95312 1.00000
vt 0.93750 0.93750
vt 0.95312 0.00000
vt 0.93750 0.43750
vt 0.93750 0.87500
vt 0.93750 0.37500
vt 0.93750 0.81250
vt 0.93750 0.31250
vt 0.90625 0.50000
vt 0.90625 0.43750
vt 0.90625 0.93750
vt 0.90625 0.87500
vt 0.90625 0.37500
vt 0.90625 0.81250
vt 0.90625 0.31250
vt 0.90625 0.75000
vt 0.90625 0.25000
vt 0.90625 0.68750
vt 0.90625 0.18750
vt 0.90625 0.62500
vt 0.90625 0.12500
vt 0.90625 0.56250
vt 0.90625 0.06250
vt 0.92188 1.00000
vt 0.92188 0.00000
vt 0.87500 0.25000
vt 0.87500 0.18750
vt 0.87500 0.68750
vt 0.87500 0.62500
vt 0.87500 0.12500
vt 0.87500 0.56250
vt 0.87500 0.06250
vt 0.87500 0.50000
vt 0.89062 1.00000
vt 0.87500 0.93750
vt 0.89062 0.00000
vt 0.87500 0.43750
vt 0.87500 0.87500
vt 0.87500 0.37500
vt 0.87500 0.81250
vt 0.87500 0.31250
vt 0.87500 0.75000
vt 0.84375 0.43750
vt 0.84375 0.37500
vt 0.84375 0.87500
vt 0.84375 0.81250
vt 0.84375 0.31250
vt 0.84375 0.75000
vt 0.84375 0.25000
vt 0.84375 0.68750
vt 0.84375 0.18750
vt 0.84375 0.62500
vt 0.84375 0.12500
vt 0.84375 0.56250
vt 0.84375 0.06250
vt 0.84375 0.50000
vt 0.85938 1.00000
vt 0.84375 0.93750
vt 0.85938 0.00000
vt 0.81250 0.18750
vt 0.81250 0.12500
vt 0.81250 0.62500
vt 0.81250 0.56250
vt 0.81250 0.06250
vt 0.81250 0.50000
vt 0.82812 1.00000
vt 0.81250 0.93750
vt 0.82812 0.00000
vt 0.81250 0.43750
vt 0.81250 0.87500
vt 0.81250 0.37500
vt 0.81250 0.81250
vt 0.81250 0.31250
vt 0.81250 0.75000
vt 0.81250 0.25000
vt 0.81250 0.68750
vt 0.78125 0.87500
vt 0.78125 0.81250
vt 0.78125 0.37500
vt 0.78125 0.31250
vt 0.78125 0.75000
vt 0.78125 0.25000
vt 0.78125 0.68750
vt 0.78125 0.18750
vt 0.78125 0.62500
vt 0.78125 0.12500
vt 0.78125 0.56250
vt 0.78125 0.06250
vt 0.78125 0.50000
vt 0.79688 1.00000
vt 0.78125 0.93750
vt 0.79688 0.00000
vt 0.78125 0.43750
vt 0.76562 1.00000
vt 0.76562 0.00000
# 559 texture vertices

vn -0.00000 -0.92171 0.38788
vn 0.00000 -0.82865 0.55977
vn 0.10921 -0.82865 0.54902
vn 0.07567 -0.92171 0.38043
vn -0.00000 0.19393 0.98102
vn -0.00000 0.38054 0.92477
vn 0.18041 0.38054 0.90700
vn 0.19139 0.19393 0.96217
vn -0.00000 -0.97960 0.20096
vn 0.03921 -0.97960 0.19710
vn -0.00000 0.00000 1.00000
vn 0.19509 0.00000 0.98079
vn 0.00000 0.97960 0.20096
vn -0.00000 1.00000 -0.00000
vn 0.03921 0.97960 0.19710
vn -0.00000 -1.00000 -0.00000
vn -0.00000 -0.19393 0.98102
vn 0.19139 -0.19393 0.96217
vn 0.00000 0.92171 0.38788
vn 0.07567 0.92171 0.38043
vn -0.00000 -0.38054 0.92477
vn 0.18041 -0.38054 0.90700
vn 0.00000 0.82865 0.55977
vn 0.10921 0.82865 0.54902
vn -0.00000 -0.55276 0.83334
vn 0.16258 -0.55276 0.81733
vn 0.00000 0.70406 0.71014
vn 0.13854 0.70406 0.69649
vn 0.00000 -0.70406 0.71014
vn 0.13854 -0.70406 0.69649
vn -0.00000 0.55276 0.83334
vn 0.16258 0.55276 0.81733
vn 0.27176 -0.70406 0.65608
vn 0.21422 -0.82865 0.51716
vn 0.31890 0.55276 0.76991
vn 0.35389 0.38054 0.85437
vn 0.14844 -0.92171 0.35836
vn 0.37542 0.19393 0.90634
vn 0.07691 -0.97960 0.18567
vn 0.38268 -0.00000 0.92388
vn 0.07691 0.97960 0.18567
vn 0.37542 -0.19393 0.90634
vn 0.14844 0.92171 0.35836
vn 0.35389 -0.38054 0.85437
vn 0.21422 0.82865 0.51716
vn 0.31890 -0.55276 0.76991
vn 0.27176 0.70406 0.65608
vn 0.11165 0.97960 0.16710
vn 0.21550 0.92171 0.32251
vn 0.54502 -0.19393 0.81569
vn 0.51377 -0.38054 0.76892
vn 0.31099 0.82865 0.46543
vn 0.46298 -0.55276 0.69290
vn 0.39453 0.70406 0.59046
vn 0.39453 -0.70406 0.59046
vn 0.46298 0.55276 0.69290
vn 0.31099 -0.82865 0.46543
vn 0.51377 0.38054 0.76891
vn 0.21550 -0.92171 0.32251
vn 0.54502 0.19393 0.81569
vn 0.11165 -0.97960 0.16710
vn 0.55557 -0.00000 0.83147
vn 0.58926 0.55276 0.58926
vn 0.65391 0.38054 0.65391
vn 0.39582 -0.82865 0.39582
vn 0.27427 -0.92171 0.27427
vn 0.69368 0.19393 0.69368
vn 0.14210 -0.97960 0.14210
vn 0.70711 0.00000 0.70711
vn 0.14210 0.97960 0.14210
vn 0.69368 -0.19393 0.69368
vn 0.27427 0.92171 0.27427
vn 0.65391 -0.38054 0.65391
vn 0.39582 0.82865 0.39582
vn 0.58926 -0.55276 0.58926
vn 0.50215 0.70406 0.50214
vn 0.50215 -0.70406 0.50214
vn 0.81569 -0.19393 0.54502
vn 0.76892 -0.38054 0.51377
vn 0.32251 0.92171 0.21550
vn 0.46543 0.82865 0.31099
vn 0.69290 -0.55276 0.46298
vn 0.59046 0.70406 0.39453
vn 0.59046 -0.70406 0.39453
vn 0.69290 0.55276 0.46298
vn 0.46543 -0.82865 0.31099
vn 0.76891 0.38054 0.51377
vn 0.32251 -0.92171 0.21550
vn 0.81569 0.19393 0.54502
vn 0.16710 -0.97960 0.11165
vn 0.83147 0.00000 0.55557
vn 0.16710 0.97960 0.11165
vn 0.51716 -0.82865 0.21422
vn 0.35836 -0.92171 0.14844
vn 0.85437 0.38054 0.35389
vn 0.90634 0.19393 0.37542
vn 0.18567 -0.97960 0.07691
vn 0.92388 -0.00000 0.38268
vn 0.18567 0.97960 0.07691
vn 0.90634 -0.19393 0.37542
vn 0.35836 0.92171 0.14844
vn 0.85437 -0.38054 0.35389
vn 0.51716 0.82865 0.21422
vn 0.76991 -0.55276 0.31891
vn 0.65608 0.70406 0.27176
vn 0.65608 -0.70406 0.27176
vn 0.76991 0.55276 0.31890
vn 0.38043 0.92171 0.07567
vn 0.54902 0.82865 0.10921
vn 0.90700 -0.38054 0.18041
vn 0.81733 -0.55276 0.16258
vn 0.69650 0.70406 0.13854
vn 0.69650 -0.70406 0.13854
vn 0.81733 0.55276 0.16258
vn 0.54902 -0.82865 0.10921
vn 0.90700 0.38054 0.18041
vn 0.38043 -0.92171 0.07567
vn 0.96217 0.19393 0.19139
vn 0.19710 -0.97960 0.03921
vn 0.98079 0.00000 0.19509
vn 0.19710 0.97960 0.03921
vn 0.96217 -0.19393 0.19139
vn 0.92477 0.38054 0.00000
vn 0.98102 0.19393 0.00000
vn 0.38788 -0.92171 0.00000
vn 0.20096 -0.97960 0.00000
vn 1.00000 -0.00000 0.00000
vn 0.20096 0.97960 -0.00000
vn 0.98102 -0.19393 -0.00000
vn 0.38788 0.92171 0.00000
vn 0.92477 -0.38054 -0.00000
vn 0.55977 0.82865 0.00000
vn 0.83334 -0.55276 -0.00000
vn 0.71014 0.70406 -0.00000
vn 0.71014 -0.70406 -0.00000
vn 0.83334 0.55276 0.00000
vn 0.55977 -0.82865 -0.00000
vn 0.90700 -0.38054 -0.18041
vn 0.81733 -0.55276 -0.16258
vn 0.54902 0.82865 -0.10921
vn 0.69650 0.70406 -0.13854
vn 0.69650 -0.70406 -0.13854
vn 0.81733 0.55276 -0.16258
vn 0.54902 -0.82865 -0.10921
vn 0.90700 0.38054 -0.18041
vn 0.38043 -0.92171 -0.07567
vn 0.96217 0.19393 -0.19139
vn 0.19710 -0.97960 -0.03921
vn 0.98079 -0.00000 -0.19509
vn 0.19710 0.97960 -0.03921
vn 0.96217 -0.19393 -0.19139
vn 0.38043 0.92171 -0.07567
vn 0.35836 -0.92171 -0.14844
vn 0.18567 -0.97960 -0.07691
vn 0.90634 0.19393 -0.37542
vn 0.92388 -0.00000 -0.38268
vn 0.18567 0.97960 -0.07691
vn 0.90634 -0.19393 -0.37542
vn 0.35836 0.92171 -0.14844
vn 0.85437 -0.38054 -0.35389
vn 0.51716 0.82865 -0.21422
vn 0.76991 -0.55276 -0.31890
vn 0.65608 0.70406 -0.27176
vn 0.65608 -0.70406 -0.27176
vn 0.76991 0.55276 -0.31891
vn 0.51716 -0.82865 -0.21422
vn 0.85437 0.38054 -0.35389
vn 0.69290 -0.55276 -0.46298
vn 0.59046 -0.70406 -0.39453
vn 0.59046 0.70406 -0.39453
vn 0.69290 0.55276 -0.46298
vn 0.46543 -0.82865 -0.31099
vn 0.76891 0.38054 -0.51377
vn 0.32251 -0.92171 -0.21550
vn 0.81569 0.19393 -0.54502
vn 0.16710 -0.97960 -0.11165
vn 0.83147 -0.00000 -0.55557
vn 0.16710 0.97960 -0.11165
vn 0.81569 -0.19393 -0.54502
vn 0.32251 0.92171 -0.21550
vn 0.76892 -0.38054 -0.51377
vn 0.46543 0.82865 -0.31099
vn 0.14210 0.97960 -0.14210
vn 0.14210 -0.97960 -0.14210
vn 0.70711 -0.00000 -0.70711
vn 0.69368 -0.19393 -0.69368
vn 0.27427 0.92171 -0.27427
vn 0.65391 -0.38054 -0.65391
vn 0.39582 0.82865 -0.39582
vn 0.58926 -0.55276 -0.58926
vn 0.50214 0.70406 -0.50214
vn 0.50214 -0.70406 -0.50214
vn 0.58926 0.55276 -0.58926
vn 0.39582 -0.82865 -0.39582
vn 0.65391 0.38054 -0.65391
vn 0.27427 -0.92171 -0.27427
vn 0.69368 0.19393 -0.69368
vn 0.39453 0.70406 -0.59046
vn 0.46298 0.55276 -0.69290
vn 0.39453 -0.70406 -0.59046
vn 0.31099 -0.82865 -0.46543
vn 0.51377 0.38054 -0.76891
vn 0.21550 -0.92171 -0.32251
vn 0.54502 0.19393 -0.81569
vn 0.11165 -0.97960 -0.16710
vn 0.55557 0.00000 -0.83147
vn 0.11165 0.97960 -0.16710
vn 0.54502 -0.19393 -0.81569
vn 0.21550 0.92171 -0.32251
vn 0.51377 -0.38054 -0.76892
vn 0.31099 0.82865 -0.46543
vn 0.46298 -0.55276 -0.69290
vn 0.38268 0.00000 -0.92388
vn 0.37542 -0.19393 -0.90634
vn 0.07691 0.97960 -0.18567
vn 0.14844 0.92171 -0.35836
vn 0.35389 -0.38054 -0.85437
vn 0.21422 0.82865 -0.51716
vn 0.31890 -0.55276 -0.76991
vn 0.27176 0.70406 -0.65608
vn 0.27176 -0.70406 -0.65608
vn 0.31890 0.55276 -0.76991
vn 0.21422 -0.82865 -0.51716
vn 0.35389 0.38054 -0.85437
vn 0.14844 -0.92171 -0.35836
vn 0.37542 0.19393 -0.90634
vn 0.07691 -0.97960 -0.18567
vn 0.13854 -0.70406 -0.69650
vn 0.10921 -0.82865 -0.54902
vn 0.16258 0.55276 -0.81733
vn 0.18041 0.38054 -0.90700
vn 0.07567 -0.92171 -0.38043
vn 0.19139 0.19393 -0.96217
vn 0.03921 -0.97960 -0.19710
vn 0.19509 -0.00000 -0.98079
vn 0.03921 0.97960 -0.19710
vn 0.19139 -0.19393 -0.96217
vn 0.07567 0.92171 -0.38043
vn 0.18041 -0.38054 -0.90700
vn 0.10921 0.82865 -0.54902
vn 0.16258 -0.55276 -0.81733
vn 0.13854 0.70406 -0.69650
vn -0.00000 0.97960 -0.20096
vn 0.00000 0.92171 -0.38788
vn 0.00000 -0.19393 -0.98102
vn 0.00000 -0.38054 -0.92477
vn 0.00000 0.82865 -0.55977
vn 0.00000 -0.55276 -0.83334
vn -0.00000 0.70406 -0.71014
vn 0.00000 -0.70406 -0.71014
vn -0.00000 0.55276 -0.83334
vn 0.00000 -0.82865 -0.55977
vn 0.00000 0.38054 -0.92477
vn 0.00000 -0.92171 -0.38788
vn 0.00000 0.19393 -0.98102
vn 0.00000 -0.97960 -0.20096
vn 0.00000 -0.00000 -1.00000
vn -0.16258 0.55276 -0.81733
vn -0.18041 0.38054 -0.90700
vn -0.10921 -0.82865 -0.54902
vn -0.07567 -0.92171 -0.38043
vn -0.19139 0.19393 -0.96217
vn -0.03921 -0.97960 -0.19710
vn -0.19509 0.00000 -0.98079
vn -0.03921 0.97960 -0.19710
vn -0.19139 -0.19393 -0.96217
vn -0.07567 0.92171 -0.38043
vn -0.18041 -0.38054 -0.90700
vn -0.10921 0.82865 -0.54902
vn -0.16258 -0.55276 -0.81733
vn -0.13854 0.70406 -0.69650
vn -0.13854 -0.70406 -0.69650
vn -0.37542 -0.19393 -0.90634
vn -0.35389 -0.38054 -0.85437
vn -0.14844 0.92171 -0.35836
vn -0.21422 0.82865 -0.51716
vn -0.31890 -0.55276 -0.76991
vn -0.27176 0.70406 -0.65608
vn -0.27176 -0.70406 -0.65608
vn -0.31891 0.55276 -0.76991
vn -0.21422 -0.82865 -0.51716
vn -0.35389 0.38054 -0.85437
vn -0.14844 -0.92171 -0.35836
vn -0.37542 0.19393 -0.90634
vn -0.07691 -0.97960 -0.18567
vn -0.38268 -0.00000 -0.92388
vn -0.07691 0.97960 -0.18567
vn -0.31099 -0.82865 -0.46543
vn -0.21550 -0.92171 -0.32251
vn -0.51377 0.38054 -0.76891
vn -0.54502 0.19393 -0.81569
vn -0.11165 -0.97960 -0.16710
vn -0.55557 -0.00000 -0.83147
vn -0.11165 0.97960 -0.16710
vn -0.54502 -0.19393 -0.81569
vn -0.21550 0.92171 -0.32251
vn -0.51377 -0.38054 -0.76891
vn -0.31099 0.82865 -0.46543
vn -0.46298 -0.55276 -0.69290
vn -0.39453 0.70406 -0.59046
vn -0.39453 -0.70406 -0.59046
vn -0.46298 0.55276 -0.69290
vn -0.65391 -0.38054 -0.65391
vn -0.58926 -0.55276 -0.58926
vn -0.39582 0.82865 -0.39582
vn -0.50215 0.70406 -0.50215
vn -0.50215 -0.70406 -0.50214
vn -0.58926 0.55276 -0.58926
vn -0.39582 -0.82865 -0.39582
vn -0.65391 0.38054 -0.65391
vn -0.27427 -0.92171 -0.27427
vn -0.69368 0.19393 -0.69368
vn -0.14210 -0.97960 -0.14210
vn -0.70711 0.00000 -0.70711
vn -0.14210 0.97960 -0.14210
vn -0.69368 -0.19393 -0.69368
vn -0.27427 0.92171 -0.27427
vn -0.32251 -0.92171 -0.21550
vn -0.16710 -0.97960 -0.11165
vn -0.81569 0.19393 -0.54502
vn -0.83147 0.00000 -0.55557
vn -0.16710 0.97960 -0.11165
vn -0.81569 -0.19393 -0.54502
vn -0.32251 0.92171 -0.21550
vn -0.76891 -0.38054 -0.51377
vn -0.46543 0.82865 -0.31099
vn -0.69290 -0.55276 -0.46298
vn -0.59046 0.70406 -0.39453
vn -0.59046 -0.70406 -0.39453
vn -0.69290 0.55276 -0.46298
vn -0.46543 -0.82865 -0.31099
vn -0.76891 0.38054 -0.51377
vn -0.51716 0.82865 -0.21422
vn -0.65608 0.70406 -0.27176
vn -0.76990 -0.55276 -0.31891
vn -0.65608 -0.70406 -0.27176
vn -0.76990 0.55276 -0.31891
vn -0.51716 -0.82865 -0.21422
vn -0.85437 0.38054 -0.35389
vn -0.35836 -0.92171 -0.14844
vn -0.90634 0.19393 -0.37542
vn -0.18567 -0.97960 -0.07691
vn -0.92388 0.00000 -0.38268
vn -0.18567 0.97960 -0.07691
vn -0.90634 -0.19393 -0.37542
vn -0.35836 0.92171 -0.14844
vn -0.85437 -0.38054 -0.35389
vn -0.96217 0.19393 -0.19139
vn -0.98079 -0.00000 -0.19509
vn -0.19710 0.97960 -0.03921
vn -0.19710 -0.97960 -0.03921
vn -0.96217 -0.19393 -0.19139
vn -0.38043 0.92171 -0.07567
vn -0.90700 -0.38054 -0.18041
vn -0.54902 0.82865 -0.10921
vn -0.81733 -0.55276 -0.16258
vn -0.69650 0.70406 -0.13854
vn -0.69650 -0.70406 -0.13854
vn -0.81733 0.55276 -0.16258
vn -0.54902 -0.82865 -0.10921
vn -0.90700 0.38054 -0.18041
vn -0.38043 -0.92171 -0.07567
vn -0.83334 -0.55276 0.00000
vn -0.71014 -0.70406 0.00000
vn -0.71014 0.70406 0.00000
vn -0.83334 0.55276 0.00000
vn -0.55977 -0.82865 0.00000
vn -0.92477 0.38054 -0.00000
vn -0.38788 -0.92171 -0.00000
vn -0.98102 0.19393 -0.00000
vn -0.20096 -0.97960 -0.00000
vn -1.00000 -0.00000 -0.00000
vn -0.20096 0.97960 0.00000
vn -0.98102 -0.19393 -0.00000
vn -0.38788 0.92171 0.00000
vn -0.92477 -0.38054 0.00000
vn -0.55977 0.82865 0.00000
vn -0.19710 0.97960 0.03921
vn -0.19710 -0.97960 0.03921
vn -0.98079 -0.00000 0.19509
vn -0.96217 -0.19393 0.19139
vn -0.38043 0.92171 0.07567
vn -0.90700 -0.38054 0.18041
vn -0.54902 0.82865 0.10921
vn -0.81733 -0.55276 0.16258
vn -0.69650 0.70406 0.13854
vn -0.69650 -0.70406 0.13854
vn -0.81733 0.55276 0.16258
vn -0.54902 -0.82865 0.10921
vn -0.90700 0.38054 0.18041
vn -0.38043 -0.92171 0.07567
vn -0.96217 0.19393 0.19139
vn -0.65608 0.70406 0.27176
vn -0.76990 0.55276 0.31891
vn -0.65608 -0.70406 0.27176
vn -0.51716 -0.82865 0.21422
vn -0.85437 0.38054 0.35389
vn -0.35836 -0.92171 0.14844
vn -0.90634 0.19393 0.37542
vn -0.18567 -0.97960 0.07691
vn -0.92388 -0.00000 0.38268
vn -0.18567 0.97960 0.07691
vn -0.90634 -0.19393 0.37542
vn -0.35836 0.92171 0.14844
vn -0.85437 -0.38054 0.35389
vn -0.51716 0.82865 0.21422
vn -0.76990 -0.55276 0.31891
vn -0.83147 0.00000 0.55557
vn -0.81568 -0.19393 0.54502
vn -0.16710 0.97960 0.11165
vn -0.32251 0.92171 0.21550
vn -0.76891 -0.38054 0.51377
vn -0.46543 0.82865 0.31099
vn -0.69290 -0.55276 0.46298
vn -0.59046 0.70406 0.39453
vn -0.59046 -0.70406 0.39453
vn -0.69290 0.55276 0.46298
vn -0.46543 -0.82865 0.31099
vn -0.76891 0.38054 0.51377
vn -0.32251 -0.92171 0.21550
vn -0.81568 0.19393 0.54502
vn -0.16710 -0.97960 0.11165
vn -0.50214 -0.70406 0.50215
vn -0.39582 -0.82865 0.39582
vn -0.58926 0.55276 0.58926
vn -0.65391 0.38054 0.65391
vn -0.27427 -0.92171 0.27427
vn -0.69368 0.19393 0.69368
vn -0.14210 -0.97960 0.14210
vn -0.70711 0.00000 0.70711
vn -0.14210 0.97960 0.14210
vn -0.69368 -0.19393 0.69368
vn -0.27427 0.92171 0.27427
vn -0.65391 -0.38054 0.65391
vn -0.39582 0.82865 0.39582
vn -0.58926 -0.55276 0.58926
vn -0.50214 0.70406 0.50215
vn -0.54502 -0.19393 0.81568
vn -0.51377 -0.38054 0.76891
vn -0.21550 0.92171 0.32251
vn -0.31099 0.82865 0.46543
vn -0.46298 -0.55276 0.69290
vn -0.39453 0.70406 0.59046
vn -0.39453 -0.70406 0.59046
vn -0.46298 0.55276 0.69290
vn -0.31099 -0.82865 0.46543
vn -0.51377 0.38054 0.76891
vn -0.21550 -0.92171 0.32251
vn -0.54502 0.19393 0.81568
vn -0.11165 -0.97960 0.16710
vn -0.55557 0.00000 0.83147
vn -0.11165 0.97960 0.16710
vn -0.21422 -0.82865 0.51716
vn -0.14844 -0.92171 0.35836
vn -0.35389 0.38054 0.85437
vn -0.37542 0.19393 0.90634
vn -0.07691 -0.97960 0.18567
vn -0.38268 0.00000 0.92388
vn -0.07691 0.97960 0.18567
vn -0.37542 -0.19393 0.90634
vn -0.14844 0.92171 0.35836
vn -0.35389 -0.38054 0.85437
vn -0.21422 0.82865 0.51716
vn -0.31891 -0.55276 0.76990
vn -0.27176 0.70406 0.65608
vn -0.27176 -0.70406 0.65608
vn -0.31891 0.55276 0.76990
vn -0.07567 0.92171 0.38043
vn -0.10921 0.82865 0.54902
vn -0.18041 -0.38054 0.90700
vn -0.16258 -0.55276 0.81733
vn -0.13854 0.70406 0.69649
vn -0.13854 -0.70406 0.69649
vn -0.16258 0.55276 0.81733
vn -0.10921 -0.82865 0.54902
vn -0.18042 0.38054 0.90700
vn -0.07567 -0.92171 0.38043
vn -0.19139 0.19393 0.96217
vn -0.03921 -0.97960 0.19710
vn -0.19509 0.00000 0.98079
vn -0.03921 0.97960 0.19710
vn -0.19139 -0.19393 0.96217
# 482 normal vertices

g Sphere1
s 1
usemtl None
f 24/4/4 23/3/3 10/2/2 480/1/1
f 17/8/8 16/7/7 6/6/6 7/5/5
f 25/10/10 24/4/4 480/1/1 481/9/9
f 18/12/12 17/8/8 7/5/5 477/11/11
f 11/15/15 326/14/14 1/13/13
f 25/10/10 481/9/9 482/16/16
f 19/18/18 18/12/12 477/11/11 478/17/17
f 12/20/20 11/15/15 1/13/13 2/19/19
f 20/22/22 19/18/18 478/17/17 479/21/21
f 13/24/24 12/20/20 2/19/19 3/23/23
f 21/26/26 20/22/22 479/21/21 8/25/25
f 14/28/28 13/24/24 3/23/23 4/27/27
f 22/30/30 21/26/26 8/25/25 9/29/29
f 15/32/32 14/28/28 4/27/27 5/31/31
f 23/3/3 22/30/30 9/29/29 10/2/2
f 16/7/7 15/32/32 5/31/31 6/6/6
f 38/34/34 37/33/33 22/30/30 23/3/3
f 31/36/36 30/35/35 15/32/32 16/7/7
f 39/37/37 38/34/34 23/3/3 24/4/4
f 32/38/38 31/36/36 16/7/7 17/8/8
f 40/39/39 39/37/37 24/4/4 25/10/10
f 33/40/40 32/38/38 17/8/8 18/12/12
f 26/42/41 326/41/14 11/15/15
f 40/39/39 25/10/10 482/43/16
f 34/44/42 33/40/40 18/12/12 19/18/18
f 27/45/43 26/42/41 11/15/15 12/20/20
f 35/46/44 34/44/42 19/18/18 20/22/22
f 28/47/45 27/45/43 12/20/20 13/24/24
f 36/48/46 35/46/44 20/22/22 21/26/26
f 29/49/47 28/47/45 13/24/24 14/28/28
f 37/33/33 36/48/46 21/26/26 22/30/30
f 30/35/35 29/49/47 14/28/28 15/32/32
f 42/51/49 41/50/48 26/42/41 27/45/43
f 50/53/51 49/52/50 34/44/42 35/46/44
f 43/54/52 42/51/49 27/45/43 28/47/45
f 51/55/53 50/53/51 35/46/44 36/48/46
f 44/56/54 43/54/52 28/47/45 29/49/47
f 52/57/55 51/55/53 36/48/46 37/33/33
f 45/58/56 44/56/54 29/49/47 30/35/35
f 53/59/57 52/57/55 37/33/33 38/34/34
f 46/60/58 45/58/56 30/35/35 31/36/36
f 54/61/59 53/59/57 38/34/34 39/37/37
f 47/62/60 46/60/58 31/36/36 32/38/38
f 55/63/61 54/61/59 39/37/37 40/39/39
f 48/64/62 47/62/60 32/38/38 33/40/40
f 41/50/48 326/65/14 26/42/41
f 55/63/61 40/39/39 482/66/16
f 49/52/50 48/64/62 33/40/40 34/44/42
f 61/68/64 60/67/63 45/58/56 46/60/58
f 69/70/66 68/69/65 53/59/57 54/61/59
f 62/71/67 61/68/64 46/60/58 47/62/60
f 70/72/68 69/70/66 54/61/59 55/63/61
f 63/73/69 62/71/67 47/62/60 48/64/62
f 56/75/70 326/74/14 41/50/48
f 70/72/68 55/63/61 482/76/16
f 64/77/71 63/73/69 48/64/62 49/52/50
f 57/78/72 56/75/70 41/50/48 42/51/49
f 65/79/73 64/77/71 49/52/50 50/53/51
f 58/80/74 57/78/72 42/51/49 43/54/52
f 66/81/75 65/79/73 50/53/51 51/55/53
f 59/82/76 58/80/74 43/54/52 44/56/54
f 67/83/77 66/81/75 51/55/53 52/57/55
f 60/67/63 59/82/76 44/56/54 45/58/56
f 68/69/65 67/83/77 52/57/55 53/59/57
f 80/85/79 79/84/78 64/77/71 65/79/73
f 73/87/81 72/86/80 57/78/72 58/80/74
f 81/88/82 80/85/79 65/79/73 66/81/75
f 74/89/83 73/87/81 58/80/74 59/82/76
f 82/90/84 81/88/82 66/81/75 67/83/77
f 75/91/85 74/89/83 59/82/76 60/67/63
f 83/92/86 82/90/84 67/83/77 68/69/65
f 76/93/87 75/91/85 60/67/63 61/68/64
f 84/94/88 83/92/86 68/69/65 69/70/66
f 77/95/89 76/93/87 61/68/64 62/71/67
f 85/96/90 84/94/88 69/70/66 70/72/68
f 78/97/91 77/95/89 62/71/67 63/73/69
f 71/99/92 326/98/14 56/75/70
f 85/96/90 70/72/68 482/100/16
f 79/84/78 78/97/91 63/73/69 64/77/71
f 72/86/80 71/99/92 56/75/70 57/78/72
f 99/102/94 98/101/93 83/92/86 84/94/88
f 92/104/96 91/103/95 76/93/87 77/95/89
f 100/105/97 99/102/94 84/94/88 85/96/90
f 93/106/98 92/104/96 77/95/89 78/97/91
f 86/108/99 326/107/14 71/99/92
f 100/105/97 85/96/90 482/109/16
f 94/110/100 93/106/98 78/97/91 79/84/78
f 87/111/101 86/108/99 71/99/92 72/86/80
f 95/112/102 94/110/100 79/84/78 80/85/79
f 88/113/103 87/111/101 72/86/80 73/87/81
f 96/114/104 95/112/102 80/85/79 81/88/82
f 89/115/105 88/113/103 73/87/81 74/89/83
f 97/116/106 96/114/104 81/88/82 82/90/84
f 90/117/107 89/115/105 74/89/83 75/91/85
f 98/101/93 97/116/106 82/90/84 83/92/86
f 91/103/95 90/117/107 75/91/85 76/93/87
f 103/119/109 102/118/108 87/111/101 88/113/103
f 111/121/111 110/120/110 95/112/102 96/114/104
f 104/122/112 103/119/109 88/113/103 89/115/105
f 112/123/113 111/121/111 96/114/104 97/116/106
f 105/124/114 104/122/112 89/115/105 90/117/107
f 113/125/115 112/123/113 97/116/106 98/101/93
f 106/126/116 105/124/114 90/117/107 91/103/95
f 114/127/117 113/125/115 98/101/93 99/102/94
f 107/128/118 106/126/116 91/103/95 92/104/96
f 115/129/119 114/127/117 99/102/94 100/105/97
f 108/130/120 107/128/118 92/104/96 93/106/98
f 101/132/121 326/131/14 86/108/99
f 115/129/119 100/105/97 482/133/16
f 109/134/122 108/130/120 93/106/98 94/110/100
f 102/118/108 101/132/121 86/108/99 87/111/101
f 110/120/110 109/134/122 94/110/100 95/112/102
f 122/136/124 121/135/123 106/126/116 107/128/118
f 130/138/126 129/137/125 114/127/117 115/129/119
f 123/139/127 122/136/124 107/128/118 108/130/120
f 116/141/128 326/140/14 101/132/121
f 130/138/126 115/129/119 482/142/16
f 124/143/129 123/139/127 108/130/120 109/134/122
f 117/144/130 116/141/128 101/132/121 102/118/108
f 125/145/131 124/143/129 109/134/122 110/120/110
f 118/146/132 117/144/130 102/118/108 103/119/109
f 126/147/133 125/145/131 110/120/110 111/121/111
f 119/148/134 118/146/132 103/119/109 104/122/112
f 127/149/135 126/147/133 111/121/111 112/123/113
f 120/150/136 119/148/134 104/122/112 105/124/114
f 128/151/137 127/149/135 112/123/113 113/125/115
f 121/135/123 120/150/136 105/124/114 106/126/116
f 129/137/125 128/151/137 113/125/115 114/127/117
f 141/153/139 140/152/138 125/145/131 126/147/133
f 134/155/141 133/154/140 118/146/132 119/148/134
f 142/156/142 141/153/139 126/147/133 127/149/135
f 135/157/143 134/155/141 119/148/134 120/150/136
f 143/158/144 142/156/142 127/149/135 128/151/137
f 136/159/145 135/157/143 120/150/136 121/135/123
f 144/160/146 143/158/144 128/151/137 129/137/125
f 137/161/147 136/159/145 121/135/123 122/136/124
f 145/162/148 144/160/146 129/137/125 130/138/126
f 138/163/149 137/161/147 122/136/124 123/139/127
f 131/165/150 326/164/14 116/141/128
f 145/162/148 130/138/126 482/166/16
f 139/167/151 138/163/149 123/139/127 124/143/129
f 132/168/152 131/165/150 116/141/128 117/144/130
f 140/152/138 139/167/151 124/143/129 125/145/131
f 133/154/140 132/168/152 117/144/130 118/146/132
f 160/170/154 159/169/153 144/160/146 145/162/148
f 153/172/156 152/171/155 137/161/147 138/163/149
f 146/174/157 326/173/14 131/165/150
f 160/170/154 145/162/148 482/175/16
f 154/176/158 153/172/156 138/163/149 139/167/151
f 147/177/159 146/174/157 131/165/150 132/168/152
f 155/178/160 154/176/158 139/167/151 140/152/138
f 148/179/161 147/177/159 132/168/152 133/154/140
f 156/180/162 155/178/160 140/152/138 141/153/139
f 149/181/163 148/179/161 133/154/140 134/155/141
f 157/182/164 156/180/162 141/153/139 142/156/142
f 150/183/165 149/181/163 134/155/141 135/157/143
f 158/184/166 157/182/164 142/156/142 143/158/144
f 151/185/167 150/183/165 135/157/143 136/159/145
f 159/169/153 158/184/166 143/158/144 144/160/146
f 152/171/155 151/185/167 136/159/145 137/161/147
f 172/187/169 171/186/168 156/180/162 157/182/164
f 165/189/171 164/188/170 149/181/163 150/183/165
f 173/190/172 172/187/169 157/182/164 158/184/166
f 166/191/173 165/189/171 150/183/165 151/185/167
f 174/192/174 173/190/172 158/184/166 159/169/153
f 167/193/175 166/191/173 151/185/167 152/171/155
f 175/194/176 174/192/174 159/169/153 160/170/154
f 168/195/177 167/193/175 152/171/155 153/172/156
f 161/197/178 326/196/14 146/174/157
f 175/194/176 160/170/154 482/198/16
f 169/199/179 168/195/177 153/172/156 154/176/158
f 162/200/180 161/197/178 146/174/157 147/177/159
f 170/201/181 169/199/179 154/176/158 155/178/160
f 163/202/182 162/200/180 147/177/159 148/179/161
f 171/186/168 170/201/181 155/178/160 156/180/162
f 164/188/170 163/202/182 148/179/161 149/181/163
f 176/204/183 326/203/14 161/197/178
f 190/206/184 175/194/176 482/205/16
f 184/208/186 183/207/185 168/195/177 169/199/179
f 177/209/187 176/204/183 161/197/178 162/200/180
f 185/210/188 184/208/186 169/199/179 170/201/181
f 178/211/189 177/209/187 162/200/180 163/202/182
f 186/212/190 185/210/188 170/201/181 171/186/168
f 179/213/191 178/211/189 163/202/182 164/188/170
f 187/214/192 186/212/190 171/186/168 172/187/169
f 180/215/193 179/213/191 164/188/170 165/189/171
f 188/216/194 187/214/192 172/187/169 173/190/172
f 181/217/195 180/215/193 165/189/171 166/191/173
f 189/218/196 188/216/194 173/190/172 174/192/174
f 182/219/197 181/217/195 166/191/173 167/193/175
f 190/206/184 189/218/196 174/192/174 175/194/176
f 183/207/185 182/219/197 167/193/175 168/195/177
f 195/221/199 194/220/198 179/213/191 180/215/193
f 203/223/201 202/222/200 187/214/192 188/216/194
f 196/224/202 195/221/199 180/215/193 181/217/195
f 204/225/203 203/223/201 188/216/194 189/218/196
f 197/226/204 196/224/202 181/217/195 182/219/197
f 205/227/205 204/225/203 189/218/196 190/206/184
f 198/228/206 197/226/204 182/219/197 183/207/185
f 191/230/207 326/229/14 176/204/183
f 205/227/205 190/206/184 482/231/16
f 199/232/208 198/228/206 183/207/185 184/208/186
f 192/233/209 191/230/207 176/204/183 177/209/187
f 200/234/210 199/232/208 184/208/186 185/210/188
f 193/235/211 192/233/209 177/209/187 178/211/189
f 201/236/212 200/234/210 185/210/188 186/212/190
f 194/220/198 193/235/211 178/211/189 179/213/191
f 202/222/200 201/236/212 186/212/190 187/214/192
f 214/238/214 213/237/213 198/228/206 199/232/208
f 207/240/216 206/239/215 191/230/207 192/233/209
f 215/241/217 214/238/214 199/232/208 200/234/210
f 208/242/218 207/240/216 192/233/209 193/235/211
f 216/243/219 215/241/217 200/234/210 201/236/212
f 209/244/220 208/242/218 193/235/211 194/220/198
f 217/245/221 216/243/219 201/236/212 202/222/200
f 210/246/222 209/244/220 194/220/198 195/221/199
f 218/247/223 217/245/221 202/222/200 203/223/201
f 211/248/224 210/246/222 195/221/199 196/224/202
f 219/249/225 218/247/223 203/223/201 204/225/203
f 212/250/226 211/248/224 196/224/202 197/226/204
f 220/251/227 219/249/225 204/225/203 205/227/205
f 213/237/213 212/250/226 197/226/204 198/228/206
f 206/239/215 326/252/14 191/230/207
f 220/251/227 205/227/205 482/253/16
f 233/255/229 232/254/228 217/245/221 218/247/223
f 226/257/231 225/256/230 210/246/222 211/248/224
f 234/258/232 233/255/229 218/247/223 219/249/225
f 227/259/233 226/257/231 211/248/224 212/250/226
f 235/260/234 234/258/232 219/249/225 220/251/227
f 228/261/235 227/259/233 212/250/226 213/237/213
f 221/263/236 326/262/14 206/239/215
f 235/260/234 220/251/227 482/264/16
f 229/265/237 228/261/235 213/237/213 214/238/214
f 222/266/238 221/263/236 206/239/215 207/240/216
f 230/267/239 229/265/237 214/238/214 215/241/217
f 223/268/240 222/266/238 207/240/216 208/242/218
f 231/269/241 230/267/239 215/241/217 216/243/219
f 224/270/242 223/268/240 208/242/218 209/244/220
f 232/254/228 231/269/241 216/243/219 217/245/221
f 225/256/230 224/270/242 209/244/220 210/246/222
f 237/272/244 236/271/243 221/263/236 222/266/238
f 245/274/246 244/273/245 229/265/237 230/267/239
f 238/275/247 237/272/244 222/266/238 223/268/240
f 246/276/248 245/274/246 230/267/239 231/269/241
f 239/277/249 238/275/247 223/268/240 224/270/242
f 247/278/250 246/276/248 231/269/241 232/254/228
f 240/279/251 239/277/249 224/270/242 225/256/230
f 248/280/252 247/278/250 232/254/228 233/255/229
f 241/281/253 240/279/251 225/256/230 226/257/231
f 249/282/254 248/280/252 233/255/229 234/258/232
f 242/283/255 241/281/253 226/257/231 227/259/233
f 250/284/256 249/282/254 234/258/232 235/260/234
f 243/285/257 242/283/255 227/259/233 228/261/235
f 236/271/243 326/286/14 221/263/236
f 250/284/256 235/260/234 482/287/16
f 244/273/245 243/285/257 228/261/235 229/265/237
f 256/289/259 255/288/258 240/279/251 241/281/253
f 264/291/261 263/290/260 248/280/252 249/282/254
f 257/292/262 256/289/259 241/281/253 242/283/255
f 265/293/263 264/291/261 249/282/254 250/284/256
f 258/294/264 257/292/262 242/283/255 243/285/257
f 251/296/265 326/295/14 236/271/243
f 265/293/263 250/284/256 482/297/16
f 259/298/266 258/294/264 243/285/257 244/273/245
f 252/299/267 251/296/265 236/271/243 237/272/244
f 260/300/268 259/298/266 244/273/245 245/274/246
f 253/301/269 252/299/267 237/272/244 238/275/247
f 261/302/270 260/300/268 245/274/246 246/276/248
f 254/303/271 253/301/269 238/275/247 239/277/249
f 262/304/272 261/302/270 246/276/248 247/278/250
f 255/288/258 254/303/271 239/277/249 240/279/251
f 263/290/260 262/304/272 247/278/250 248/280/252
f 275/306/274 274/305/273 259/298/266 260/300/268
f 268/308/276 267/307/275 252/299/267 253/301/269
f 276/309/277 275/306/274 260/300/268 261/302/270
f 269/310/278 268/308/276 253/301/269 254/303/271
f 277/311/279 276/309/277 261/302/270 262/304/272
f 270/312/280 269/310/278 254/303/271 255/288/258
f 278/313/281 277/311/279 262/304/272 263/290/260
f 271/314/282 270/312/280 255/288/258 256/289/259
f 279/315/283 278/313/281 263/290/260 264/291/261
f 272/316/284 271/314/282 256/289/259 257/292/262
f 280/317/285 279/315/283 264/291/261 265/293/263
f 273/318/286 272/316/284 257/292/262 258/294/264
f 266/320/287 326/319/14 251/296/265
f 280/317/285 265/293/263 482/321/16
f 274/305/273 273/318/286 258/294/264 259/298/266
f 267/307/275 266/320/287 251/296/265 252/299/267
f 294/323/289 293/322/288 278/313/281 279/315/283
f 287/325/291 286/324/290 271/314/282 272/316/284
f 295/326/292 294/323/289 279/315/283 280/317/285
f 288/327/293 287/325/291 272/316/284 273/318/286
f 281/329/294 326/328/14 266/320/287
f 295/326/292 280/317/285 482/330/16
f 289/331/295 288/327/293 273/318/286 274/305/273
f 282/332/296 281/329/294 266/320/287 267/307/275
f 290/333/297 289/331/295 274/305/273 275/306/274
f 283/334/298 282/332/296 267/307/275 268/308/276
f 291/335/299 290/333/297 275/306/274 276/309/277
f 284/336/300 283/334/298 268/308/276 269/310/278
f 292/337/301 291/335/299 276/309/277 277/311/279
f 285/338/302 284/336/300 269/310/278 270/312/280
f 293/322/288 292/337/301 277/311/279 278/313/281
f 286/324/290 285/338/302 270/312/280 271/314/282
f 306/340/304 305/339/303 290/333/297 291/335/299
f 299/342/306 298/341/305 283/334/298 284/336/300
f 307/343/307 306/340/304 291/335/299 292/337/301
f 300/344/308 299/342/306 284/336/300 285/338/302
f 308/345/309 307/343/307 292/337/301 293/322/288
f 301/346/310 300/344/308 285/338/302 286/324/290
f 309/347/311 308/345/309 293/322/288 294/323/289
f 302/348/312 301/346/310 286/324/290 287/325/291
f 310/349/313 309/347/311 294/323/289 295/326/292
f 303/350/314 302/348/312 287/325/291 288/327/293
f 296/352/315 326/351/14 281/329/294
f 310/349/313 295/326/292 482/353/16
f 304/354/316 303/350/314 288/327/293 289/331/295
f 297/355/317 296/352/315 281/329/294 282/332/296
f 305/339/303 304/354/316 289/331/295 290/333/297
f 298/341/305 297/355/317 282/332/296 283/334/298
f 325/357/319 324/356/318 309/347/311 310/349/313
f 318/359/321 317/358/320 302/348/312 303/350/314
f 311/361/322 326/360/14 296/352/315
f 325/357/319 310/349/313 482/362/16
f 319/363/323 318/359/321 303/350/314 304/354/316
f 312/364/324 311/361/322 296/352/315 297/355/317
f 320/365/325 319/363/323 304/354/316 305/339/303
f 313/366/326 312/364/324 297/355/317 298/341/305
f 321/367/327 320/365/325 305/339/303 306/340/304
f 314/368/328 313/366/326 298/341/305 299/342/306
f 322/369/329 321/367/327 306/340/304 307/343/307
f 315/370/330 314/368/328 299/342/306 300/344/308
f 323/371/331 322/369/329 307/343/307 308/345/309
f 316/372/332 315/370/330 300/344/308 301/346/310
f 324/356/318 323/371/331 308/345/309 309/347/311
f 317/358/320 316/372/332 301/346/310 302/348/312
f 330/374/334 329/373/333 313/366/326 314/368/328
f 338/376/336 337/375/335 321/367/327 322/369/329
f 331/377/337 330/374/334 314/368/328 315/370/330
f 339/378/338 338/376/336 322/369/329 323/371/331
f 332/379/339 331/377/337 315/370/330 316/372/332
f 340/380/340 339/378/338 323/371/331 324/356/318
f 333/381/341 332/379/339 316/372/332 317/358/320
f 341/382/342 340/380/340 324/356/318 325/357/319
f 334/383/343 333/381/341 317/358/320 318/359/321
f 327/385/344 326/384/14 311/361/322
f 341/382/342 325/357/319 482/386/16
f 335/387/345 334/383/343 318/359/321 319/363/323
f 328/388/346 327/385/344 311/361/322 312/364/324
f 336/389/347 335/387/345 319/363/323 320/365/325
f 329/373/333 328/388/346 312/364/324 313/366/326
f 337/375/335 336/389/347 320/365/325 321/367/327
f 349/391/349 348/390/348 333/381/341 334/383/343
f 342/393/350 326/392/14 327/385/344
f 356/395/351 341/382/342 482/394/16
f 350/396/352 349/391/349 334/383/343 335/387/345
f 343/397/353 342/393/350 327/385/344 328/388/346
f 351/398/354 350/396/352 335/387/345 336/389/347
f 344/399/355 343/397/353 328/388/346 329/373/333
f 352/400/356 351/398/354 336/389/347 337/375/335
f 345/401/357 344/399/355 329/373/333 330/374/334
f 353/402/358 352/400/356 337/375/335 338/376/336
f 346/403/359 345/401/357 330/374/334 331/377/337
f 354/404/360 353/402/358 338/376/336 339/378/338
f 347/405/361 346/403/359 331/377/337 332/379/339
f 355/406/362 354/404/360 339/378/338 340/380/340
f 348/390/348 347/405/361 332/379/339 333/381/341
f 356/395/351 355/406/362 340/380/340 341/382/342
f 368/408/364 367/407/363 352/400/356 353/402/358
f 361/410/366 360/409/365 345/401/357 346/403/359
f 369/411/367 368/408/364 353/402/358 354/404/360
f 362/412/368 361/410/366 346/403/359 347/405/361
f 370/413/369 369/411/367 354/404/360 355/406/362
f 363/414/370 362/412/368 347/405/361 348/390/348
f 371/415/371 370/413/369 355/406/362 356/395/351
f 364/416/372 363/414/370 348/390/348 349/391/349
f 357/418/373 326/417/14 342/393/350
f 371/415/371 356/395/351 482/419/16
f 365/420/374 364/416/372 349/391/349 350/396/352
f 358/421/375 357/418/373 342/393/350 343/397/353
f 366/422/376 365/420/374 350/396/352 351/398/354
f 359/423/377 358/421/375 343/397/353 344/399/355
f 367/407/363 366/422/376 351/398/354 352/400/356
f 360/409/365 359/423/377 344/399/355 345/401/357
f 372/426/378 326/425/14 357/424/373
f 386/429/379 371/428/371 482/427/16
f 380/433/381 379/432/380 364/431/372 365/430/374
f 373/435/382 372/426/378 357/424/373 358/434/375
f 381/437/383 380/433/381 365/430/374 366/436/376
f 374/439/384 373/435/382 358/434/375 359/438/377
f 382/441/385 381/437/383 366/436/376 367/440/363
f 375/443/386 374/439/384 359/438/377 360/442/365
f 383/445/387 382/441/385 367/440/363 368/444/364
f 376/447/388 375/443/386 360/442/365 361/446/366
f 384/449/389 383/445/387 368/444/364 369/448/367
f 377/451/390 376/447/388 361/446/366 362/450/368
f 385/453/391 384/449/389 369/448/367 370/452/369
f 378/455/392 377/451/390 362/450/368 363/454/370
f 386/429/379 385/453/391 370/452/369 371/428/371
f 379/432/380 378/455/392 363/454/370 364/431/372
f 391/457/394 390/456/393 375/443/386 376/447/388
f 399/459/396 398/458/395 383/445/387 384/449/389
f 392/460/397 391/457/394 376/447/388 377/451/390
f 400/461/398 399/459/396 384/449/389 385/453/391
f 393/462/399 392/460/397 377/451/390 378/455/392
f 401/463/400 400/461/398 385/453/391 386/429/379
f 394/464/401 393/462/399 378/455/392 379/432/380
f 387/466/402 326/465/14 372/426/378
f 401/463/400 386/429/379 482/467/16
f 395/468/403 394/464/401 379/432/380 380/433/381
f 388/469/404 387/466/402 372/426/378 373/435/382
f 396/470/405 395/468/403 380/433/381 381/437/383
f 389/471/406 388/469/404 373/435/382 374/439/384
f 397/472/407 396/470/405 381/437/383 382/441/385
f 390/456/393 389/471/406 374/439/384 375/443/386
f 398/458/395 397/472/407 382/441/385 383/445/387
f 410/474/409 409/473/408 394/464/401 395/468/403
f 403/476/411 402/475/410 387/466/402 388/469/404
f 411/477/412 410/474/409 395/468/403 396/470/405
f 404/478/413 403/476/411 388/469/404 389/471/406
f 412/479/414 411/477/412 396/470/405 397/472/407
f 405/480/415 404/478/413 389/471/406 390/456/393
f 413/481/416 412/479/414 397/472/407 398/458/395
f 406/482/417 405/480/415 390/456/393 391/457/394
f 414/483/418 413/481/416 398/458/395 399/459/396
f 407/484/419 406/482/417 391/457/394 392/460/397
f 415/485/420 414/483/418 399/459/396 400/461/398
f 408/486/421 407/484/419 392/460/397 393/462/399
f 416/487/422 415/485/420 400/461/398 401/463/400
f 409/473/408 408/486/421 393/462/399 394/464/401
f 402/475/410 326/488/14 387/466/402
f 416/487/422 401/463/400 482/489/16
f 429/491/424 428/490/423 413/481/416 414/483/418
f 422/493/426 421/492/425 406/482/417 407/484/419
f 430/494/427 429/491/424 414/483/418 415/485/420
f 423/495/428 422/493/426 407/484/419 408/486/421
f 431/496/429 430/494/427 415/485/420 416/487/422
f 424/497/430 423/495/428 408/486/421 409/473/408
f 417/499/431 326/498/14 402/475/410
f 431/496/429 416/487/422 482/500/16
f 425/501/432 424/497/430 409/473/408 410/474/409
f 418/502/433 417/499/431 402/475/410 403/476/411
f 426/503/434 425/501/432 410/474/409 411/477/412
f 419/504/435 418/502/433 403/476/411 404/478/413
f 427/505/436 426/503/434 411/477/412 412/479/414
f 420/506/437 419/504/435 404/478/413 405/480/415
f 428/490/423 427/505/436 412/479/414 413/481/416
f 421/492/425 420/506/437 405/480/415 406/482/417
f 441/508/439 440/507/438 425/501/432 426/503/434
f 434/510/441 433/509/440 418/502/433 419/504/435
f 442/511/442 441/508/439 426/503/434 427/505/436
f 435/512/443 434/510/441 419/504/435 420/506/437
f 443/513/444 442/511/442 427/505/436 428/490/423
f 436/514/445 435/512/443 420/506/437 421/492/425
f 444/515/446 443/513/444 428/490/423 429/491/424
f 437/516/447 436/514/445 421/492/425 422/493/426
f 445/517/448 444/515/446 429/491/424 430/494/427
f 438/518/449 437/516/447 422/493/426 423/495/428
f 446/519/450 445/517/448 430/494/427 431/496/429
f 439/520/451 438/518/449 423/495/428 424/497/430
f 432/522/452 326/521/14 417/499/431
f 446/519/450 431/496/429 482/523/16
f 440/507/438 439/520/451 424/497/430 425/501/432
f 433/509/440 432/522/452 417/499/431 418/502/433
f 460/525/454 459/524/453 444/515/446 445/517/448
f 453/527/456 452/526/455 437/516/447 438/518/449
f 461/528/457 460/525/454 445/517/448 446/519/450
f 454/529/458 453/527/456 438/518/449 439/520/451
f 447/531/459 326/530/14 432/522/452
f 461/528/457 446/519/450 482/532/16
f 455/533/460 454/529/458 439/520/451 440/507/438
f 448/534/461 447/531/459 432/522/452 433/509/440
f 456/535/462 455/533/460 440/507/438 441/508/439
f 449/536/463 448/534/461 433/509/440 434/510/441
f 457/537/464 456/535/462 441/508/439 442/511/442
f 450/538/465 449/536/463 434/510/441 435/512/443
f 458/539/466 457/537/464 442/511/442 443/513/444
f 451/540/467 450/538/465 435/512/443 436/514/445
f 459/524/453 458/539/466 443/513/444 444/515/446
f 452/526/455 451/540/467 436/514/445 437/516/447
f 464/542/469 463/541/468 448/534/461 449/536/463
f 472/544/471 471/543/470 456/535/462 457/537/464
f 465/545/472 464/542/469 449/536/463 450/538/465
f 473/546/473 472/544/471 457/537/464 458/539/466
f 466/547/474 465/545/472 450/538/465 451/540/467
f 474/548/475 473/546/473 458/539/466 459/524/453
f 467/549/476 466/547/474 451/540/467 452/526/455
f 475/550/477 474/548/475 459/524/453 460/525/454
f 468/551/478 467/549/476 452/526/455 453/527/456
f 476/552/479 475/550/477 460/525/454 461/528/457
f 469/553/480 468/551/478 453/527/456 454/529/458
f 462/555/481 326/554/14 447/531/459
f 476/552/479 461/528/457 482/556/16
f 470/557/482 469/553/480 454/529/458 455/533/460
f 463/541/468 462/555/481 447/531/459 448/534/461
f 471/543/470 470/557/482 455/533/460 456/535/462
f 7/5/5 6/6/6 467/549/476 468/551/478
f 481/9/9 480/1/1 475/550/477 476/552/479
f 477/11/11 7/5/5 468/551/478 469/553/480
f 1/13/13 326/558/14 462/555/481
f 481/9/9 476/552/479 482/559/16
f 478/17/17 477/11/11 469/553/480 470/557/482
f 2/19/19 1/13/13 462/555/481 463/541/468
f 479/21/21 478/17/17 470/557/482 471/543/470
f 3/23/23 2/19/19 463/541/468 464/542/469
f 8/25/25 479/21/21 471/543/470 472/544/471
f 4/27/27 3/23/23 464/542/469 465/545/472
f 9/29/29 8/25/25 472/544/471 473/546/473
f 5/31/31 4/27/27 465/545/472 466/547/474
f 10/2/2 9/29/29 473/546/473 474/548/475
f 6/6/6 5/31/31 466/547/474 467/549/476
f 480/1/1 10/2/2 474/548/475 475/550/477
# 512 elements

